<mxfile host="65bd71144e">
    <diagram id="NmaqK_R0HK8OQ3ly9QpX" name="Page-1">
        <mxGraphModel dx="40210" dy="15950" grid="1" gridSize="10" guides="1" tooltips="1" connect="1" arrows="1" fold="1" page="1" pageScale="1" pageWidth="850" pageHeight="1100" background="#ffffff" math="0" shadow="0">
            <root>
                <mxCell id="0"/>
                <mxCell id="1" parent="0"/>
                <UserObject label="" mermaidData="{&#xa;  &quot;data&quot;: &quot;erDiagram\n    %% =======================================================\n    %% USER ENTITY\n    %% Stores all platform user information.\n    %% The \&quot;role\&quot; field distinguishes between customer, seller, and admin.\n    %% =======================================================\n    USER {\n      int id PK\n      string email\n      string full_name\n      string password_hash\n      string role \&quot;customer | seller | admin\&quot;\n      datetime created_at\n      datetime updated_at\n    }\n    \n    %% =======================================================\n    %% PRODUCT CATEGORY ENTITY\n    %% Contains details to classify products into categories.\n    %% =======================================================\n    PRODUCT_CATEGORY {\n      int id PK\n      string name\n      string thumbnail_url\n      string description\n    }\n    \n    %% =======================================================\n    %% PRODUCT ENTITY\n    %% Holds product details.\n    %% References a seller (from USER) and a category (from PRODUCT_CATEGORY).\n    %% The preview_image_url provides a quick link to the primary product image.\n    %% =======================================================\n    PRODUCT {\n      int id PK\n      int seller_id FK\n      int category_id FK\n      string name\n      string description\n      float price\n      int stock_quantity\n      datetime created_at\n      datetime updated_at\n      string preview_image_url \&quot;Optional: main preview image reference\&quot;\n    }\n    \n    %% =======================================================\n    %% PRODUCT IMAGES ENTITY\n    %% Stores additional images for products.\n    %% Supports various types such as preview, thumbnail, and gallery images.\n    %% =======================================================\n    PRODUCT_IMAGES {\n      int id PK\n      int product_id FK\n      string url \n      string image_type \&quot;preview | thumbnail | gallery\&quot;\n      int display_order\n      datetime created_at\n    }\n    \n    %% =======================================================\n    %% REVIEWS ENTITY\n    %% Contains user-submitted reviews (ratings and feedback) for products.\n    %% =======================================================\n    REVIEWS {\n      int id PK\n      int product_id FK\n      int user_id FK\n      int rating \&quot;1 to 5 stars\&quot;\n      string review_text\n      datetime created_at\n      datetime updated_at\n    }\n    \n    %% =======================================================\n    %% REVIEW VOTES ENTITY\n    %% Captures feedback on reviews.\n    %% Users can mark a review as \&quot;helpful\&quot; or \&quot;not helpful\&quot;, aiding in review ranking.\n    %% =======================================================\n    REVIEW_VOTES {\n      int id PK\n      int review_id FK\n      int user_id FK\n      string vote_type \&quot;helpful | not helpful\&quot;\n      datetime created_at\n    }\n    \n    %% =======================================================\n    %% SHOPPING CART ENTITY\n    %% Represents a user&#39;s active shopping cart.\n    %% =======================================================\n    SHOPPING_CART {\n      int id PK\n      int customer_id FK\n      datetime created_at\n      datetime updated_at\n    }\n    \n    %% =======================================================\n    %% CART ITEM ENTITY\n    %% Holds details about each product added to a shopping cart.\n    %% =======================================================\n    CART_ITEM {\n      int id PK\n      int cart_id FK\n      int product_id FK\n      int quantity\n      float unit_price\n    }\n    \n    %% =======================================================\n    %% ORDER ENTITY\n    %% Captures completed customer orders.\n    %% =======================================================\n    ORDER {\n      int id PK\n      int customer_id FK\n      datetime order_date\n      string order_status \&quot;processing | shipped | delivered | cancelled\&quot;\n      float total_amount\n    }\n    \n    %% =======================================================\n    %% ORDER ITEM ENTITY\n    %% Contains individual product details within an order.\n    %% =======================================================\n    ORDER_ITEM {\n      int id PK\n      int order_id FK\n      int product_id FK\n      int quantity\n      float unit_price\n    }\n    \n    %% =======================================================\n    %% PAYMENT ENTITY\n    %% Records payment transactions for orders.\n    %% =======================================================\n    PAYMENT {\n      int id PK\n      int order_id FK\n      string payment_method\n      float amount\n      string status\n      datetime payment_date\n    }\n    \n    %% =======================================================\n    %% SHIPPING ENTITY\n    %% Contains shipping details and tracking information for orders.\n    %% =======================================================\n    SHIPPING {\n      int id PK\n      int order_id FK\n      string shipping_address\n      string shipping_status\n      datetime shipped_date\n      datetime expected_delivery\n    }\n    \n    %% =======================================================\n    %% MODERATION QUEUE ENTITY\n    %% Used by administrators to review and approve/reject product listings.\n    %% This ensures that only compliant products are published.\n    %% =======================================================\n    MODERATION_QUEUE {\n      int id PK\n      int product_id FK\n      string status \&quot;pending | approved | rejected\&quot;\n      string feedback\n      int admin_id FK\n      datetime reviewed_at\n    }\n    \n    %% =======================================================\n    %% DISPUTE ENTITY\n    %% Handles order-related complaints or conflicts.\n    %% =======================================================\n    DISPUTE {\n      int id PK\n      int order_id FK\n      string dispute_reason\n      string status \&quot;open | resolved | rejected\&quot;\n      datetime created_at\n    }\n    \n    %% =======================================================\n    %% RELATIONSHIPS\n    %% Define relationships between entities to ensure data integrity.\n    %% =======================================================\n    \n    %% USER relationships:\n    %% A user can own one shopping cart.\n    USER ||--o{ SHOPPING_CART : \&quot;owns\&quot;\n    %% A user can place multiple orders.\n    USER ||--o{ ORDER : \&quot;places\&quot;\n    %% A seller (user) lists many products.\n    USER ||--o{ PRODUCT : \&quot;lists\&quot;\n    %% A user can write multiple reviews.\n    USER ||--o{ REVIEWS : \&quot;writes\&quot;\n    %% A user can vote on reviews.\n    USER ||--o{ REVIEW_VOTES : \&quot;votes\&quot;\n    \n    %% PRODUCT relationships:\n    %% A category can include many products.\n    PRODUCT_CATEGORY ||--o{ PRODUCT : \&quot;categorizes\&quot;\n    %% A product can have multiple images.\n    PRODUCT ||--o{ PRODUCT_IMAGES : \&quot;has\&quot;\n    %% A product may receive many reviews.\n    PRODUCT ||--o{ REVIEWS : \&quot;receives\&quot;\n    %% A product may appear in many cart items.\n    PRODUCT ||--o{ CART_ITEM : \&quot;appears in\&quot;\n    %% A product may be part of many orders.\n    PRODUCT ||--o{ ORDER_ITEM : \&quot;sold as part of\&quot;\n    %% A product must pass moderation.\n    PRODUCT ||--|{ MODERATION_QUEUE : \&quot;subject for moderation\&quot;\n    \n    %% REVIEWS relationships:\n    %% A review can have several votes.\n    REVIEWS ||--o{ REVIEW_VOTES : \&quot;gets\&quot;\n    \n    %% SHOPPING CART relationships:\n    %% A shopping cart contains multiple items.\n    SHOPPING_CART ||--o{ CART_ITEM : \&quot;contains\&quot;\n    \n    %% ORDER relationships:\n    %% An order includes one or more items.\n    ORDER ||--o{ ORDER_ITEM : \&quot;includes\&quot;\n    %% An order is linked to one payment record.\n    ORDER ||--|{ PAYMENT : \&quot;has\&quot;\n    %% An order features shipping details.\n    ORDER ||--|{ SHIPPING : \&quot;includes\&quot;\n    %% An order may be associated with disputes.\n    ORDER ||--o{ DISPUTE : \&quot;can have\&quot;\n&quot;&#xa;}" id="9">
                    <mxCell style="shape=image;noLabel=1;verticalAlign=top;imageAspect=1;image=data:image/svg+xml,PHN2ZyBhcmlhLXJvbGVkZXNjcmlwdGlvbj0iZXIiIHJvbGU9ImdyYXBoaWNzLWRvY3VtZW50IGRvY3VtZW50IiB2aWV3Qm94PSIwIDAgMjc0Ny42MjU3MzI0MjE4NzUgMTA3NCIgc3R5bGU9Im1heC13aWR0aDogMjc0Ny42MjU3MzI0MjE4NzVweDsiIHhtbG5zPSJodHRwOi8vd3d3LnczLm9yZy8yMDAwL3N2ZyIgd2lkdGg9IjEwMCUiIGlkPSJnZU1lcm1haWRPdXRwdXQtMTc0NTYzNDY2MTUxMiI+PHN0eWxlPiNnZU1lcm1haWRPdXRwdXQtMTc0NTYzNDY2MTUxMntmb250LWZhbWlseToidHJlYnVjaGV0IG1zIix2ZXJkYW5hLGFyaWFsLHNhbnMtc2VyaWY7Zm9udC1zaXplOjE2cHg7ZmlsbDojY2NjO30jZ2VNZXJtYWlkT3V0cHV0LTE3NDU2MzQ2NjE1MTIgLmVycm9yLWljb257ZmlsbDojYTQ0MTQxO30jZ2VNZXJtYWlkT3V0cHV0LTE3NDU2MzQ2NjE1MTIgLmVycm9yLXRleHR7ZmlsbDojZGRkO3N0cm9rZTojZGRkO30jZ2VNZXJtYWlkT3V0cHV0LTE3NDU2MzQ2NjE1MTIgLmVkZ2UtdGhpY2tuZXNzLW5vcm1hbHtzdHJva2Utd2lkdGg6MXB4O30jZ2VNZXJtYWlkT3V0cHV0LTE3NDU2MzQ2NjE1MTIgLmVkZ2UtdGhpY2tuZXNzLXRoaWNre3N0cm9rZS13aWR0aDozLjVweDt9I2dlTWVybWFpZE91dHB1dC0xNzQ1NjM0NjYxNTEyIC5lZGdlLXBhdHRlcm4tc29saWR7c3Ryb2tlLWRhc2hhcnJheTowO30jZ2VNZXJtYWlkT3V0cHV0LTE3NDU2MzQ2NjE1MTIgLmVkZ2UtdGhpY2tuZXNzLWludmlzaWJsZXtzdHJva2Utd2lkdGg6MDtmaWxsOm5vbmU7fSNnZU1lcm1haWRPdXRwdXQtMTc0NTYzNDY2MTUxMiAuZWRnZS1wYXR0ZXJuLWRhc2hlZHtzdHJva2UtZGFzaGFycmF5OjM7fSNnZU1lcm1haWRPdXRwdXQtMTc0NTYzNDY2MTUxMiAuZWRnZS1wYXR0ZXJuLWRvdHRlZHtzdHJva2UtZGFzaGFycmF5OjI7fSNnZU1lcm1haWRPdXRwdXQtMTc0NTYzNDY2MTUxMiAubWFya2Vye2ZpbGw6bGlnaHRncmV5O3N0cm9rZTpsaWdodGdyZXk7fSNnZU1lcm1haWRPdXRwdXQtMTc0NTYzNDY2MTUxMiAubWFya2VyLmNyb3Nze3N0cm9rZTpsaWdodGdyZXk7fSNnZU1lcm1haWRPdXRwdXQtMTc0NTYzNDY2MTUxMiBzdmd7Zm9udC1mYW1pbHk6InRyZWJ1Y2hldCBtcyIsdmVyZGFuYSxhcmlhbCxzYW5zLXNlcmlmO2ZvbnQtc2l6ZToxNnB4O30jZ2VNZXJtYWlkT3V0cHV0LTE3NDU2MzQ2NjE1MTIgcHttYXJnaW46MDt9I2dlTWVybWFpZE91dHB1dC0xNzQ1NjM0NjYxNTEyIC5lbnRpdHlCb3h7ZmlsbDojMWYyMDIwO3N0cm9rZTojY2NjO30jZ2VNZXJtYWlkT3V0cHV0LTE3NDU2MzQ2NjE1MTIgLmF0dHJpYnV0ZUJveE9kZHtmaWxsOmhzbCgwLCAwJSwgMzIlKTtzdHJva2U6I2NjYzt9I2dlTWVybWFpZE91dHB1dC0xNzQ1NjM0NjYxNTEyIC5hdHRyaWJ1dGVCb3hFdmVue2ZpbGw6aHNsKDAsIDAlLCAyMiUpO3N0cm9rZTojY2NjO30jZ2VNZXJtYWlkT3V0cHV0LTE3NDU2MzQ2NjE1MTIgLnJlbGF0aW9uc2hpcExhYmVsQm94e2ZpbGw6aHNsKDIwLCAxLjU4NzMwMTU4NzMlLCAxMi4zNTI5NDExNzY1JSk7b3BhY2l0eTowLjc7YmFja2dyb3VuZC1jb2xvcjpoc2woMjAsIDEuNTg3MzAxNTg3MyUsIDEyLjM1Mjk0MTE3NjUlKTt9I2dlTWVybWFpZE91dHB1dC0xNzQ1NjM0NjYxNTEyIC5yZWxhdGlvbnNoaXBMYWJlbEJveCByZWN0e29wYWNpdHk6MC41O30jZ2VNZXJtYWlkT3V0cHV0LTE3NDU2MzQ2NjE1MTIgLnJlbGF0aW9uc2hpcExpbmV7c3Ryb2tlOmxpZ2h0Z3JleTt9I2dlTWVybWFpZE91dHB1dC0xNzQ1NjM0NjYxNTEyIC5lbnRpdHlUaXRsZVRleHR7dGV4dC1hbmNob3I6bWlkZGxlO2ZvbnQtc2l6ZToxOHB4O2ZpbGw6I2NjYzt9I2dlTWVybWFpZE91dHB1dC0xNzQ1NjM0NjYxNTEyICNNRF9QQVJFTlRfU1RBUlR7ZmlsbDojZjVmNWY1IWltcG9ydGFudDtzdHJva2U6bGlnaHRncmV5IWltcG9ydGFudDtzdHJva2Utd2lkdGg6MTt9I2dlTWVybWFpZE91dHB1dC0xNzQ1NjM0NjYxNTEyICNNRF9QQVJFTlRfRU5Ee2ZpbGw6I2Y1ZjVmNSFpbXBvcnRhbnQ7c3Ryb2tlOmxpZ2h0Z3JleSFpbXBvcnRhbnQ7c3Ryb2tlLXdpZHRoOjE7fSNnZU1lcm1haWRPdXRwdXQtMTc0NTYzNDY2MTUxMiA6cm9vdHstLW1lcm1haWQtZm9udC1mYW1pbHk6InRyZWJ1Y2hldCBtcyIsdmVyZGFuYSxhcmlhbCxzYW5zLXNlcmlmO308L3N0eWxlPjxnPjwvZz48ZGVmcz48bWFya2VyIG9yaWVudD0iYXV0byIgbWFya2VySGVpZ2h0PSIyNDAiIG1hcmtlcldpZHRoPSIxOTAiIHJlZlk9IjciIHJlZlg9IjAiIGlkPSJNRF9QQVJFTlRfU1RBUlQiPjxwYXRoIGQ9Ik0gMTgsNyBMOSwxMyBMMSw3IEw5LDEgWiI+PC9wYXRoPjwvbWFya2VyPjwvZGVmcz48ZGVmcz48bWFya2VyIG9yaWVudD0iYXV0byIgbWFya2VySGVpZ2h0PSIyOCIgbWFya2VyV2lkdGg9IjIwIiByZWZZPSI3IiByZWZYPSIxOSIgaWQ9Ik1EX1BBUkVOVF9FTkQiPjxwYXRoIGQ9Ik0gMTgsNyBMOSwxMyBMMSw3IEw5LDEgWiI+PC9wYXRoPjwvbWFya2VyPjwvZGVmcz48ZGVmcz48bWFya2VyIG9yaWVudD0iYXV0byIgbWFya2VySGVpZ2h0PSIxOCIgbWFya2VyV2lkdGg9IjE4IiByZWZZPSI5IiByZWZYPSIwIiBpZD0iT05MWV9PTkVfU1RBUlQiPjxwYXRoIGQ9Ik05LDAgTDksMTggTTE1LDAgTDE1LDE4IiBmaWxsPSJub25lIiBzdHJva2U9ImdyYXkiPjwvcGF0aD48L21hcmtlcj48L2RlZnM+PGRlZnM+PG1hcmtlciBvcmllbnQ9ImF1dG8iIG1hcmtlckhlaWdodD0iMTgiIG1hcmtlcldpZHRoPSIxOCIgcmVmWT0iOSIgcmVmWD0iMTgiIGlkPSJPTkxZX09ORV9FTkQiPjxwYXRoIGQ9Ik0zLDAgTDMsMTggTTksMCBMOSwxOCIgZmlsbD0ibm9uZSIgc3Ryb2tlPSJncmF5Ij48L3BhdGg+PC9tYXJrZXI+PC9kZWZzPjxkZWZzPjxtYXJrZXIgb3JpZW50PSJhdXRvIiBtYXJrZXJIZWlnaHQ9IjE4IiBtYXJrZXJXaWR0aD0iMzAiIHJlZlk9IjkiIHJlZlg9IjAiIGlkPSJaRVJPX09SX09ORV9TVEFSVCI+PGNpcmNsZSByPSI2IiBjeT0iOSIgY3g9IjIxIiBmaWxsPSJ3aGl0ZSIgc3Ryb2tlPSJncmF5Ij48L2NpcmNsZT48cGF0aCBkPSJNOSwwIEw5LDE4IiBmaWxsPSJub25lIiBzdHJva2U9ImdyYXkiPjwvcGF0aD48L21hcmtlcj48L2RlZnM+PGRlZnM+PG1hcmtlciBvcmllbnQ9ImF1dG8iIG1hcmtlckhlaWdodD0iMTgiIG1hcmtlcldpZHRoPSIzMCIgcmVmWT0iOSIgcmVmWD0iMzAiIGlkPSJaRVJPX09SX09ORV9FTkQiPjxjaXJjbGUgcj0iNiIgY3k9IjkiIGN4PSI5IiBmaWxsPSJ3aGl0ZSIgc3Ryb2tlPSJncmF5Ij48L2NpcmNsZT48cGF0aCBkPSJNMjEsMCBMMjEsMTgiIGZpbGw9Im5vbmUiIHN0cm9rZT0iZ3JheSI+PC9wYXRoPjwvbWFya2VyPjwvZGVmcz48ZGVmcz48bWFya2VyIG9yaWVudD0iYXV0byIgbWFya2VySGVpZ2h0PSIzNiIgbWFya2VyV2lkdGg9IjQ1IiByZWZZPSIxOCIgcmVmWD0iMTgiIGlkPSJPTkVfT1JfTU9SRV9TVEFSVCI+PHBhdGggZD0iTTAsMTggUSAxOCwwIDM2LDE4IFEgMTgsMzYgMCwxOCBNNDIsOSBMNDIsMjciIGZpbGw9Im5vbmUiIHN0cm9rZT0iZ3JheSI+PC9wYXRoPjwvbWFya2VyPjwvZGVmcz48ZGVmcz48bWFya2VyIG9yaWVudD0iYXV0byIgbWFya2VySGVpZ2h0PSIzNiIgbWFya2VyV2lkdGg9IjQ1IiByZWZZPSIxOCIgcmVmWD0iMjciIGlkPSJPTkVfT1JfTU9SRV9FTkQiPjxwYXRoIGQ9Ik0zLDkgTDMsMjcgTTksMTggUTI3LDAgNDUsMTggUTI3LDM2IDksMTgiIGZpbGw9Im5vbmUiIHN0cm9rZT0iZ3JheSI+PC9wYXRoPjwvbWFya2VyPjwvZGVmcz48ZGVmcz48bWFya2VyIG9yaWVudD0iYXV0byIgbWFya2VySGVpZ2h0PSIzNiIgbWFya2VyV2lkdGg9IjU3IiByZWZZPSIxOCIgcmVmWD0iMTgiIGlkPSJaRVJPX09SX01PUkVfU1RBUlQiPjxjaXJjbGUgcj0iNiIgY3k9IjE4IiBjeD0iNDgiIGZpbGw9IndoaXRlIiBzdHJva2U9ImdyYXkiPjwvY2lyY2xlPjxwYXRoIGQ9Ik0wLDE4IFExOCwwIDM2LDE4IFExOCwzNiAwLDE4IiBmaWxsPSJub25lIiBzdHJva2U9ImdyYXkiPjwvcGF0aD48L21hcmtlcj48L2RlZnM+PGRlZnM+PG1hcmtlciBvcmllbnQ9ImF1dG8iIG1hcmtlckhlaWdodD0iMzYiIG1hcmtlcldpZHRoPSI1NyIgcmVmWT0iMTgiIHJlZlg9IjM5IiBpZD0iWkVST19PUl9NT1JFX0VORCI+PGNpcmNsZSByPSI2IiBjeT0iMTgiIGN4PSI5IiBmaWxsPSJ3aGl0ZSIgc3Ryb2tlPSJncmF5Ij48L2NpcmNsZT48cGF0aCBkPSJNMjEsMTggUTM5LDAgNTcsMTggUTM5LDM2IDIxLDE4IiBmaWxsPSJub25lIiBzdHJva2U9ImdyYXkiPjwvcGF0aD48L21hcmtlcj48L2RlZnM+PHBhdGggc3R5bGU9InN0cm9rZTogZ3JheTsgZmlsbDogbm9uZTsiIG1hcmtlci1zdGFydD0idXJsKCNPTkxZX09ORV9TVEFSVCkiIG1hcmtlci1lbmQ9InVybCgjWkVST19PUl9NT1JFX0VORCkiIGQ9Ik0xMDYxLjMxOCwxNTEuMTE2TDEwMDcuMjQzLDE2Ny4yNjNDOTUzLjE2OCwxODMuNDExLDg0NS4wMTcsMjE1LjcwNSw3OTAuOTQyLDI1MS4xODZDNzM2Ljg2NywyODYuNjY3LDczNi44NjcsMzI1LjMzMyw3MzYuODY3LDM0NC42NjdMNzM2Ljg2NywzNjQiIGNsYXNzPSJlciByZWxhdGlvbnNoaXBMaW5lIj48L3BhdGg+PHBhdGggc3R5bGU9InN0cm9rZTogZ3JheTsgZmlsbDogbm9uZTsiIG1hcmtlci1zdGFydD0idXJsKCNPTkxZX09ORV9TVEFSVCkiIG1hcmtlci1lbmQ9InVybCgjWkVST19PUl9NT1JFX0VORCkiIGQ9Ik0xMzQzLjQwMiwxNTYuNjcxTDEzODguNDM3LDE3MS44OTJDMTQzMy40NzMsMTg3LjExNCwxNTIzLjU0NCwyMTcuNTU3LDE1NjguNTgsMjUwLjI3OEMxNjEzLjYxNSwyODMsMTYxMy42MTUsMzE4LDE2MTMuNjE1LDMzNS41TDE2MTMuNjE1LDM1MyIgY2xhc3M9ImVyIHJlbGF0aW9uc2hpcExpbmUiPjwvcGF0aD48cGF0aCBzdHlsZT0ic3Ryb2tlOiBncmF5OyBmaWxsOiBub25lOyIgbWFya2VyLXN0YXJ0PSJ1cmwoI09OTFlfT05FX1NUQVJUKSIgbWFya2VyLWVuZD0idXJsKCNaRVJPX09SX01PUkVfRU5EKSIgZD0iTTEzNDMuNDAyLDE3My41NDNMMTM3MC41MTksMTg1Ljk1M0MxMzk3LjYzNywxOTguMzYyLDE0NTEuODcxLDIyMy4xODEsMTQ0OC44MzIsMjQ5LjgxQzE0NDUuNzkyLDI3Ni40NCwxMzg1LjQ3OCwzMDQuODgsMTM1NS4zMiwzMTkuMUwxMzI1LjE2MywzMzMuMzIiIGNsYXNzPSJlciByZWxhdGlvbnNoaXBMaW5lIj48L3BhdGg+PHBhdGggc3R5bGU9InN0cm9rZTogZ3JheTsgZmlsbDogbm9uZTsiIG1hcmtlci1zdGFydD0idXJsKCNPTkxZX09ORV9TVEFSVCkiIG1hcmtlci1lbmQ9InVybCgjWkVST19PUl9NT1JFX0VORCkiIGQ9Ik0xMDYxLjMxOCwxMzkuODE5TDk3OC44MDMsMTU3Ljg0OUM4OTYuMjg4LDE3NS44NzksNzMxLjI1OCwyMTEuOTQsNjQ4Ljc0MywyNTguNjM2QzU2Ni4yMjgsMzA1LjMzMyw1NjYuMjI4LDM2Mi42NjcsNTY2LjIyOCw0MjBDNTY2LjIyOCw0NzcuMzMzLDU2Ni4yMjgsNTM0LjY2Nyw1NjMuMjMsNTcxLjY2N0M1NjAuMjMyLDYwOC42NjcsNTU0LjIzNyw2MjUuMzMzLDU1MS4yNCw2MzMuNjY3TDU0OC4yNDIsNjQyIiBjbGFzcz0iZXIgcmVsYXRpb25zaGlwTGluZSI+PC9wYXRoPjxwYXRoIHN0eWxlPSJzdHJva2U6IGdyYXk7IGZpbGw6IG5vbmU7IiBtYXJrZXItc3RhcnQ9InVybCgjT05MWV9PTkVfU1RBUlQpIiBtYXJrZXItZW5kPSJ1cmwoI1pFUk9fT1JfTU9SRV9FTkQpIiBkPSJNMTM0My40MDIsMTIxLjk3OEwxNTcxLjY2OCwxNDIuOTgyQzE3OTkuOTM0LDE2My45ODUsMjI1Ni40NjYsMjA1Ljk5MywyNDg0LjczMSwyNTUuNjYzQzI3MTIuOTk3LDMwNS4zMzMsMjcxMi45OTcsMzYyLjY2NywyNzEyLjk5Nyw0MjBDMjcxMi45OTcsNDc3LjMzMywyNzEyLjk5Nyw1MzQuNjY3LDI3MTIuOTk3LDU4Ni41QzI3MTIuOTk3LDYzOC4zMzMsMjcxMi45OTcsNjg0LjY2NywyNzEyLjk5Nyw3MzFDMjcxMi45OTcsNzc3LjMzMywyNzEyLjk5Nyw4MjMuNjY3LDI1MzkuMzksODY0LjMyMUMyMzY1Ljc4Myw5MDQuOTc1LDIwMTguNTY4LDkzOS45NTEsMTg0NC45NjEsOTU3LjQzOUwxNjcxLjM1NCw5NzQuOTI2IiBjbGFzcz0iZXIgcmVsYXRpb25zaGlwTGluZSI+PC9wYXRoPjxwYXRoIHN0eWxlPSJzdHJva2U6IGdyYXk7IGZpbGw6IG5vbmU7IiBtYXJrZXItc3RhcnQ9InVybCgjT05MWV9PTkVfU1RBUlQpIiBtYXJrZXItZW5kPSJ1cmwoI1pFUk9fT1JfTU9SRV9FTkQpIiBkPSJNNzU4LjI4LDE0NS4wNjhMNzkyLjU4MywxNjIuMjIzQzgyNi44ODcsMTc5LjM3OSw4OTUuNDk0LDIxMy42ODksOTM4LjM4NCwyMzkuMTc4Qzk4MS4yNzQsMjY0LjY2Nyw5OTguNDQ4LDI4MS4zMzMsMTAwNy4wMzUsMjg5LjY2N0wxMDE1LjYyMiwyOTgiIGNsYXNzPSJlciByZWxhdGlvbnNoaXBMaW5lIj48L3BhdGg+PHBhdGggc3R5bGU9InN0cm9rZTogZ3JheTsgZmlsbDogbm9uZTsiIG1hcmtlci1zdGFydD0idXJsKCNPTkxZX09ORV9TVEFSVCkiIG1hcmtlci1lbmQ9InVybCgjWkVST19PUl9NT1JFX0VORCkiIGQ9Ik05NTcuNTA2LDQ1Mi40NjlMODI1Ljg0Myw0NzUuNzI0QzY5NC4xOCw0OTguOTc5LDQzMC44NTUsNTQ1LjQ5LDI5OS4xOTIsNTc4LjkxMkMxNjcuNTI5LDYxMi4zMzMsMTY3LjUyOSw2MzIuNjY3LDE2Ny41MjksNjQyLjgzM0wxNjcuNTI5LDY1MyIgY2xhc3M9ImVyIHJlbGF0aW9uc2hpcExpbmUiPjwvcGF0aD48cGF0aCBzdHlsZT0ic3Ryb2tlOiBncmF5OyBmaWxsOiBub25lOyIgbWFya2VyLXN0YXJ0PSJ1cmwoI09OTFlfT05FX1NUQVJUKSIgbWFya2VyLWVuZD0idXJsKCNaRVJPX09SX01PUkVfRU5EKSIgZD0iTTk1Ny41MDYsNDYyLjE4OUw4NjMuMjM0LDQ4My44MjRDNzY4Ljk2Myw1MDUuNDU5LDU4MC40MjEsNTQ4LjczLDQ5My42MDUsNTc4LjY5OEM0MDYuNzg4LDYwOC42NjcsNDIxLjY5OCw2MjUuMzMzLDQyOS4xNTMsNjMzLjY2N0w0MzYuNjA4LDY0MiIgY2xhc3M9ImVyIHJlbGF0aW9uc2hpcExpbmUiPjwvcGF0aD48cGF0aCBzdHlsZT0ic3Ryb2tlOiBncmF5OyBmaWxsOiBub25lOyIgbWFya2VyLXN0YXJ0PSJ1cmwoI09OTFlfT05FX1NUQVJUKSIgbWFya2VyLWVuZD0idXJsKCNaRVJPX09SX01PUkVfRU5EKSIgZD0iTTEwNTUuMjUzLDU0MkwxMDQ5LjM3Myw1NTAuMzMzQzEwNDMuNDk0LDU1OC42NjcsMTAzMS43MzQsNTc1LjMzMyw5OTYuNTg4LDYwMS4xMThDOTYxLjQ0Myw2MjYuOTAyLDkwMi45MTEsNjYxLjgwMyw4NzMuNjQ2LDY3OS4yNTRMODQ0LjM4LDY5Ni43MDUiIGNsYXNzPSJlciByZWxhdGlvbnNoaXBMaW5lIj48L3BhdGg+PHBhdGggc3R5bGU9InN0cm9rZTogZ3JheTsgZmlsbDogbm9uZTsiIG1hcmtlci1zdGFydD0idXJsKCNPTkxZX09ORV9TVEFSVCkiIG1hcmtlci1lbmQ9InVybCgjWkVST19PUl9NT1JFX0VORCkiIGQ9Ik0xMjYwLjg4LDU0MkwxMjY5LjA0NSw1NTAuMzMzQzEyNzcuMjExLDU1OC42NjcsMTI5My41NDIsNTc1LjMzMywxMjk1LjY2NSw1OTUuNjY3QzEyOTcuNzg4LDYxNiwxMjg1LjcwMyw2NDAsMTI3OS42NjEsNjUyTDEyNzMuNjE4LDY2NCIgY2xhc3M9ImVyIHJlbGF0aW9uc2hpcExpbmUiPjwvcGF0aD48cGF0aCBzdHlsZT0ic3Ryb2tlOiBncmF5OyBmaWxsOiBub25lOyIgbWFya2VyLXN0YXJ0PSJ1cmwoI09OTFlfT05FX1NUQVJUKSIgbWFya2VyLWVuZD0idXJsKCNPTkVfT1JfTU9SRV9FTkQpIiBkPSJNMTMyNS4xNjMsNDUzLjcxOUwxNDUwLjgwOCw0NzYuNzY2QzE1NzYuNDUyLDQ5OS44MTMsMTgyNy43NDEsNTQ1LjkwNiwxOTUzLjM4NSw1NzkuMTJDMjA3OS4wMjksNjEyLjMzMywyMDc5LjAyOSw2MzIuNjY3LDIwNzkuMDI5LDY0Mi44MzNMMjA3OS4wMjksNjUzIiBjbGFzcz0iZXIgcmVsYXRpb25zaGlwTGluZSI+PC9wYXRoPjxwYXRoIHN0eWxlPSJzdHJva2U6IGdyYXk7IGZpbGw6IG5vbmU7IiBtYXJrZXItc3RhcnQ9InVybCgjT05MWV9PTkVfU1RBUlQpIiBtYXJrZXItZW5kPSJ1cmwoI1pFUk9fT1JfTU9SRV9FTkQpIiBkPSJNNTE2LjIyOCw4MjBMNTE2LjIyOCw4MjguMzMzQzUxNi4yMjgsODM2LjY2Nyw1MTYuMjI4LDg1My4zMzMsNjY4Ljc5NSw4NzguOTA5QzgyMS4zNjIsOTA0LjQ4NSwxMTI2LjQ5Nyw5MzguOTY5LDEyNzkuMDY0LDk1Ni4yMTJMMTQzMS42MzIsOTczLjQ1NCIgY2xhc3M9ImVyIHJlbGF0aW9uc2hpcExpbmUiPjwvcGF0aD48cGF0aCBzdHlsZT0ic3Ryb2tlOiBncmF5OyBmaWxsOiBub25lOyIgbWFya2VyLXN0YXJ0PSJ1cmwoI09OTFlfT05FX1NUQVJUKSIgbWFya2VyLWVuZD0idXJsKCNaRVJPX09SX01PUkVfRU5EKSIgZD0iTTczNi44NjcsNDc2TDczNi44NjcsNDk1LjMzM0M3MzYuODY3LDUxNC42NjcsNzM2Ljg2Nyw1NTMuMzMzLDc0MS4xODMsNTg0LjY2N0M3NDUuNSw2MTYsNzU0LjEzMyw2NDAsNzU4LjQ0OSw2NTJMNzYyLjc2Niw2NjQiIGNsYXNzPSJlciByZWxhdGlvbnNoaXBMaW5lIj48L3BhdGg+PHBhdGggc3R5bGU9InN0cm9rZTogZ3JheTsgZmlsbDogbm9uZTsiIG1hcmtlci1zdGFydD0idXJsKCNPTkxZX09ORV9TVEFSVCkiIG1hcmtlci1lbmQ9InVybCgjWkVST19PUl9NT1JFX0VORCkiIGQ9Ik0xNDQ1LjYyOSw0ODdMMTQwMS43NTIsNTA0LjVDMTM1Ny44NzUsNTIyLDEyNzAuMTIxLDU1NywxMjMxLjIwOSw1ODYuNUMxMTkyLjI5Nyw2MTYsMTIwMi4yMjgsNjQwLDEyMDcuMTkzLDY1MkwxMjEyLjE1OCw2NjQiIGNsYXNzPSJlciByZWxhdGlvbnNoaXBMaW5lIj48L3BhdGg+PHBhdGggc3R5bGU9InN0cm9rZTogZ3JheTsgZmlsbDogbm9uZTsiIG1hcmtlci1zdGFydD0idXJsKCNPTkxZX09ORV9TVEFSVCkiIG1hcmtlci1lbmQ9InVybCgjT05FX09SX01PUkVfRU5EKSIgZD0iTTE1NjEuNTE2LDQ4N0wxNTQ3LjkwNyw1MDQuNUMxNTM0LjI5OSw1MjIsMTUwNy4wODMsNTU3LDE0OTMuNDc1LDU4NC42NjdDMTQ3OS44NjcsNjEyLjMzMywxNDc5Ljg2Nyw2MzIuNjY3LDE0NzkuODY3LDY0Mi44MzNMMTQ3OS44NjcsNjUzIiBjbGFzcz0iZXIgcmVsYXRpb25zaGlwTGluZSI+PC9wYXRoPjxwYXRoIHN0eWxlPSJzdHJva2U6IGdyYXk7IGZpbGw6IG5vbmU7IiBtYXJrZXItc3RhcnQ9InVybCgjT05MWV9PTkVfU1RBUlQpIiBtYXJrZXItZW5kPSJ1cmwoI09ORV9PUl9NT1JFX0VORCkiIGQ9Ik0xNjY1LjcxNSw0ODdMMTY3OS4zMjMsNTA0LjVDMTY5Mi45MzIsNTIyLDE3MjAuMTQ4LDU1NywxNzMzLjc1Niw1ODQuNjY3QzE3NDcuMzY0LDYxMi4zMzMsMTc0Ny4zNjQsNjMyLjY2NywxNzQ3LjM2NCw2NDIuODMzTDE3NDcuMzY0LDY1MyIgY2xhc3M9ImVyIHJlbGF0aW9uc2hpcExpbmUiPjwvcGF0aD48cGF0aCBzdHlsZT0ic3Ryb2tlOiBncmF5OyBmaWxsOiBub25lOyIgbWFya2VyLXN0YXJ0PSJ1cmwoI09OTFlfT05FX1NUQVJUKSIgbWFya2VyLWVuZD0idXJsKCNaRVJPX09SX01PUkVfRU5EKSIgZD0iTTE3OTQuNTU5LDQ1Ni4zN0wxOTA3LjAyMSw0NzguOTc1QzIwMTkuNDg0LDUwMS41OCwyMjQ0LjQwOSw1NDYuNzksMjM1Ni44NzEsNTgxLjM5NUMyNDY5LjMzNCw2MTYsMjQ2OS4zMzQsNjQwLDI0NjkuMzM0LDY1MkwyNDY5LjMzNCw2NjQiIGNsYXNzPSJlciByZWxhdGlvbnNoaXBMaW5lIj48L3BhdGg+PGcgdHJhbnNmb3JtPSJ0cmFuc2xhdGUoMTA2MS4zMTgzOTM3MDcyNzU0LDIwICkiIGlkPSJlbnRpdHktVVNFUi02ZTdlMjk2Mi0wYzZmLTU3N2QtYTdmZC0yY2UzYTBjZmQyYzgiPjxyZWN0IGhlaWdodD0iMTc4IiB3aWR0aD0iMjgyLjA4MzMxMjk4ODI4MTI1IiB5PSIwIiB4PSIwIiBjbGFzcz0iZXIgZW50aXR5Qm94Ij48L3JlY3Q+PHRleHQgc3R5bGU9ImRvbWluYW50LWJhc2VsaW5lOiBtaWRkbGU7IHRleHQtYW5jaG9yOiBtaWRkbGU7IGZvbnQtc2l6ZTogMTJweDsiIHRyYW5zZm9ybT0idHJhbnNsYXRlKDE0MS4wNDE2NTY0OTQxNDA2MiwxMikiIHk9IjAiIHg9IjAiIGlkPSJ0ZXh0LWVudGl0eS1VU0VSLTZlN2UyOTYyLTBjNmYtNTc3ZC1hN2ZkLTJjZTNhMGNmZDJjOCIgY2xhc3M9ImVyIGVudGl0eUxhYmVsIj5VU0VSPC90ZXh0PjxyZWN0IGhlaWdodD0iMjIiIHdpZHRoPSI1Mi4wNjg0OTY3MDQxMDE1NiIgeT0iMjQiIHg9IjAiIGNsYXNzPSJlciBhdHRyaWJ1dGVCb3hPZGQiPjwvcmVjdD48dGV4dCBzdHlsZT0iZG9taW5hbnQtYmFzZWxpbmU6IG1pZGRsZTsgZm9udC1zaXplOiAxMC4ycHg7IiB0cmFuc2Zvcm09InRyYW5zbGF0ZSg1LDM1KSIgeT0iMCIgeD0iMCIgaWQ9InRleHQtZW50aXR5LVVTRVItNmU3ZTI5NjItMGM2Zi01NzdkLWE3ZmQtMmNlM2EwY2ZkMmM4LWF0dHItMS10eXBlIiBjbGFzcz0iZXIgZW50aXR5TGFiZWwiPmludDwvdGV4dD48cmVjdCBoZWlnaHQ9IjIyIiB3aWR0aD0iNzguNDIwMTIwMjM5MjU3ODEiIHk9IjI0IiB4PSI1Mi4wNjg0OTY3MDQxMDE1NiIgY2xhc3M9ImVyIGF0dHJpYnV0ZUJveE9kZCI+PC9yZWN0Pjx0ZXh0IHN0eWxlPSJkb21pbmFudC1iYXNlbGluZTogbWlkZGxlOyBmb250LXNpemU6IDEwLjJweDsiIHRyYW5zZm9ybT0idHJhbnNsYXRlKDU3LjA2ODQ5NjcwNDEwMTU2LDM1KSIgeT0iMCIgeD0iMCIgaWQ9InRleHQtZW50aXR5LVVTRVItNmU3ZTI5NjItMGM2Zi01NzdkLWE3ZmQtMmNlM2EwY2ZkMmM4LWF0dHItMS1uYW1lIiBjbGFzcz0iZXIgZW50aXR5TGFiZWwiPmlkPC90ZXh0PjxyZWN0IGhlaWdodD0iMjIiIHdpZHRoPSIyMi42ODc2ODMxMDU0Njg3NSIgeT0iMjQiIHg9IjEzMC40ODg2MTY5NDMzNTkzOCIgY2xhc3M9ImVyIGF0dHJpYnV0ZUJveE9kZCI+PC9yZWN0Pjx0ZXh0IHN0eWxlPSJkb21pbmFudC1iYXNlbGluZTogbWlkZGxlOyBmb250LXNpemU6IDEwLjJweDsiIHRyYW5zZm9ybT0idHJhbnNsYXRlKDEzNS40ODg2MTY5NDMzNTkzOCwzNSkiIHk9IjAiIHg9IjAiIGlkPSJ0ZXh0LWVudGl0eS1VU0VSLTZlN2UyOTYyLTBjNmYtNTc3ZC1hN2ZkLTJjZTNhMGNmZDJjOC1hdHRyLTEta2V5IiBjbGFzcz0iZXIgZW50aXR5TGFiZWwiPlBLPC90ZXh0PjxyZWN0IGhlaWdodD0iMjIiIHdpZHRoPSIxMjguOTA3MDEyOTM5NDUzMTIiIHk9IjI0IiB4PSIxNTMuMTc2MzAwMDQ4ODI4MTIiIGNsYXNzPSJlciBhdHRyaWJ1dGVCb3hPZGQiPjwvcmVjdD48dGV4dCBzdHlsZT0iZG9taW5hbnQtYmFzZWxpbmU6IG1pZGRsZTsgZm9udC1zaXplOiAxMC4ycHg7IiB0cmFuc2Zvcm09InRyYW5zbGF0ZSgxNTguMTc2MzAwMDQ4ODI4MTIsMzUpIiB5PSIwIiB4PSIwIiBpZD0idGV4dC1lbnRpdHktVVNFUi02ZTdlMjk2Mi0wYzZmLTU3N2QtYTdmZC0yY2UzYTBjZmQyYzgtYXR0ci0xLWNvbW1lbnQiIGNsYXNzPSJlciBlbnRpdHlMYWJlbCI+PC90ZXh0PjxyZWN0IGhlaWdodD0iMjIiIHdpZHRoPSI1Mi4wNjg0OTY3MDQxMDE1NiIgeT0iNDYiIHg9IjAiIGNsYXNzPSJlciBhdHRyaWJ1dGVCb3hFdmVuIj48L3JlY3Q+PHRleHQgc3R5bGU9ImRvbWluYW50LWJhc2VsaW5lOiBtaWRkbGU7IGZvbnQtc2l6ZTogMTAuMnB4OyIgdHJhbnNmb3JtPSJ0cmFuc2xhdGUoNSw1NykiIHk9IjAiIHg9IjAiIGlkPSJ0ZXh0LWVudGl0eS1VU0VSLTZlN2UyOTYyLTBjNmYtNTc3ZC1hN2ZkLTJjZTNhMGNmZDJjOC1hdHRyLTItdHlwZSIgY2xhc3M9ImVyIGVudGl0eUxhYmVsIj5zdHJpbmc8L3RleHQ+PHJlY3QgaGVpZ2h0PSIyMiIgd2lkdGg9Ijc4LjQyMDEyMDIzOTI1NzgxIiB5PSI0NiIgeD0iNTIuMDY4NDk2NzA0MTAxNTYiIGNsYXNzPSJlciBhdHRyaWJ1dGVCb3hFdmVuIj48L3JlY3Q+PHRleHQgc3R5bGU9ImRvbWluYW50LWJhc2VsaW5lOiBtaWRkbGU7IGZvbnQtc2l6ZTogMTAuMnB4OyIgdHJhbnNmb3JtPSJ0cmFuc2xhdGUoNTcuMDY4NDk2NzA0MTAxNTYsNTcpIiB5PSIwIiB4PSIwIiBpZD0idGV4dC1lbnRpdHktVVNFUi02ZTdlMjk2Mi0wYzZmLTU3N2QtYTdmZC0yY2UzYTBjZmQyYzgtYXR0ci0yLW5hbWUiIGNsYXNzPSJlciBlbnRpdHlMYWJlbCI+ZW1haWw8L3RleHQ+PHJlY3QgaGVpZ2h0PSIyMiIgd2lkdGg9IjIyLjY4NzY4MzEwNTQ2ODc1IiB5PSI0NiIgeD0iMTMwLjQ4ODYxNjk0MzM1OTM4IiBjbGFzcz0iZXIgYXR0cmlidXRlQm94RXZlbiI+PC9yZWN0Pjx0ZXh0IHN0eWxlPSJkb21pbmFudC1iYXNlbGluZTogbWlkZGxlOyBmb250LXNpemU6IDEwLjJweDsiIHRyYW5zZm9ybT0idHJhbnNsYXRlKDEzNS40ODg2MTY5NDMzNTkzOCw1NykiIHk9IjAiIHg9IjAiIGlkPSJ0ZXh0LWVudGl0eS1VU0VSLTZlN2UyOTYyLTBjNmYtNTc3ZC1hN2ZkLTJjZTNhMGNmZDJjOC1hdHRyLTIta2V5IiBjbGFzcz0iZXIgZW50aXR5TGFiZWwiPjwvdGV4dD48cmVjdCBoZWlnaHQ9IjIyIiB3aWR0aD0iMTI4LjkwNzAxMjkzOTQ1MzEyIiB5PSI0NiIgeD0iMTUzLjE3NjMwMDA0ODgyODEyIiBjbGFzcz0iZXIgYXR0cmlidXRlQm94RXZlbiI+PC9yZWN0Pjx0ZXh0IHN0eWxlPSJkb21pbmFudC1iYXNlbGluZTogbWlkZGxlOyBmb250LXNpemU6IDEwLjJweDsiIHRyYW5zZm9ybT0idHJhbnNsYXRlKDE1OC4xNzYzMDAwNDg4MjgxMiw1NykiIHk9IjAiIHg9IjAiIGlkPSJ0ZXh0LWVudGl0eS1VU0VSLTZlN2UyOTYyLTBjNmYtNTc3ZC1hN2ZkLTJjZTNhMGNmZDJjOC1hdHRyLTItY29tbWVudCIgY2xhc3M9ImVyIGVudGl0eUxhYmVsIj48L3RleHQ+PHJlY3QgaGVpZ2h0PSIyMiIgd2lkdGg9IjUyLjA2ODQ5NjcwNDEwMTU2IiB5PSI2OCIgeD0iMCIgY2xhc3M9ImVyIGF0dHJpYnV0ZUJveE9kZCI+PC9yZWN0Pjx0ZXh0IHN0eWxlPSJkb21pbmFudC1iYXNlbGluZTogbWlkZGxlOyBmb250LXNpemU6IDEwLjJweDsiIHRyYW5zZm9ybT0idHJhbnNsYXRlKDUsNzkpIiB5PSIwIiB4PSIwIiBpZD0idGV4dC1lbnRpdHktVVNFUi02ZTdlMjk2Mi0wYzZmLTU3N2QtYTdmZC0yY2UzYTBjZmQyYzgtYXR0ci0zLXR5cGUiIGNsYXNzPSJlciBlbnRpdHlMYWJlbCI+c3RyaW5nPC90ZXh0PjxyZWN0IGhlaWdodD0iMjIiIHdpZHRoPSI3OC40MjAxMjAyMzkyNTc4MSIgeT0iNjgiIHg9IjUyLjA2ODQ5NjcwNDEwMTU2IiBjbGFzcz0iZXIgYXR0cmlidXRlQm94T2RkIj48L3JlY3Q+PHRleHQgc3R5bGU9ImRvbWluYW50LWJhc2VsaW5lOiBtaWRkbGU7IGZvbnQtc2l6ZTogMTAuMnB4OyIgdHJhbnNmb3JtPSJ0cmFuc2xhdGUoNTcuMDY4NDk2NzA0MTAxNTYsNzkpIiB5PSIwIiB4PSIwIiBpZD0idGV4dC1lbnRpdHktVVNFUi02ZTdlMjk2Mi0wYzZmLTU3N2QtYTdmZC0yY2UzYTBjZmQyYzgtYXR0ci0zLW5hbWUiIGNsYXNzPSJlciBlbnRpdHlMYWJlbCI+ZnVsbF9uYW1lPC90ZXh0PjxyZWN0IGhlaWdodD0iMjIiIHdpZHRoPSIyMi42ODc2ODMxMDU0Njg3NSIgeT0iNjgiIHg9IjEzMC40ODg2MTY5NDMzNTkzOCIgY2xhc3M9ImVyIGF0dHJpYnV0ZUJveE9kZCI+PC9yZWN0Pjx0ZXh0IHN0eWxlPSJkb21pbmFudC1iYXNlbGluZTogbWlkZGxlOyBmb250LXNpemU6IDEwLjJweDsiIHRyYW5zZm9ybT0idHJhbnNsYXRlKDEzNS40ODg2MTY5NDMzNTkzOCw3OSkiIHk9IjAiIHg9IjAiIGlkPSJ0ZXh0LWVudGl0eS1VU0VSLTZlN2UyOTYyLTBjNmYtNTc3ZC1hN2ZkLTJjZTNhMGNmZDJjOC1hdHRyLTMta2V5IiBjbGFzcz0iZXIgZW50aXR5TGFiZWwiPjwvdGV4dD48cmVjdCBoZWlnaHQ9IjIyIiB3aWR0aD0iMTI4LjkwNzAxMjkzOTQ1MzEyIiB5PSI2OCIgeD0iMTUzLjE3NjMwMDA0ODgyODEyIiBjbGFzcz0iZXIgYXR0cmlidXRlQm94T2RkIj48L3JlY3Q+PHRleHQgc3R5bGU9ImRvbWluYW50LWJhc2VsaW5lOiBtaWRkbGU7IGZvbnQtc2l6ZTogMTAuMnB4OyIgdHJhbnNmb3JtPSJ0cmFuc2xhdGUoMTU4LjE3NjMwMDA0ODgyODEyLDc5KSIgeT0iMCIgeD0iMCIgaWQ9InRleHQtZW50aXR5LVVTRVItNmU3ZTI5NjItMGM2Zi01NzdkLWE3ZmQtMmNlM2EwY2ZkMmM4LWF0dHItMy1jb21tZW50IiBjbGFzcz0iZXIgZW50aXR5TGFiZWwiPjwvdGV4dD48cmVjdCBoZWlnaHQ9IjIyIiB3aWR0aD0iNTIuMDY4NDk2NzA0MTAxNTYiIHk9IjkwIiB4PSIwIiBjbGFzcz0iZXIgYXR0cmlidXRlQm94RXZlbiI+PC9yZWN0Pjx0ZXh0IHN0eWxlPSJkb21pbmFudC1iYXNlbGluZTogbWlkZGxlOyBmb250LXNpemU6IDEwLjJweDsiIHRyYW5zZm9ybT0idHJhbnNsYXRlKDUsMTAxKSIgeT0iMCIgeD0iMCIgaWQ9InRleHQtZW50aXR5LVVTRVItNmU3ZTI5NjItMGM2Zi01NzdkLWE3ZmQtMmNlM2EwY2ZkMmM4LWF0dHItNC10eXBlIiBjbGFzcz0iZXIgZW50aXR5TGFiZWwiPnN0cmluZzwvdGV4dD48cmVjdCBoZWlnaHQ9IjIyIiB3aWR0aD0iNzguNDIwMTIwMjM5MjU3ODEiIHk9IjkwIiB4PSI1Mi4wNjg0OTY3MDQxMDE1NiIgY2xhc3M9ImVyIGF0dHJpYnV0ZUJveEV2ZW4iPjwvcmVjdD48dGV4dCBzdHlsZT0iZG9taW5hbnQtYmFzZWxpbmU6IG1pZGRsZTsgZm9udC1zaXplOiAxMC4ycHg7IiB0cmFuc2Zvcm09InRyYW5zbGF0ZSg1Ny4wNjg0OTY3MDQxMDE1NiwxMDEpIiB5PSIwIiB4PSIwIiBpZD0idGV4dC1lbnRpdHktVVNFUi02ZTdlMjk2Mi0wYzZmLTU3N2QtYTdmZC0yY2UzYTBjZmQyYzgtYXR0ci00LW5hbWUiIGNsYXNzPSJlciBlbnRpdHlMYWJlbCI+cGFzc3dvcmRfaGFzaDwvdGV4dD48cmVjdCBoZWlnaHQ9IjIyIiB3aWR0aD0iMjIuNjg3NjgzMTA1NDY4NzUiIHk9IjkwIiB4PSIxMzAuNDg4NjE2OTQzMzU5MzgiIGNsYXNzPSJlciBhdHRyaWJ1dGVCb3hFdmVuIj48L3JlY3Q+PHRleHQgc3R5bGU9ImRvbWluYW50LWJhc2VsaW5lOiBtaWRkbGU7IGZvbnQtc2l6ZTogMTAuMnB4OyIgdHJhbnNmb3JtPSJ0cmFuc2xhdGUoMTM1LjQ4ODYxNjk0MzM1OTM4LDEwMSkiIHk9IjAiIHg9IjAiIGlkPSJ0ZXh0LWVudGl0eS1VU0VSLTZlN2UyOTYyLTBjNmYtNTc3ZC1hN2ZkLTJjZTNhMGNmZDJjOC1hdHRyLTQta2V5IiBjbGFzcz0iZXIgZW50aXR5TGFiZWwiPjwvdGV4dD48cmVjdCBoZWlnaHQ9IjIyIiB3aWR0aD0iMTI4LjkwNzAxMjkzOTQ1MzEyIiB5PSI5MCIgeD0iMTUzLjE3NjMwMDA0ODgyODEyIiBjbGFzcz0iZXIgYXR0cmlidXRlQm94RXZlbiI+PC9yZWN0Pjx0ZXh0IHN0eWxlPSJkb21pbmFudC1iYXNlbGluZTogbWlkZGxlOyBmb250LXNpemU6IDEwLjJweDsiIHRyYW5zZm9ybT0idHJhbnNsYXRlKDE1OC4xNzYzMDAwNDg4MjgxMiwxMDEpIiB5PSIwIiB4PSIwIiBpZD0idGV4dC1lbnRpdHktVVNFUi02ZTdlMjk2Mi0wYzZmLTU3N2QtYTdmZC0yY2UzYTBjZmQyYzgtYXR0ci00LWNvbW1lbnQiIGNsYXNzPSJlciBlbnRpdHlMYWJlbCI+PC90ZXh0PjxyZWN0IGhlaWdodD0iMjIiIHdpZHRoPSI1Mi4wNjg0OTY3MDQxMDE1NiIgeT0iMTEyIiB4PSIwIiBjbGFzcz0iZXIgYXR0cmlidXRlQm94T2RkIj48L3JlY3Q+PHRleHQgc3R5bGU9ImRvbWluYW50LWJhc2VsaW5lOiBtaWRkbGU7IGZvbnQtc2l6ZTogMTAuMnB4OyIgdHJhbnNmb3JtPSJ0cmFuc2xhdGUoNSwxMjMpIiB5PSIwIiB4PSIwIiBpZD0idGV4dC1lbnRpdHktVVNFUi02ZTdlMjk2Mi0wYzZmLTU3N2QtYTdmZC0yY2UzYTBjZmQyYzgtYXR0ci01LXR5cGUiIGNsYXNzPSJlciBlbnRpdHlMYWJlbCI+c3RyaW5nPC90ZXh0PjxyZWN0IGhlaWdodD0iMjIiIHdpZHRoPSI3OC40MjAxMjAyMzkyNTc4MSIgeT0iMTEyIiB4PSI1Mi4wNjg0OTY3MDQxMDE1NiIgY2xhc3M9ImVyIGF0dHJpYnV0ZUJveE9kZCI+PC9yZWN0Pjx0ZXh0IHN0eWxlPSJkb21pbmFudC1iYXNlbGluZTogbWlkZGxlOyBmb250LXNpemU6IDEwLjJweDsiIHRyYW5zZm9ybT0idHJhbnNsYXRlKDU3LjA2ODQ5NjcwNDEwMTU2LDEyMykiIHk9IjAiIHg9IjAiIGlkPSJ0ZXh0LWVudGl0eS1VU0VSLTZlN2UyOTYyLTBjNmYtNTc3ZC1hN2ZkLTJjZTNhMGNmZDJjOC1hdHRyLTUtbmFtZSIgY2xhc3M9ImVyIGVudGl0eUxhYmVsIj5yb2xlPC90ZXh0PjxyZWN0IGhlaWdodD0iMjIiIHdpZHRoPSIyMi42ODc2ODMxMDU0Njg3NSIgeT0iMTEyIiB4PSIxMzAuNDg4NjE2OTQzMzU5MzgiIGNsYXNzPSJlciBhdHRyaWJ1dGVCb3hPZGQiPjwvcmVjdD48dGV4dCBzdHlsZT0iZG9taW5hbnQtYmFzZWxpbmU6IG1pZGRsZTsgZm9udC1zaXplOiAxMC4ycHg7IiB0cmFuc2Zvcm09InRyYW5zbGF0ZSgxMzUuNDg4NjE2OTQzMzU5MzgsMTIzKSIgeT0iMCIgeD0iMCIgaWQ9InRleHQtZW50aXR5LVVTRVItNmU3ZTI5NjItMGM2Zi01NzdkLWE3ZmQtMmNlM2EwY2ZkMmM4LWF0dHItNS1rZXkiIGNsYXNzPSJlciBlbnRpdHlMYWJlbCI+PC90ZXh0PjxyZWN0IGhlaWdodD0iMjIiIHdpZHRoPSIxMjguOTA3MDEyOTM5NDUzMTIiIHk9IjExMiIgeD0iMTUzLjE3NjMwMDA0ODgyODEyIiBjbGFzcz0iZXIgYXR0cmlidXRlQm94T2RkIj48L3JlY3Q+PHRleHQgc3R5bGU9ImRvbWluYW50LWJhc2VsaW5lOiBtaWRkbGU7IGZvbnQtc2l6ZTogMTAuMnB4OyIgdHJhbnNmb3JtPSJ0cmFuc2xhdGUoMTU4LjE3NjMwMDA0ODgyODEyLDEyMykiIHk9IjAiIHg9IjAiIGlkPSJ0ZXh0LWVudGl0eS1VU0VSLTZlN2UyOTYyLTBjNmYtNTc3ZC1hN2ZkLTJjZTNhMGNmZDJjOC1hdHRyLTUtY29tbWVudCIgY2xhc3M9ImVyIGVudGl0eUxhYmVsIj5jdXN0b21lciB8IHNlbGxlciB8IGFkbWluPC90ZXh0PjxyZWN0IGhlaWdodD0iMjIiIHdpZHRoPSI1Mi4wNjg0OTY3MDQxMDE1NiIgeT0iMTM0IiB4PSIwIiBjbGFzcz0iZXIgYXR0cmlidXRlQm94RXZlbiI+PC9yZWN0Pjx0ZXh0IHN0eWxlPSJkb21pbmFudC1iYXNlbGluZTogbWlkZGxlOyBmb250LXNpemU6IDEwLjJweDsiIHRyYW5zZm9ybT0idHJhbnNsYXRlKDUsMTQ1KSIgeT0iMCIgeD0iMCIgaWQ9InRleHQtZW50aXR5LVVTRVItNmU3ZTI5NjItMGM2Zi01NzdkLWE3ZmQtMmNlM2EwY2ZkMmM4LWF0dHItNi10eXBlIiBjbGFzcz0iZXIgZW50aXR5TGFiZWwiPmRhdGV0aW1lPC90ZXh0PjxyZWN0IGhlaWdodD0iMjIiIHdpZHRoPSI3OC40MjAxMjAyMzkyNTc4MSIgeT0iMTM0IiB4PSI1Mi4wNjg0OTY3MDQxMDE1NiIgY2xhc3M9ImVyIGF0dHJpYnV0ZUJveEV2ZW4iPjwvcmVjdD48dGV4dCBzdHlsZT0iZG9taW5hbnQtYmFzZWxpbmU6IG1pZGRsZTsgZm9udC1zaXplOiAxMC4ycHg7IiB0cmFuc2Zvcm09InRyYW5zbGF0ZSg1Ny4wNjg0OTY3MDQxMDE1NiwxNDUpIiB5PSIwIiB4PSIwIiBpZD0idGV4dC1lbnRpdHktVVNFUi02ZTdlMjk2Mi0wYzZmLTU3N2QtYTdmZC0yY2UzYTBjZmQyYzgtYXR0ci02LW5hbWUiIGNsYXNzPSJlciBlbnRpdHlMYWJlbCI+Y3JlYXRlZF9hdDwvdGV4dD48cmVjdCBoZWlnaHQ9IjIyIiB3aWR0aD0iMjIuNjg3NjgzMTA1NDY4NzUiIHk9IjEzNCIgeD0iMTMwLjQ4ODYxNjk0MzM1OTM4IiBjbGFzcz0iZXIgYXR0cmlidXRlQm94RXZlbiI+PC9yZWN0Pjx0ZXh0IHN0eWxlPSJkb21pbmFudC1iYXNlbGluZTogbWlkZGxlOyBmb250LXNpemU6IDEwLjJweDsiIHRyYW5zZm9ybT0idHJhbnNsYXRlKDEzNS40ODg2MTY5NDMzNTkzOCwxNDUpIiB5PSIwIiB4PSIwIiBpZD0idGV4dC1lbnRpdHktVVNFUi02ZTdlMjk2Mi0wYzZmLTU3N2QtYTdmZC0yY2UzYTBjZmQyYzgtYXR0ci02LWtleSIgY2xhc3M9ImVyIGVudGl0eUxhYmVsIj48L3RleHQ+PHJlY3QgaGVpZ2h0PSIyMiIgd2lkdGg9IjEyOC45MDcwMTI5Mzk0NTMxMiIgeT0iMTM0IiB4PSIxNTMuMTc2MzAwMDQ4ODI4MTIiIGNsYXNzPSJlciBhdHRyaWJ1dGVCb3hFdmVuIj48L3JlY3Q+PHRleHQgc3R5bGU9ImRvbWluYW50LWJhc2VsaW5lOiBtaWRkbGU7IGZvbnQtc2l6ZTogMTAuMnB4OyIgdHJhbnNmb3JtPSJ0cmFuc2xhdGUoMTU4LjE3NjMwMDA0ODgyODEyLDE0NSkiIHk9IjAiIHg9IjAiIGlkPSJ0ZXh0LWVudGl0eS1VU0VSLTZlN2UyOTYyLTBjNmYtNTc3ZC1hN2ZkLTJjZTNhMGNmZDJjOC1hdHRyLTYtY29tbWVudCIgY2xhc3M9ImVyIGVudGl0eUxhYmVsIj48L3RleHQ+PHJlY3QgaGVpZ2h0PSIyMiIgd2lkdGg9IjUyLjA2ODQ5NjcwNDEwMTU2IiB5PSIxNTYiIHg9IjAiIGNsYXNzPSJlciBhdHRyaWJ1dGVCb3hPZGQiPjwvcmVjdD48dGV4dCBzdHlsZT0iZG9taW5hbnQtYmFzZWxpbmU6IG1pZGRsZTsgZm9udC1zaXplOiAxMC4ycHg7IiB0cmFuc2Zvcm09InRyYW5zbGF0ZSg1LDE2NykiIHk9IjAiIHg9IjAiIGlkPSJ0ZXh0LWVudGl0eS1VU0VSLTZlN2UyOTYyLTBjNmYtNTc3ZC1hN2ZkLTJjZTNhMGNmZDJjOC1hdHRyLTctdHlwZSIgY2xhc3M9ImVyIGVudGl0eUxhYmVsIj5kYXRldGltZTwvdGV4dD48cmVjdCBoZWlnaHQ9IjIyIiB3aWR0aD0iNzguNDIwMTIwMjM5MjU3ODEiIHk9IjE1NiIgeD0iNTIuMDY4NDk2NzA0MTAxNTYiIGNsYXNzPSJlciBhdHRyaWJ1dGVCb3hPZGQiPjwvcmVjdD48dGV4dCBzdHlsZT0iZG9taW5hbnQtYmFzZWxpbmU6IG1pZGRsZTsgZm9udC1zaXplOiAxMC4ycHg7IiB0cmFuc2Zvcm09InRyYW5zbGF0ZSg1Ny4wNjg0OTY3MDQxMDE1NiwxNjcpIiB5PSIwIiB4PSIwIiBpZD0idGV4dC1lbnRpdHktVVNFUi02ZTdlMjk2Mi0wYzZmLTU3N2QtYTdmZC0yY2UzYTBjZmQyYzgtYXR0ci03LW5hbWUiIGNsYXNzPSJlciBlbnRpdHlMYWJlbCI+dXBkYXRlZF9hdDwvdGV4dD48cmVjdCBoZWlnaHQ9IjIyIiB3aWR0aD0iMjIuNjg3NjgzMTA1NDY4NzUiIHk9IjE1NiIgeD0iMTMwLjQ4ODYxNjk0MzM1OTM4IiBjbGFzcz0iZXIgYXR0cmlidXRlQm94T2RkIj48L3JlY3Q+PHRleHQgc3R5bGU9ImRvbWluYW50LWJhc2VsaW5lOiBtaWRkbGU7IGZvbnQtc2l6ZTogMTAuMnB4OyIgdHJhbnNmb3JtPSJ0cmFuc2xhdGUoMTM1LjQ4ODYxNjk0MzM1OTM4LDE2NykiIHk9IjAiIHg9IjAiIGlkPSJ0ZXh0LWVudGl0eS1VU0VSLTZlN2UyOTYyLTBjNmYtNTc3ZC1hN2ZkLTJjZTNhMGNmZDJjOC1hdHRyLTcta2V5IiBjbGFzcz0iZXIgZW50aXR5TGFiZWwiPjwvdGV4dD48cmVjdCBoZWlnaHQ9IjIyIiB3aWR0aD0iMTI4LjkwNzAxMjkzOTQ1MzEyIiB5PSIxNTYiIHg9IjE1My4xNzYzMDAwNDg4MjgxMiIgY2xhc3M9ImVyIGF0dHJpYnV0ZUJveE9kZCI+PC9yZWN0Pjx0ZXh0IHN0eWxlPSJkb21pbmFudC1iYXNlbGluZTogbWlkZGxlOyBmb250LXNpemU6IDEwLjJweDsiIHRyYW5zZm9ybT0idHJhbnNsYXRlKDE1OC4xNzYzMDAwNDg4MjgxMiwxNjcpIiB5PSIwIiB4PSIwIiBpZD0idGV4dC1lbnRpdHktVVNFUi02ZTdlMjk2Mi0wYzZmLTU3N2QtYTdmZC0yY2UzYTBjZmQyYzgtYXR0ci03LWNvbW1lbnQiIGNsYXNzPSJlciBlbnRpdHlMYWJlbCI+PC90ZXh0PjwvZz48ZyB0cmFuc2Zvcm09InRyYW5zbGF0ZSg2MTQuMDM3NzEyMDk3MTY4LDUzICkiIGlkPSJlbnRpdHktUFJPRFVDVENBVEVHT1JZLWFhYWQ1Yzg1LTg5OTQtNWJmMC1iODY2LWZiY2IwNjcxZWU1MiI+PHJlY3QgaGVpZ2h0PSIxMTIiIHdpZHRoPSIxNDQuMjQyMTg3NSIgeT0iMCIgeD0iMCIgY2xhc3M9ImVyIGVudGl0eUJveCI+PC9yZWN0Pjx0ZXh0IHN0eWxlPSJkb21pbmFudC1iYXNlbGluZTogbWlkZGxlOyB0ZXh0LWFuY2hvcjogbWlkZGxlOyBmb250LXNpemU6IDEycHg7IiB0cmFuc2Zvcm09InRyYW5zbGF0ZSg3Mi4xMjEwOTM3NSwxMikiIHk9IjAiIHg9IjAiIGlkPSJ0ZXh0LWVudGl0eS1QUk9EVUNUQ0FURUdPUlktYWFhZDVjODUtODk5NC01YmYwLWI4NjYtZmJjYjA2NzFlZTUyIiBjbGFzcz0iZXIgZW50aXR5TGFiZWwiPlBST0RVQ1RfQ0FURUdPUlk8L3RleHQ+PHJlY3QgaGVpZ2h0PSIyMiIgd2lkdGg9IjQwLjIzMjk4MTM2MzkzMjI5IiB5PSIyNCIgeD0iMCIgY2xhc3M9ImVyIGF0dHJpYnV0ZUJveE9kZCI+PC9yZWN0Pjx0ZXh0IHN0eWxlPSJkb21pbmFudC1iYXNlbGluZTogbWlkZGxlOyBmb250LXNpemU6IDEwLjJweDsiIHRyYW5zZm9ybT0idHJhbnNsYXRlKDUsMzUpIiB5PSIwIiB4PSIwIiBpZD0idGV4dC1lbnRpdHktUFJPRFVDVENBVEVHT1JZLWFhYWQ1Yzg1LTg5OTQtNWJmMC1iODY2LWZiY2IwNjcxZWU1Mi1hdHRyLTEtdHlwZSIgY2xhc3M9ImVyIGVudGl0eUxhYmVsIj5pbnQ8L3RleHQ+PHJlY3QgaGVpZ2h0PSIyMiIgd2lkdGg9Ijc3LjcwNzYzNjUxNTI5OTQ4IiB5PSIyNCIgeD0iNDAuMjMyOTgxMzYzOTMyMjkiIGNsYXNzPSJlciBhdHRyaWJ1dGVCb3hPZGQiPjwvcmVjdD48dGV4dCBzdHlsZT0iZG9taW5hbnQtYmFzZWxpbmU6IG1pZGRsZTsgZm9udC1zaXplOiAxMC4ycHg7IiB0cmFuc2Zvcm09InRyYW5zbGF0ZSg0NS4yMzI5ODEzNjM5MzIyOSwzNSkiIHk9IjAiIHg9IjAiIGlkPSJ0ZXh0LWVudGl0eS1QUk9EVUNUQ0FURUdPUlktYWFhZDVjODUtODk5NC01YmYwLWI4NjYtZmJjYjA2NzFlZTUyLWF0dHItMS1uYW1lIiBjbGFzcz0iZXIgZW50aXR5TGFiZWwiPmlkPC90ZXh0PjxyZWN0IGhlaWdodD0iMjIiIHdpZHRoPSIyNi4zMDE1Njk2MjA3NjgyMyIgeT0iMjQiIHg9IjExNy45NDA2MTc4NzkyMzE3OCIgY2xhc3M9ImVyIGF0dHJpYnV0ZUJveE9kZCI+PC9yZWN0Pjx0ZXh0IHN0eWxlPSJkb21pbmFudC1iYXNlbGluZTogbWlkZGxlOyBmb250LXNpemU6IDEwLjJweDsiIHRyYW5zZm9ybT0idHJhbnNsYXRlKDEyMi45NDA2MTc4NzkyMzE3OCwzNSkiIHk9IjAiIHg9IjAiIGlkPSJ0ZXh0LWVudGl0eS1QUk9EVUNUQ0FURUdPUlktYWFhZDVjODUtODk5NC01YmYwLWI4NjYtZmJjYjA2NzFlZTUyLWF0dHItMS1rZXkiIGNsYXNzPSJlciBlbnRpdHlMYWJlbCI+UEs8L3RleHQ+PHJlY3QgaGVpZ2h0PSIyMiIgd2lkdGg9IjQwLjIzMjk4MTM2MzkzMjI5IiB5PSI0NiIgeD0iMCIgY2xhc3M9ImVyIGF0dHJpYnV0ZUJveEV2ZW4iPjwvcmVjdD48dGV4dCBzdHlsZT0iZG9taW5hbnQtYmFzZWxpbmU6IG1pZGRsZTsgZm9udC1zaXplOiAxMC4ycHg7IiB0cmFuc2Zvcm09InRyYW5zbGF0ZSg1LDU3KSIgeT0iMCIgeD0iMCIgaWQ9InRleHQtZW50aXR5LVBST0RVQ1RDQVRFR09SWS1hYWFkNWM4NS04OTk0LTViZjAtYjg2Ni1mYmNiMDY3MWVlNTItYXR0ci0yLXR5cGUiIGNsYXNzPSJlciBlbnRpdHlMYWJlbCI+c3RyaW5nPC90ZXh0PjxyZWN0IGhlaWdodD0iMjIiIHdpZHRoPSI3Ny43MDc2MzY1MTUyOTk0OCIgeT0iNDYiIHg9IjQwLjIzMjk4MTM2MzkzMjI5IiBjbGFzcz0iZXIgYXR0cmlidXRlQm94RXZlbiI+PC9yZWN0Pjx0ZXh0IHN0eWxlPSJkb21pbmFudC1iYXNlbGluZTogbWlkZGxlOyBmb250LXNpemU6IDEwLjJweDsiIHRyYW5zZm9ybT0idHJhbnNsYXRlKDQ1LjIzMjk4MTM2MzkzMjI5LDU3KSIgeT0iMCIgeD0iMCIgaWQ9InRleHQtZW50aXR5LVBST0RVQ1RDQVRFR09SWS1hYWFkNWM4NS04OTk0LTViZjAtYjg2Ni1mYmNiMDY3MWVlNTItYXR0ci0yLW5hbWUiIGNsYXNzPSJlciBlbnRpdHlMYWJlbCI+bmFtZTwvdGV4dD48cmVjdCBoZWlnaHQ9IjIyIiB3aWR0aD0iMjYuMzAxNTY5NjIwNzY4MjMiIHk9IjQ2IiB4PSIxMTcuOTQwNjE3ODc5MjMxNzgiIGNsYXNzPSJlciBhdHRyaWJ1dGVCb3hFdmVuIj48L3JlY3Q+PHRleHQgc3R5bGU9ImRvbWluYW50LWJhc2VsaW5lOiBtaWRkbGU7IGZvbnQtc2l6ZTogMTAuMnB4OyIgdHJhbnNmb3JtPSJ0cmFuc2xhdGUoMTIyLjk0MDYxNzg3OTIzMTc4LDU3KSIgeT0iMCIgeD0iMCIgaWQ9InRleHQtZW50aXR5LVBST0RVQ1RDQVRFR09SWS1hYWFkNWM4NS04OTk0LTViZjAtYjg2Ni1mYmNiMDY3MWVlNTItYXR0ci0yLWtleSIgY2xhc3M9ImVyIGVudGl0eUxhYmVsIj48L3RleHQ+PHJlY3QgaGVpZ2h0PSIyMiIgd2lkdGg9IjQwLjIzMjk4MTM2MzkzMjI5IiB5PSI2OCIgeD0iMCIgY2xhc3M9ImVyIGF0dHJpYnV0ZUJveE9kZCI+PC9yZWN0Pjx0ZXh0IHN0eWxlPSJkb21pbmFudC1iYXNlbGluZTogbWlkZGxlOyBmb250LXNpemU6IDEwLjJweDsiIHRyYW5zZm9ybT0idHJhbnNsYXRlKDUsNzkpIiB5PSIwIiB4PSIwIiBpZD0idGV4dC1lbnRpdHktUFJPRFVDVENBVEVHT1JZLWFhYWQ1Yzg1LTg5OTQtNWJmMC1iODY2LWZiY2IwNjcxZWU1Mi1hdHRyLTMtdHlwZSIgY2xhc3M9ImVyIGVudGl0eUxhYmVsIj5zdHJpbmc8L3RleHQ+PHJlY3QgaGVpZ2h0PSIyMiIgd2lkdGg9Ijc3LjcwNzYzNjUxNTI5OTQ4IiB5PSI2OCIgeD0iNDAuMjMyOTgxMzYzOTMyMjkiIGNsYXNzPSJlciBhdHRyaWJ1dGVCb3hPZGQiPjwvcmVjdD48dGV4dCBzdHlsZT0iZG9taW5hbnQtYmFzZWxpbmU6IG1pZGRsZTsgZm9udC1zaXplOiAxMC4ycHg7IiB0cmFuc2Zvcm09InRyYW5zbGF0ZSg0NS4yMzI5ODEzNjM5MzIyOSw3OSkiIHk9IjAiIHg9IjAiIGlkPSJ0ZXh0LWVudGl0eS1QUk9EVUNUQ0FURUdPUlktYWFhZDVjODUtODk5NC01YmYwLWI4NjYtZmJjYjA2NzFlZTUyLWF0dHItMy1uYW1lIiBjbGFzcz0iZXIgZW50aXR5TGFiZWwiPnRodW1ibmFpbF91cmw8L3RleHQ+PHJlY3QgaGVpZ2h0PSIyMiIgd2lkdGg9IjI2LjMwMTU2OTYyMDc2ODIzIiB5PSI2OCIgeD0iMTE3Ljk0MDYxNzg3OTIzMTc4IiBjbGFzcz0iZXIgYXR0cmlidXRlQm94T2RkIj48L3JlY3Q+PHRleHQgc3R5bGU9ImRvbWluYW50LWJhc2VsaW5lOiBtaWRkbGU7IGZvbnQtc2l6ZTogMTAuMnB4OyIgdHJhbnNmb3JtPSJ0cmFuc2xhdGUoMTIyLjk0MDYxNzg3OTIzMTc4LDc5KSIgeT0iMCIgeD0iMCIgaWQ9InRleHQtZW50aXR5LVBST0RVQ1RDQVRFR09SWS1hYWFkNWM4NS04OTk0LTViZjAtYjg2Ni1mYmNiMDY3MWVlNTItYXR0ci0zLWtleSIgY2xhc3M9ImVyIGVudGl0eUxhYmVsIj48L3RleHQ+PHJlY3QgaGVpZ2h0PSIyMiIgd2lkdGg9IjQwLjIzMjk4MTM2MzkzMjI5IiB5PSI5MCIgeD0iMCIgY2xhc3M9ImVyIGF0dHJpYnV0ZUJveEV2ZW4iPjwvcmVjdD48dGV4dCBzdHlsZT0iZG9taW5hbnQtYmFzZWxpbmU6IG1pZGRsZTsgZm9udC1zaXplOiAxMC4ycHg7IiB0cmFuc2Zvcm09InRyYW5zbGF0ZSg1LDEwMSkiIHk9IjAiIHg9IjAiIGlkPSJ0ZXh0LWVudGl0eS1QUk9EVUNUQ0FURUdPUlktYWFhZDVjODUtODk5NC01YmYwLWI4NjYtZmJjYjA2NzFlZTUyLWF0dHItNC10eXBlIiBjbGFzcz0iZXIgZW50aXR5TGFiZWwiPnN0cmluZzwvdGV4dD48cmVjdCBoZWlnaHQ9IjIyIiB3aWR0aD0iNzcuNzA3NjM2NTE1Mjk5NDgiIHk9IjkwIiB4PSI0MC4yMzI5ODEzNjM5MzIyOSIgY2xhc3M9ImVyIGF0dHJpYnV0ZUJveEV2ZW4iPjwvcmVjdD48dGV4dCBzdHlsZT0iZG9taW5hbnQtYmFzZWxpbmU6IG1pZGRsZTsgZm9udC1zaXplOiAxMC4ycHg7IiB0cmFuc2Zvcm09InRyYW5zbGF0ZSg0NS4yMzI5ODEzNjM5MzIyOSwxMDEpIiB5PSIwIiB4PSIwIiBpZD0idGV4dC1lbnRpdHktUFJPRFVDVENBVEVHT1JZLWFhYWQ1Yzg1LTg5OTQtNWJmMC1iODY2LWZiY2IwNjcxZWU1Mi1hdHRyLTQtbmFtZSIgY2xhc3M9ImVyIGVudGl0eUxhYmVsIj5kZXNjcmlwdGlvbjwvdGV4dD48cmVjdCBoZWlnaHQ9IjIyIiB3aWR0aD0iMjYuMzAxNTY5NjIwNzY4MjMiIHk9IjkwIiB4PSIxMTcuOTQwNjE3ODc5MjMxNzgiIGNsYXNzPSJlciBhdHRyaWJ1dGVCb3hFdmVuIj48L3JlY3Q+PHRleHQgc3R5bGU9ImRvbWluYW50LWJhc2VsaW5lOiBtaWRkbGU7IGZvbnQtc2l6ZTogMTAuMnB4OyIgdHJhbnNmb3JtPSJ0cmFuc2xhdGUoMTIyLjk0MDYxNzg3OTIzMTc4LDEwMSkiIHk9IjAiIHg9IjAiIGlkPSJ0ZXh0LWVudGl0eS1QUk9EVUNUQ0FURUdPUlktYWFhZDVjODUtODk5NC01YmYwLWI4NjYtZmJjYjA2NzFlZTUyLWF0dHItNC1rZXkiIGNsYXNzPSJlciBlbnRpdHlMYWJlbCI+PC90ZXh0PjwvZz48ZyB0cmFuc2Zvcm09InRyYW5zbGF0ZSg5NTcuNTA1NTkyMzQ2MTkxNCwyOTggKSIgaWQ9ImVudGl0eS1QUk9EVUNULWIxNDUyNGExLThlMjAtNTgwNS1hMzgyLTQyM2ZkMWVjMzM5ZiI+PHJlY3QgaGVpZ2h0PSIyNDQiIHdpZHRoPSIzNjcuNjU3NjIzMjkxMDE1NiIgeT0iMCIgeD0iMCIgY2xhc3M9ImVyIGVudGl0eUJveCI+PC9yZWN0Pjx0ZXh0IHN0eWxlPSJkb21pbmFudC1iYXNlbGluZTogbWlkZGxlOyB0ZXh0LWFuY2hvcjogbWlkZGxlOyBmb250LXNpemU6IDEycHg7IiB0cmFuc2Zvcm09InRyYW5zbGF0ZSgxODMuODI4ODExNjQ1NTA3OCwxMikiIHk9IjAiIHg9IjAiIGlkPSJ0ZXh0LWVudGl0eS1QUk9EVUNULWIxNDUyNGExLThlMjAtNTgwNS1hMzgyLTQyM2ZkMWVjMzM5ZiIgY2xhc3M9ImVyIGVudGl0eUxhYmVsIj5QUk9EVUNUPC90ZXh0PjxyZWN0IGhlaWdodD0iMjIiIHdpZHRoPSI1Mi4wNjg0OTY3MDQxMDE1NiIgeT0iMjQiIHg9IjAiIGNsYXNzPSJlciBhdHRyaWJ1dGVCb3hPZGQiPjwvcmVjdD48dGV4dCBzdHlsZT0iZG9taW5hbnQtYmFzZWxpbmU6IG1pZGRsZTsgZm9udC1zaXplOiAxMC4ycHg7IiB0cmFuc2Zvcm09InRyYW5zbGF0ZSg1LDM1KSIgeT0iMCIgeD0iMCIgaWQ9InRleHQtZW50aXR5LVBST0RVQ1QtYjE0NTI0YTEtOGUyMC01ODA1LWEzODItNDIzZmQxZWMzMzlmLWF0dHItMS10eXBlIiBjbGFzcz0iZXIgZW50aXR5TGFiZWwiPmludDwvdGV4dD48cmVjdCBoZWlnaHQ9IjIyIiB3aWR0aD0iOTYuOTM3NSIgeT0iMjQiIHg9IjUyLjA2ODQ5NjcwNDEwMTU2IiBjbGFzcz0iZXIgYXR0cmlidXRlQm94T2RkIj48L3JlY3Q+PHRleHQgc3R5bGU9ImRvbWluYW50LWJhc2VsaW5lOiBtaWRkbGU7IGZvbnQtc2l6ZTogMTAuMnB4OyIgdHJhbnNmb3JtPSJ0cmFuc2xhdGUoNTcuMDY4NDk2NzA0MTAxNTYsMzUpIiB5PSIwIiB4PSIwIiBpZD0idGV4dC1lbnRpdHktUFJPRFVDVC1iMTQ1MjRhMS04ZTIwLTU4MDUtYTM4Mi00MjNmZDFlYzMzOWYtYXR0ci0xLW5hbWUiIGNsYXNzPSJlciBlbnRpdHlMYWJlbCI+aWQ8L3RleHQ+PHJlY3QgaGVpZ2h0PSIyMiIgd2lkdGg9IjIyLjY4NzY4MzEwNTQ2ODc1IiB5PSIyNCIgeD0iMTQ5LjAwNTk5NjcwNDEwMTU2IiBjbGFzcz0iZXIgYXR0cmlidXRlQm94T2RkIj48L3JlY3Q+PHRleHQgc3R5bGU9ImRvbWluYW50LWJhc2VsaW5lOiBtaWRkbGU7IGZvbnQtc2l6ZTogMTAuMnB4OyIgdHJhbnNmb3JtPSJ0cmFuc2xhdGUoMTU0LjAwNTk5NjcwNDEwMTU2LDM1KSIgeT0iMCIgeD0iMCIgaWQ9InRleHQtZW50aXR5LVBST0RVQ1QtYjE0NTI0YTEtOGUyMC01ODA1LWEzODItNDIzZmQxZWMzMzlmLWF0dHItMS1rZXkiIGNsYXNzPSJlciBlbnRpdHlMYWJlbCI+UEs8L3RleHQ+PHJlY3QgaGVpZ2h0PSIyMiIgd2lkdGg9IjE5NS45NjM5NDM0ODE0NDUzIiB5PSIyNCIgeD0iMTcxLjY5MzY3OTgwOTU3MDMiIGNsYXNzPSJlciBhdHRyaWJ1dGVCb3hPZGQiPjwvcmVjdD48dGV4dCBzdHlsZT0iZG9taW5hbnQtYmFzZWxpbmU6IG1pZGRsZTsgZm9udC1zaXplOiAxMC4ycHg7IiB0cmFuc2Zvcm09InRyYW5zbGF0ZSgxNzYuNjkzNjc5ODA5NTcwMywzNSkiIHk9IjAiIHg9IjAiIGlkPSJ0ZXh0LWVudGl0eS1QUk9EVUNULWIxNDUyNGExLThlMjAtNTgwNS1hMzgyLTQyM2ZkMWVjMzM5Zi1hdHRyLTEtY29tbWVudCIgY2xhc3M9ImVyIGVudGl0eUxhYmVsIj48L3RleHQ+PHJlY3QgaGVpZ2h0PSIyMiIgd2lkdGg9IjUyLjA2ODQ5NjcwNDEwMTU2IiB5PSI0NiIgeD0iMCIgY2xhc3M9ImVyIGF0dHJpYnV0ZUJveEV2ZW4iPjwvcmVjdD48dGV4dCBzdHlsZT0iZG9taW5hbnQtYmFzZWxpbmU6IG1pZGRsZTsgZm9udC1zaXplOiAxMC4ycHg7IiB0cmFuc2Zvcm09InRyYW5zbGF0ZSg1LDU3KSIgeT0iMCIgeD0iMCIgaWQ9InRleHQtZW50aXR5LVBST0RVQ1QtYjE0NTI0YTEtOGUyMC01ODA1LWEzODItNDIzZmQxZWMzMzlmLWF0dHItMi10eXBlIiBjbGFzcz0iZXIgZW50aXR5TGFiZWwiPmludDwvdGV4dD48cmVjdCBoZWlnaHQ9IjIyIiB3aWR0aD0iOTYuOTM3NSIgeT0iNDYiIHg9IjUyLjA2ODQ5NjcwNDEwMTU2IiBjbGFzcz0iZXIgYXR0cmlidXRlQm94RXZlbiI+PC9yZWN0Pjx0ZXh0IHN0eWxlPSJkb21pbmFudC1iYXNlbGluZTogbWlkZGxlOyBmb250LXNpemU6IDEwLjJweDsiIHRyYW5zZm9ybT0idHJhbnNsYXRlKDU3LjA2ODQ5NjcwNDEwMTU2LDU3KSIgeT0iMCIgeD0iMCIgaWQ9InRleHQtZW50aXR5LVBST0RVQ1QtYjE0NTI0YTEtOGUyMC01ODA1LWEzODItNDIzZmQxZWMzMzlmLWF0dHItMi1uYW1lIiBjbGFzcz0iZXIgZW50aXR5TGFiZWwiPnNlbGxlcl9pZDwvdGV4dD48cmVjdCBoZWlnaHQ9IjIyIiB3aWR0aD0iMjIuNjg3NjgzMTA1NDY4NzUiIHk9IjQ2IiB4PSIxNDkuMDA1OTk2NzA0MTAxNTYiIGNsYXNzPSJlciBhdHRyaWJ1dGVCb3hFdmVuIj48L3JlY3Q+PHRleHQgc3R5bGU9ImRvbWluYW50LWJhc2VsaW5lOiBtaWRkbGU7IGZvbnQtc2l6ZTogMTAuMnB4OyIgdHJhbnNmb3JtPSJ0cmFuc2xhdGUoMTU0LjAwNTk5NjcwNDEwMTU2LDU3KSIgeT0iMCIgeD0iMCIgaWQ9InRleHQtZW50aXR5LVBST0RVQ1QtYjE0NTI0YTEtOGUyMC01ODA1LWEzODItNDIzZmQxZWMzMzlmLWF0dHItMi1rZXkiIGNsYXNzPSJlciBlbnRpdHlMYWJlbCI+Rks8L3RleHQ+PHJlY3QgaGVpZ2h0PSIyMiIgd2lkdGg9IjE5NS45NjM5NDM0ODE0NDUzIiB5PSI0NiIgeD0iMTcxLjY5MzY3OTgwOTU3MDMiIGNsYXNzPSJlciBhdHRyaWJ1dGVCb3hFdmVuIj48L3JlY3Q+PHRleHQgc3R5bGU9ImRvbWluYW50LWJhc2VsaW5lOiBtaWRkbGU7IGZvbnQtc2l6ZTogMTAuMnB4OyIgdHJhbnNmb3JtPSJ0cmFuc2xhdGUoMTc2LjY5MzY3OTgwOTU3MDMsNTcpIiB5PSIwIiB4PSIwIiBpZD0idGV4dC1lbnRpdHktUFJPRFVDVC1iMTQ1MjRhMS04ZTIwLTU4MDUtYTM4Mi00MjNmZDFlYzMzOWYtYXR0ci0yLWNvbW1lbnQiIGNsYXNzPSJlciBlbnRpdHlMYWJlbCI+PC90ZXh0PjxyZWN0IGhlaWdodD0iMjIiIHdpZHRoPSI1Mi4wNjg0OTY3MDQxMDE1NiIgeT0iNjgiIHg9IjAiIGNsYXNzPSJlciBhdHRyaWJ1dGVCb3hPZGQiPjwvcmVjdD48dGV4dCBzdHlsZT0iZG9taW5hbnQtYmFzZWxpbmU6IG1pZGRsZTsgZm9udC1zaXplOiAxMC4ycHg7IiB0cmFuc2Zvcm09InRyYW5zbGF0ZSg1LDc5KSIgeT0iMCIgeD0iMCIgaWQ9InRleHQtZW50aXR5LVBST0RVQ1QtYjE0NTI0YTEtOGUyMC01ODA1LWEzODItNDIzZmQxZWMzMzlmLWF0dHItMy10eXBlIiBjbGFzcz0iZXIgZW50aXR5TGFiZWwiPmludDwvdGV4dD48cmVjdCBoZWlnaHQ9IjIyIiB3aWR0aD0iOTYuOTM3NSIgeT0iNjgiIHg9IjUyLjA2ODQ5NjcwNDEwMTU2IiBjbGFzcz0iZXIgYXR0cmlidXRlQm94T2RkIj48L3JlY3Q+PHRleHQgc3R5bGU9ImRvbWluYW50LWJhc2VsaW5lOiBtaWRkbGU7IGZvbnQtc2l6ZTogMTAuMnB4OyIgdHJhbnNmb3JtPSJ0cmFuc2xhdGUoNTcuMDY4NDk2NzA0MTAxNTYsNzkpIiB5PSIwIiB4PSIwIiBpZD0idGV4dC1lbnRpdHktUFJPRFVDVC1iMTQ1MjRhMS04ZTIwLTU4MDUtYTM4Mi00MjNmZDFlYzMzOWYtYXR0ci0zLW5hbWUiIGNsYXNzPSJlciBlbnRpdHlMYWJlbCI+Y2F0ZWdvcnlfaWQ8L3RleHQ+PHJlY3QgaGVpZ2h0PSIyMiIgd2lkdGg9IjIyLjY4NzY4MzEwNTQ2ODc1IiB5PSI2OCIgeD0iMTQ5LjAwNTk5NjcwNDEwMTU2IiBjbGFzcz0iZXIgYXR0cmlidXRlQm94T2RkIj48L3JlY3Q+PHRleHQgc3R5bGU9ImRvbWluYW50LWJhc2VsaW5lOiBtaWRkbGU7IGZvbnQtc2l6ZTogMTAuMnB4OyIgdHJhbnNmb3JtPSJ0cmFuc2xhdGUoMTU0LjAwNTk5NjcwNDEwMTU2LDc5KSIgeT0iMCIgeD0iMCIgaWQ9InRleHQtZW50aXR5LVBST0RVQ1QtYjE0NTI0YTEtOGUyMC01ODA1LWEzODItNDIzZmQxZWMzMzlmLWF0dHItMy1rZXkiIGNsYXNzPSJlciBlbnRpdHlMYWJlbCI+Rks8L3RleHQ+PHJlY3QgaGVpZ2h0PSIyMiIgd2lkdGg9IjE5NS45NjM5NDM0ODE0NDUzIiB5PSI2OCIgeD0iMTcxLjY5MzY3OTgwOTU3MDMiIGNsYXNzPSJlciBhdHRyaWJ1dGVCb3hPZGQiPjwvcmVjdD48dGV4dCBzdHlsZT0iZG9taW5hbnQtYmFzZWxpbmU6IG1pZGRsZTsgZm9udC1zaXplOiAxMC4ycHg7IiB0cmFuc2Zvcm09InRyYW5zbGF0ZSgxNzYuNjkzNjc5ODA5NTcwMyw3OSkiIHk9IjAiIHg9IjAiIGlkPSJ0ZXh0LWVudGl0eS1QUk9EVUNULWIxNDUyNGExLThlMjAtNTgwNS1hMzgyLTQyM2ZkMWVjMzM5Zi1hdHRyLTMtY29tbWVudCIgY2xhc3M9ImVyIGVudGl0eUxhYmVsIj48L3RleHQ+PHJlY3QgaGVpZ2h0PSIyMiIgd2lkdGg9IjUyLjA2ODQ5NjcwNDEwMTU2IiB5PSI5MCIgeD0iMCIgY2xhc3M9ImVyIGF0dHJpYnV0ZUJveEV2ZW4iPjwvcmVjdD48dGV4dCBzdHlsZT0iZG9taW5hbnQtYmFzZWxpbmU6IG1pZGRsZTsgZm9udC1zaXplOiAxMC4ycHg7IiB0cmFuc2Zvcm09InRyYW5zbGF0ZSg1LDEwMSkiIHk9IjAiIHg9IjAiIGlkPSJ0ZXh0LWVudGl0eS1QUk9EVUNULWIxNDUyNGExLThlMjAtNTgwNS1hMzgyLTQyM2ZkMWVjMzM5Zi1hdHRyLTQtdHlwZSIgY2xhc3M9ImVyIGVudGl0eUxhYmVsIj5zdHJpbmc8L3RleHQ+PHJlY3QgaGVpZ2h0PSIyMiIgd2lkdGg9Ijk2LjkzNzUiIHk9IjkwIiB4PSI1Mi4wNjg0OTY3MDQxMDE1NiIgY2xhc3M9ImVyIGF0dHJpYnV0ZUJveEV2ZW4iPjwvcmVjdD48dGV4dCBzdHlsZT0iZG9taW5hbnQtYmFzZWxpbmU6IG1pZGRsZTsgZm9udC1zaXplOiAxMC4ycHg7IiB0cmFuc2Zvcm09InRyYW5zbGF0ZSg1Ny4wNjg0OTY3MDQxMDE1NiwxMDEpIiB5PSIwIiB4PSIwIiBpZD0idGV4dC1lbnRpdHktUFJPRFVDVC1iMTQ1MjRhMS04ZTIwLTU4MDUtYTM4Mi00MjNmZDFlYzMzOWYtYXR0ci00LW5hbWUiIGNsYXNzPSJlciBlbnRpdHlMYWJlbCI+bmFtZTwvdGV4dD48cmVjdCBoZWlnaHQ9IjIyIiB3aWR0aD0iMjIuNjg3NjgzMTA1NDY4NzUiIHk9IjkwIiB4PSIxNDkuMDA1OTk2NzA0MTAxNTYiIGNsYXNzPSJlciBhdHRyaWJ1dGVCb3hFdmVuIj48L3JlY3Q+PHRleHQgc3R5bGU9ImRvbWluYW50LWJhc2VsaW5lOiBtaWRkbGU7IGZvbnQtc2l6ZTogMTAuMnB4OyIgdHJhbnNmb3JtPSJ0cmFuc2xhdGUoMTU0LjAwNTk5NjcwNDEwMTU2LDEwMSkiIHk9IjAiIHg9IjAiIGlkPSJ0ZXh0LWVudGl0eS1QUk9EVUNULWIxNDUyNGExLThlMjAtNTgwNS1hMzgyLTQyM2ZkMWVjMzM5Zi1hdHRyLTQta2V5IiBjbGFzcz0iZXIgZW50aXR5TGFiZWwiPjwvdGV4dD48cmVjdCBoZWlnaHQ9IjIyIiB3aWR0aD0iMTk1Ljk2Mzk0MzQ4MTQ0NTMiIHk9IjkwIiB4PSIxNzEuNjkzNjc5ODA5NTcwMyIgY2xhc3M9ImVyIGF0dHJpYnV0ZUJveEV2ZW4iPjwvcmVjdD48dGV4dCBzdHlsZT0iZG9taW5hbnQtYmFzZWxpbmU6IG1pZGRsZTsgZm9udC1zaXplOiAxMC4ycHg7IiB0cmFuc2Zvcm09InRyYW5zbGF0ZSgxNzYuNjkzNjc5ODA5NTcwMywxMDEpIiB5PSIwIiB4PSIwIiBpZD0idGV4dC1lbnRpdHktUFJPRFVDVC1iMTQ1MjRhMS04ZTIwLTU4MDUtYTM4Mi00MjNmZDFlYzMzOWYtYXR0ci00LWNvbW1lbnQiIGNsYXNzPSJlciBlbnRpdHlMYWJlbCI+PC90ZXh0PjxyZWN0IGhlaWdodD0iMjIiIHdpZHRoPSI1Mi4wNjg0OTY3MDQxMDE1NiIgeT0iMTEyIiB4PSIwIiBjbGFzcz0iZXIgYXR0cmlidXRlQm94T2RkIj48L3JlY3Q+PHRleHQgc3R5bGU9ImRvbWluYW50LWJhc2VsaW5lOiBtaWRkbGU7IGZvbnQtc2l6ZTogMTAuMnB4OyIgdHJhbnNmb3JtPSJ0cmFuc2xhdGUoNSwxMjMpIiB5PSIwIiB4PSIwIiBpZD0idGV4dC1lbnRpdHktUFJPRFVDVC1iMTQ1MjRhMS04ZTIwLTU4MDUtYTM4Mi00MjNmZDFlYzMzOWYtYXR0ci01LXR5cGUiIGNsYXNzPSJlciBlbnRpdHlMYWJlbCI+c3RyaW5nPC90ZXh0PjxyZWN0IGhlaWdodD0iMjIiIHdpZHRoPSI5Ni45Mzc1IiB5PSIxMTIiIHg9IjUyLjA2ODQ5NjcwNDEwMTU2IiBjbGFzcz0iZXIgYXR0cmlidXRlQm94T2RkIj48L3JlY3Q+PHRleHQgc3R5bGU9ImRvbWluYW50LWJhc2VsaW5lOiBtaWRkbGU7IGZvbnQtc2l6ZTogMTAuMnB4OyIgdHJhbnNmb3JtPSJ0cmFuc2xhdGUoNTcuMDY4NDk2NzA0MTAxNTYsMTIzKSIgeT0iMCIgeD0iMCIgaWQ9InRleHQtZW50aXR5LVBST0RVQ1QtYjE0NTI0YTEtOGUyMC01ODA1LWEzODItNDIzZmQxZWMzMzlmLWF0dHItNS1uYW1lIiBjbGFzcz0iZXIgZW50aXR5TGFiZWwiPmRlc2NyaXB0aW9uPC90ZXh0PjxyZWN0IGhlaWdodD0iMjIiIHdpZHRoPSIyMi42ODc2ODMxMDU0Njg3NSIgeT0iMTEyIiB4PSIxNDkuMDA1OTk2NzA0MTAxNTYiIGNsYXNzPSJlciBhdHRyaWJ1dGVCb3hPZGQiPjwvcmVjdD48dGV4dCBzdHlsZT0iZG9taW5hbnQtYmFzZWxpbmU6IG1pZGRsZTsgZm9udC1zaXplOiAxMC4ycHg7IiB0cmFuc2Zvcm09InRyYW5zbGF0ZSgxNTQuMDA1OTk2NzA0MTAxNTYsMTIzKSIgeT0iMCIgeD0iMCIgaWQ9InRleHQtZW50aXR5LVBST0RVQ1QtYjE0NTI0YTEtOGUyMC01ODA1LWEzODItNDIzZmQxZWMzMzlmLWF0dHItNS1rZXkiIGNsYXNzPSJlciBlbnRpdHlMYWJlbCI+PC90ZXh0PjxyZWN0IGhlaWdodD0iMjIiIHdpZHRoPSIxOTUuOTYzOTQzNDgxNDQ1MyIgeT0iMTEyIiB4PSIxNzEuNjkzNjc5ODA5NTcwMyIgY2xhc3M9ImVyIGF0dHJpYnV0ZUJveE9kZCI+PC9yZWN0Pjx0ZXh0IHN0eWxlPSJkb21pbmFudC1iYXNlbGluZTogbWlkZGxlOyBmb250LXNpemU6IDEwLjJweDsiIHRyYW5zZm9ybT0idHJhbnNsYXRlKDE3Ni42OTM2Nzk4MDk1NzAzLDEyMykiIHk9IjAiIHg9IjAiIGlkPSJ0ZXh0LWVudGl0eS1QUk9EVUNULWIxNDUyNGExLThlMjAtNTgwNS1hMzgyLTQyM2ZkMWVjMzM5Zi1hdHRyLTUtY29tbWVudCIgY2xhc3M9ImVyIGVudGl0eUxhYmVsIj48L3RleHQ+PHJlY3QgaGVpZ2h0PSIyMiIgd2lkdGg9IjUyLjA2ODQ5NjcwNDEwMTU2IiB5PSIxMzQiIHg9IjAiIGNsYXNzPSJlciBhdHRyaWJ1dGVCb3hFdmVuIj48L3JlY3Q+PHRleHQgc3R5bGU9ImRvbWluYW50LWJhc2VsaW5lOiBtaWRkbGU7IGZvbnQtc2l6ZTogMTAuMnB4OyIgdHJhbnNmb3JtPSJ0cmFuc2xhdGUoNSwxNDUpIiB5PSIwIiB4PSIwIiBpZD0idGV4dC1lbnRpdHktUFJPRFVDVC1iMTQ1MjRhMS04ZTIwLTU4MDUtYTM4Mi00MjNmZDFlYzMzOWYtYXR0ci02LXR5cGUiIGNsYXNzPSJlciBlbnRpdHlMYWJlbCI+ZmxvYXQ8L3RleHQ+PHJlY3QgaGVpZ2h0PSIyMiIgd2lkdGg9Ijk2LjkzNzUiIHk9IjEzNCIgeD0iNTIuMDY4NDk2NzA0MTAxNTYiIGNsYXNzPSJlciBhdHRyaWJ1dGVCb3hFdmVuIj48L3JlY3Q+PHRleHQgc3R5bGU9ImRvbWluYW50LWJhc2VsaW5lOiBtaWRkbGU7IGZvbnQtc2l6ZTogMTAuMnB4OyIgdHJhbnNmb3JtPSJ0cmFuc2xhdGUoNTcuMDY4NDk2NzA0MTAxNTYsMTQ1KSIgeT0iMCIgeD0iMCIgaWQ9InRleHQtZW50aXR5LVBST0RVQ1QtYjE0NTI0YTEtOGUyMC01ODA1LWEzODItNDIzZmQxZWMzMzlmLWF0dHItNi1uYW1lIiBjbGFzcz0iZXIgZW50aXR5TGFiZWwiPnByaWNlPC90ZXh0PjxyZWN0IGhlaWdodD0iMjIiIHdpZHRoPSIyMi42ODc2ODMxMDU0Njg3NSIgeT0iMTM0IiB4PSIxNDkuMDA1OTk2NzA0MTAxNTYiIGNsYXNzPSJlciBhdHRyaWJ1dGVCb3hFdmVuIj48L3JlY3Q+PHRleHQgc3R5bGU9ImRvbWluYW50LWJhc2VsaW5lOiBtaWRkbGU7IGZvbnQtc2l6ZTogMTAuMnB4OyIgdHJhbnNmb3JtPSJ0cmFuc2xhdGUoMTU0LjAwNTk5NjcwNDEwMTU2LDE0NSkiIHk9IjAiIHg9IjAiIGlkPSJ0ZXh0LWVudGl0eS1QUk9EVUNULWIxNDUyNGExLThlMjAtNTgwNS1hMzgyLTQyM2ZkMWVjMzM5Zi1hdHRyLTYta2V5IiBjbGFzcz0iZXIgZW50aXR5TGFiZWwiPjwvdGV4dD48cmVjdCBoZWlnaHQ9IjIyIiB3aWR0aD0iMTk1Ljk2Mzk0MzQ4MTQ0NTMiIHk9IjEzNCIgeD0iMTcxLjY5MzY3OTgwOTU3MDMiIGNsYXNzPSJlciBhdHRyaWJ1dGVCb3hFdmVuIj48L3JlY3Q+PHRleHQgc3R5bGU9ImRvbWluYW50LWJhc2VsaW5lOiBtaWRkbGU7IGZvbnQtc2l6ZTogMTAuMnB4OyIgdHJhbnNmb3JtPSJ0cmFuc2xhdGUoMTc2LjY5MzY3OTgwOTU3MDMsMTQ1KSIgeT0iMCIgeD0iMCIgaWQ9InRleHQtZW50aXR5LVBST0RVQ1QtYjE0NTI0YTEtOGUyMC01ODA1LWEzODItNDIzZmQxZWMzMzlmLWF0dHItNi1jb21tZW50IiBjbGFzcz0iZXIgZW50aXR5TGFiZWwiPjwvdGV4dD48cmVjdCBoZWlnaHQ9IjIyIiB3aWR0aD0iNTIuMDY4NDk2NzA0MTAxNTYiIHk9IjE1NiIgeD0iMCIgY2xhc3M9ImVyIGF0dHJpYnV0ZUJveE9kZCI+PC9yZWN0Pjx0ZXh0IHN0eWxlPSJkb21pbmFudC1iYXNlbGluZTogbWlkZGxlOyBmb250LXNpemU6IDEwLjJweDsiIHRyYW5zZm9ybT0idHJhbnNsYXRlKDUsMTY3KSIgeT0iMCIgeD0iMCIgaWQ9InRleHQtZW50aXR5LVBST0RVQ1QtYjE0NTI0YTEtOGUyMC01ODA1LWEzODItNDIzZmQxZWMzMzlmLWF0dHItNy10eXBlIiBjbGFzcz0iZXIgZW50aXR5TGFiZWwiPmludDwvdGV4dD48cmVjdCBoZWlnaHQ9IjIyIiB3aWR0aD0iOTYuOTM3NSIgeT0iMTU2IiB4PSI1Mi4wNjg0OTY3MDQxMDE1NiIgY2xhc3M9ImVyIGF0dHJpYnV0ZUJveE9kZCI+PC9yZWN0Pjx0ZXh0IHN0eWxlPSJkb21pbmFudC1iYXNlbGluZTogbWlkZGxlOyBmb250LXNpemU6IDEwLjJweDsiIHRyYW5zZm9ybT0idHJhbnNsYXRlKDU3LjA2ODQ5NjcwNDEwMTU2LDE2NykiIHk9IjAiIHg9IjAiIGlkPSJ0ZXh0LWVudGl0eS1QUk9EVUNULWIxNDUyNGExLThlMjAtNTgwNS1hMzgyLTQyM2ZkMWVjMzM5Zi1hdHRyLTctbmFtZSIgY2xhc3M9ImVyIGVudGl0eUxhYmVsIj5zdG9ja19xdWFudGl0eTwvdGV4dD48cmVjdCBoZWlnaHQ9IjIyIiB3aWR0aD0iMjIuNjg3NjgzMTA1NDY4NzUiIHk9IjE1NiIgeD0iMTQ5LjAwNTk5NjcwNDEwMTU2IiBjbGFzcz0iZXIgYXR0cmlidXRlQm94T2RkIj48L3JlY3Q+PHRleHQgc3R5bGU9ImRvbWluYW50LWJhc2VsaW5lOiBtaWRkbGU7IGZvbnQtc2l6ZTogMTAuMnB4OyIgdHJhbnNmb3JtPSJ0cmFuc2xhdGUoMTU0LjAwNTk5NjcwNDEwMTU2LDE2NykiIHk9IjAiIHg9IjAiIGlkPSJ0ZXh0LWVudGl0eS1QUk9EVUNULWIxNDUyNGExLThlMjAtNTgwNS1hMzgyLTQyM2ZkMWVjMzM5Zi1hdHRyLTcta2V5IiBjbGFzcz0iZXIgZW50aXR5TGFiZWwiPjwvdGV4dD48cmVjdCBoZWlnaHQ9IjIyIiB3aWR0aD0iMTk1Ljk2Mzk0MzQ4MTQ0NTMiIHk9IjE1NiIgeD0iMTcxLjY5MzY3OTgwOTU3MDMiIGNsYXNzPSJlciBhdHRyaWJ1dGVCb3hPZGQiPjwvcmVjdD48dGV4dCBzdHlsZT0iZG9taW5hbnQtYmFzZWxpbmU6IG1pZGRsZTsgZm9udC1zaXplOiAxMC4ycHg7IiB0cmFuc2Zvcm09InRyYW5zbGF0ZSgxNzYuNjkzNjc5ODA5NTcwMywxNjcpIiB5PSIwIiB4PSIwIiBpZD0idGV4dC1lbnRpdHktUFJPRFVDVC1iMTQ1MjRhMS04ZTIwLTU4MDUtYTM4Mi00MjNmZDFlYzMzOWYtYXR0ci03LWNvbW1lbnQiIGNsYXNzPSJlciBlbnRpdHlMYWJlbCI+PC90ZXh0PjxyZWN0IGhlaWdodD0iMjIiIHdpZHRoPSI1Mi4wNjg0OTY3MDQxMDE1NiIgeT0iMTc4IiB4PSIwIiBjbGFzcz0iZXIgYXR0cmlidXRlQm94RXZlbiI+PC9yZWN0Pjx0ZXh0IHN0eWxlPSJkb21pbmFudC1iYXNlbGluZTogbWlkZGxlOyBmb250LXNpemU6IDEwLjJweDsiIHRyYW5zZm9ybT0idHJhbnNsYXRlKDUsMTg5KSIgeT0iMCIgeD0iMCIgaWQ9InRleHQtZW50aXR5LVBST0RVQ1QtYjE0NTI0YTEtOGUyMC01ODA1LWEzODItNDIzZmQxZWMzMzlmLWF0dHItOC10eXBlIiBjbGFzcz0iZXIgZW50aXR5TGFiZWwiPmRhdGV0aW1lPC90ZXh0PjxyZWN0IGhlaWdodD0iMjIiIHdpZHRoPSI5Ni45Mzc1IiB5PSIxNzgiIHg9IjUyLjA2ODQ5NjcwNDEwMTU2IiBjbGFzcz0iZXIgYXR0cmlidXRlQm94RXZlbiI+PC9yZWN0Pjx0ZXh0IHN0eWxlPSJkb21pbmFudC1iYXNlbGluZTogbWlkZGxlOyBmb250LXNpemU6IDEwLjJweDsiIHRyYW5zZm9ybT0idHJhbnNsYXRlKDU3LjA2ODQ5NjcwNDEwMTU2LDE4OSkiIHk9IjAiIHg9IjAiIGlkPSJ0ZXh0LWVudGl0eS1QUk9EVUNULWIxNDUyNGExLThlMjAtNTgwNS1hMzgyLTQyM2ZkMWVjMzM5Zi1hdHRyLTgtbmFtZSIgY2xhc3M9ImVyIGVudGl0eUxhYmVsIj5jcmVhdGVkX2F0PC90ZXh0PjxyZWN0IGhlaWdodD0iMjIiIHdpZHRoPSIyMi42ODc2ODMxMDU0Njg3NSIgeT0iMTc4IiB4PSIxNDkuMDA1OTk2NzA0MTAxNTYiIGNsYXNzPSJlciBhdHRyaWJ1dGVCb3hFdmVuIj48L3JlY3Q+PHRleHQgc3R5bGU9ImRvbWluYW50LWJhc2VsaW5lOiBtaWRkbGU7IGZvbnQtc2l6ZTogMTAuMnB4OyIgdHJhbnNmb3JtPSJ0cmFuc2xhdGUoMTU0LjAwNTk5NjcwNDEwMTU2LDE4OSkiIHk9IjAiIHg9IjAiIGlkPSJ0ZXh0LWVudGl0eS1QUk9EVUNULWIxNDUyNGExLThlMjAtNTgwNS1hMzgyLTQyM2ZkMWVjMzM5Zi1hdHRyLTgta2V5IiBjbGFzcz0iZXIgZW50aXR5TGFiZWwiPjwvdGV4dD48cmVjdCBoZWlnaHQ9IjIyIiB3aWR0aD0iMTk1Ljk2Mzk0MzQ4MTQ0NTMiIHk9IjE3OCIgeD0iMTcxLjY5MzY3OTgwOTU3MDMiIGNsYXNzPSJlciBhdHRyaWJ1dGVCb3hFdmVuIj48L3JlY3Q+PHRleHQgc3R5bGU9ImRvbWluYW50LWJhc2VsaW5lOiBtaWRkbGU7IGZvbnQtc2l6ZTogMTAuMnB4OyIgdHJhbnNmb3JtPSJ0cmFuc2xhdGUoMTc2LjY5MzY3OTgwOTU3MDMsMTg5KSIgeT0iMCIgeD0iMCIgaWQ9InRleHQtZW50aXR5LVBST0RVQ1QtYjE0NTI0YTEtOGUyMC01ODA1LWEzODItNDIzZmQxZWMzMzlmLWF0dHItOC1jb21tZW50IiBjbGFzcz0iZXIgZW50aXR5TGFiZWwiPjwvdGV4dD48cmVjdCBoZWlnaHQ9IjIyIiB3aWR0aD0iNTIuMDY4NDk2NzA0MTAxNTYiIHk9IjIwMCIgeD0iMCIgY2xhc3M9ImVyIGF0dHJpYnV0ZUJveE9kZCI+PC9yZWN0Pjx0ZXh0IHN0eWxlPSJkb21pbmFudC1iYXNlbGluZTogbWlkZGxlOyBmb250LXNpemU6IDEwLjJweDsiIHRyYW5zZm9ybT0idHJhbnNsYXRlKDUsMjExKSIgeT0iMCIgeD0iMCIgaWQ9InRleHQtZW50aXR5LVBST0RVQ1QtYjE0NTI0YTEtOGUyMC01ODA1LWEzODItNDIzZmQxZWMzMzlmLWF0dHItOS10eXBlIiBjbGFzcz0iZXIgZW50aXR5TGFiZWwiPmRhdGV0aW1lPC90ZXh0PjxyZWN0IGhlaWdodD0iMjIiIHdpZHRoPSI5Ni45Mzc1IiB5PSIyMDAiIHg9IjUyLjA2ODQ5NjcwNDEwMTU2IiBjbGFzcz0iZXIgYXR0cmlidXRlQm94T2RkIj48L3JlY3Q+PHRleHQgc3R5bGU9ImRvbWluYW50LWJhc2VsaW5lOiBtaWRkbGU7IGZvbnQtc2l6ZTogMTAuMnB4OyIgdHJhbnNmb3JtPSJ0cmFuc2xhdGUoNTcuMDY4NDk2NzA0MTAxNTYsMjExKSIgeT0iMCIgeD0iMCIgaWQ9InRleHQtZW50aXR5LVBST0RVQ1QtYjE0NTI0YTEtOGUyMC01ODA1LWEzODItNDIzZmQxZWMzMzlmLWF0dHItOS1uYW1lIiBjbGFzcz0iZXIgZW50aXR5TGFiZWwiPnVwZGF0ZWRfYXQ8L3RleHQ+PHJlY3QgaGVpZ2h0PSIyMiIgd2lkdGg9IjIyLjY4NzY4MzEwNTQ2ODc1IiB5PSIyMDAiIHg9IjE0OS4wMDU5OTY3MDQxMDE1NiIgY2xhc3M9ImVyIGF0dHJpYnV0ZUJveE9kZCI+PC9yZWN0Pjx0ZXh0IHN0eWxlPSJkb21pbmFudC1iYXNlbGluZTogbWlkZGxlOyBmb250LXNpemU6IDEwLjJweDsiIHRyYW5zZm9ybT0idHJhbnNsYXRlKDE1NC4wMDU5OTY3MDQxMDE1NiwyMTEpIiB5PSIwIiB4PSIwIiBpZD0idGV4dC1lbnRpdHktUFJPRFVDVC1iMTQ1MjRhMS04ZTIwLTU4MDUtYTM4Mi00MjNmZDFlYzMzOWYtYXR0ci05LWtleSIgY2xhc3M9ImVyIGVudGl0eUxhYmVsIj48L3RleHQ+PHJlY3QgaGVpZ2h0PSIyMiIgd2lkdGg9IjE5NS45NjM5NDM0ODE0NDUzIiB5PSIyMDAiIHg9IjE3MS42OTM2Nzk4MDk1NzAzIiBjbGFzcz0iZXIgYXR0cmlidXRlQm94T2RkIj48L3JlY3Q+PHRleHQgc3R5bGU9ImRvbWluYW50LWJhc2VsaW5lOiBtaWRkbGU7IGZvbnQtc2l6ZTogMTAuMnB4OyIgdHJhbnNmb3JtPSJ0cmFuc2xhdGUoMTc2LjY5MzY3OTgwOTU3MDMsMjExKSIgeT0iMCIgeD0iMCIgaWQ9InRleHQtZW50aXR5LVBST0RVQ1QtYjE0NTI0YTEtOGUyMC01ODA1LWEzODItNDIzZmQxZWMzMzlmLWF0dHItOS1jb21tZW50IiBjbGFzcz0iZXIgZW50aXR5TGFiZWwiPjwvdGV4dD48cmVjdCBoZWlnaHQ9IjIyIiB3aWR0aD0iNTIuMDY4NDk2NzA0MTAxNTYiIHk9IjIyMiIgeD0iMCIgY2xhc3M9ImVyIGF0dHJpYnV0ZUJveEV2ZW4iPjwvcmVjdD48dGV4dCBzdHlsZT0iZG9taW5hbnQtYmFzZWxpbmU6IG1pZGRsZTsgZm9udC1zaXplOiAxMC4ycHg7IiB0cmFuc2Zvcm09InRyYW5zbGF0ZSg1LDIzMykiIHk9IjAiIHg9IjAiIGlkPSJ0ZXh0LWVudGl0eS1QUk9EVUNULWIxNDUyNGExLThlMjAtNTgwNS1hMzgyLTQyM2ZkMWVjMzM5Zi1hdHRyLTEwLXR5cGUiIGNsYXNzPSJlciBlbnRpdHlMYWJlbCI+c3RyaW5nPC90ZXh0PjxyZWN0IGhlaWdodD0iMjIiIHdpZHRoPSI5Ni45Mzc1IiB5PSIyMjIiIHg9IjUyLjA2ODQ5NjcwNDEwMTU2IiBjbGFzcz0iZXIgYXR0cmlidXRlQm94RXZlbiI+PC9yZWN0Pjx0ZXh0IHN0eWxlPSJkb21pbmFudC1iYXNlbGluZTogbWlkZGxlOyBmb250LXNpemU6IDEwLjJweDsiIHRyYW5zZm9ybT0idHJhbnNsYXRlKDU3LjA2ODQ5NjcwNDEwMTU2LDIzMykiIHk9IjAiIHg9IjAiIGlkPSJ0ZXh0LWVudGl0eS1QUk9EVUNULWIxNDUyNGExLThlMjAtNTgwNS1hMzgyLTQyM2ZkMWVjMzM5Zi1hdHRyLTEwLW5hbWUiIGNsYXNzPSJlciBlbnRpdHlMYWJlbCI+cHJldmlld19pbWFnZV91cmw8L3RleHQ+PHJlY3QgaGVpZ2h0PSIyMiIgd2lkdGg9IjIyLjY4NzY4MzEwNTQ2ODc1IiB5PSIyMjIiIHg9IjE0OS4wMDU5OTY3MDQxMDE1NiIgY2xhc3M9ImVyIGF0dHJpYnV0ZUJveEV2ZW4iPjwvcmVjdD48dGV4dCBzdHlsZT0iZG9taW5hbnQtYmFzZWxpbmU6IG1pZGRsZTsgZm9udC1zaXplOiAxMC4ycHg7IiB0cmFuc2Zvcm09InRyYW5zbGF0ZSgxNTQuMDA1OTk2NzA0MTAxNTYsMjMzKSIgeT0iMCIgeD0iMCIgaWQ9InRleHQtZW50aXR5LVBST0RVQ1QtYjE0NTI0YTEtOGUyMC01ODA1LWEzODItNDIzZmQxZWMzMzlmLWF0dHItMTAta2V5IiBjbGFzcz0iZXIgZW50aXR5TGFiZWwiPjwvdGV4dD48cmVjdCBoZWlnaHQ9IjIyIiB3aWR0aD0iMTk1Ljk2Mzk0MzQ4MTQ0NTMiIHk9IjIyMiIgeD0iMTcxLjY5MzY3OTgwOTU3MDMiIGNsYXNzPSJlciBhdHRyaWJ1dGVCb3hFdmVuIj48L3JlY3Q+PHRleHQgc3R5bGU9ImRvbWluYW50LWJhc2VsaW5lOiBtaWRkbGU7IGZvbnQtc2l6ZTogMTAuMnB4OyIgdHJhbnNmb3JtPSJ0cmFuc2xhdGUoMTc2LjY5MzY3OTgwOTU3MDMsMjMzKSIgeT0iMCIgeD0iMCIgaWQ9InRleHQtZW50aXR5LVBST0RVQ1QtYjE0NTI0YTEtOGUyMC01ODA1LWEzODItNDIzZmQxZWMzMzlmLWF0dHItMTAtY29tbWVudCIgY2xhc3M9ImVyIGVudGl0eUxhYmVsIj5PcHRpb25hbDogbWFpbiBwcmV2aWV3IGltYWdlIHJlZmVyZW5jZTwvdGV4dD48L2c+PGcgdHJhbnNmb3JtPSJ0cmFuc2xhdGUoMjAsNjUzICkiIGlkPSJlbnRpdHktUFJPRFVDVElNQUdFUy1jMGM2ZmExMC1hN2I2LTUzZWMtOTZmNC1lYTY4N2RjMjI3YWUiPjxyZWN0IGhlaWdodD0iMTU2IiB3aWR0aD0iMjk1LjA1ODQ4NjkzODQ3NjU2IiB5PSIwIiB4PSIwIiBjbGFzcz0iZXIgZW50aXR5Qm94Ij48L3JlY3Q+PHRleHQgc3R5bGU9ImRvbWluYW50LWJhc2VsaW5lOiBtaWRkbGU7IHRleHQtYW5jaG9yOiBtaWRkbGU7IGZvbnQtc2l6ZTogMTJweDsiIHRyYW5zZm9ybT0idHJhbnNsYXRlKDE0Ny41MjkyNDM0NjkyMzgyOCwxMikiIHk9IjAiIHg9IjAiIGlkPSJ0ZXh0LWVudGl0eS1QUk9EVUNUSU1BR0VTLWMwYzZmYTEwLWE3YjYtNTNlYy05NmY0LWVhNjg3ZGMyMjdhZSIgY2xhc3M9ImVyIGVudGl0eUxhYmVsIj5QUk9EVUNUX0lNQUdFUzwvdGV4dD48cmVjdCBoZWlnaHQ9IjIyIiB3aWR0aD0iNTIuMDY4NDk2NzA0MTAxNTYiIHk9IjI0IiB4PSIwIiBjbGFzcz0iZXIgYXR0cmlidXRlQm94T2RkIj48L3JlY3Q+PHRleHQgc3R5bGU9ImRvbWluYW50LWJhc2VsaW5lOiBtaWRkbGU7IGZvbnQtc2l6ZTogMTAuMnB4OyIgdHJhbnNmb3JtPSJ0cmFuc2xhdGUoNSwzNSkiIHk9IjAiIHg9IjAiIGlkPSJ0ZXh0LWVudGl0eS1QUk9EVUNUSU1BR0VTLWMwYzZmYTEwLWE3YjYtNTNlYy05NmY0LWVhNjg3ZGMyMjdhZS1hdHRyLTEtdHlwZSIgY2xhc3M9ImVyIGVudGl0eUxhYmVsIj5pbnQ8L3RleHQ+PHJlY3QgaGVpZ2h0PSIyMiIgd2lkdGg9IjcyLjgzMzExNDYyNDAyMzQ0IiB5PSIyNCIgeD0iNTIuMDY4NDk2NzA0MTAxNTYiIGNsYXNzPSJlciBhdHRyaWJ1dGVCb3hPZGQiPjwvcmVjdD48dGV4dCBzdHlsZT0iZG9taW5hbnQtYmFzZWxpbmU6IG1pZGRsZTsgZm9udC1zaXplOiAxMC4ycHg7IiB0cmFuc2Zvcm09InRyYW5zbGF0ZSg1Ny4wNjg0OTY3MDQxMDE1NiwzNSkiIHk9IjAiIHg9IjAiIGlkPSJ0ZXh0LWVudGl0eS1QUk9EVUNUSU1BR0VTLWMwYzZmYTEwLWE3YjYtNTNlYy05NmY0LWVhNjg3ZGMyMjdhZS1hdHRyLTEtbmFtZSIgY2xhc3M9ImVyIGVudGl0eUxhYmVsIj5pZDwvdGV4dD48cmVjdCBoZWlnaHQ9IjIyIiB3aWR0aD0iMjIuNjg3NjgzMTA1NDY4NzUiIHk9IjI0IiB4PSIxMjQuOTAxNjExMzI4MTI1IiBjbGFzcz0iZXIgYXR0cmlidXRlQm94T2RkIj48L3JlY3Q+PHRleHQgc3R5bGU9ImRvbWluYW50LWJhc2VsaW5lOiBtaWRkbGU7IGZvbnQtc2l6ZTogMTAuMnB4OyIgdHJhbnNmb3JtPSJ0cmFuc2xhdGUoMTI5LjkwMTYxMTMyODEyNSwzNSkiIHk9IjAiIHg9IjAiIGlkPSJ0ZXh0LWVudGl0eS1QUk9EVUNUSU1BR0VTLWMwYzZmYTEwLWE3YjYtNTNlYy05NmY0LWVhNjg3ZGMyMjdhZS1hdHRyLTEta2V5IiBjbGFzcz0iZXIgZW50aXR5TGFiZWwiPlBLPC90ZXh0PjxyZWN0IGhlaWdodD0iMjIiIHdpZHRoPSIxNDcuNDY5MTkyNTA0ODgyOCIgeT0iMjQiIHg9IjE0Ny41ODkyOTQ0MzM1OTM3NSIgY2xhc3M9ImVyIGF0dHJpYnV0ZUJveE9kZCI+PC9yZWN0Pjx0ZXh0IHN0eWxlPSJkb21pbmFudC1iYXNlbGluZTogbWlkZGxlOyBmb250LXNpemU6IDEwLjJweDsiIHRyYW5zZm9ybT0idHJhbnNsYXRlKDE1Mi41ODkyOTQ0MzM1OTM3NSwzNSkiIHk9IjAiIHg9IjAiIGlkPSJ0ZXh0LWVudGl0eS1QUk9EVUNUSU1BR0VTLWMwYzZmYTEwLWE3YjYtNTNlYy05NmY0LWVhNjg3ZGMyMjdhZS1hdHRyLTEtY29tbWVudCIgY2xhc3M9ImVyIGVudGl0eUxhYmVsIj48L3RleHQ+PHJlY3QgaGVpZ2h0PSIyMiIgd2lkdGg9IjUyLjA2ODQ5NjcwNDEwMTU2IiB5PSI0NiIgeD0iMCIgY2xhc3M9ImVyIGF0dHJpYnV0ZUJveEV2ZW4iPjwvcmVjdD48dGV4dCBzdHlsZT0iZG9taW5hbnQtYmFzZWxpbmU6IG1pZGRsZTsgZm9udC1zaXplOiAxMC4ycHg7IiB0cmFuc2Zvcm09InRyYW5zbGF0ZSg1LDU3KSIgeT0iMCIgeD0iMCIgaWQ9InRleHQtZW50aXR5LVBST0RVQ1RJTUFHRVMtYzBjNmZhMTAtYTdiNi01M2VjLTk2ZjQtZWE2ODdkYzIyN2FlLWF0dHItMi10eXBlIiBjbGFzcz0iZXIgZW50aXR5TGFiZWwiPmludDwvdGV4dD48cmVjdCBoZWlnaHQ9IjIyIiB3aWR0aD0iNzIuODMzMTE0NjI0MDIzNDQiIHk9IjQ2IiB4PSI1Mi4wNjg0OTY3MDQxMDE1NiIgY2xhc3M9ImVyIGF0dHJpYnV0ZUJveEV2ZW4iPjwvcmVjdD48dGV4dCBzdHlsZT0iZG9taW5hbnQtYmFzZWxpbmU6IG1pZGRsZTsgZm9udC1zaXplOiAxMC4ycHg7IiB0cmFuc2Zvcm09InRyYW5zbGF0ZSg1Ny4wNjg0OTY3MDQxMDE1Niw1NykiIHk9IjAiIHg9IjAiIGlkPSJ0ZXh0LWVudGl0eS1QUk9EVUNUSU1BR0VTLWMwYzZmYTEwLWE3YjYtNTNlYy05NmY0LWVhNjg3ZGMyMjdhZS1hdHRyLTItbmFtZSIgY2xhc3M9ImVyIGVudGl0eUxhYmVsIj5wcm9kdWN0X2lkPC90ZXh0PjxyZWN0IGhlaWdodD0iMjIiIHdpZHRoPSIyMi42ODc2ODMxMDU0Njg3NSIgeT0iNDYiIHg9IjEyNC45MDE2MTEzMjgxMjUiIGNsYXNzPSJlciBhdHRyaWJ1dGVCb3hFdmVuIj48L3JlY3Q+PHRleHQgc3R5bGU9ImRvbWluYW50LWJhc2VsaW5lOiBtaWRkbGU7IGZvbnQtc2l6ZTogMTAuMnB4OyIgdHJhbnNmb3JtPSJ0cmFuc2xhdGUoMTI5LjkwMTYxMTMyODEyNSw1NykiIHk9IjAiIHg9IjAiIGlkPSJ0ZXh0LWVudGl0eS1QUk9EVUNUSU1BR0VTLWMwYzZmYTEwLWE3YjYtNTNlYy05NmY0LWVhNjg3ZGMyMjdhZS1hdHRyLTIta2V5IiBjbGFzcz0iZXIgZW50aXR5TGFiZWwiPkZLPC90ZXh0PjxyZWN0IGhlaWdodD0iMjIiIHdpZHRoPSIxNDcuNDY5MTkyNTA0ODgyOCIgeT0iNDYiIHg9IjE0Ny41ODkyOTQ0MzM1OTM3NSIgY2xhc3M9ImVyIGF0dHJpYnV0ZUJveEV2ZW4iPjwvcmVjdD48dGV4dCBzdHlsZT0iZG9taW5hbnQtYmFzZWxpbmU6IG1pZGRsZTsgZm9udC1zaXplOiAxMC4ycHg7IiB0cmFuc2Zvcm09InRyYW5zbGF0ZSgxNTIuNTg5Mjk0NDMzNTkzNzUsNTcpIiB5PSIwIiB4PSIwIiBpZD0idGV4dC1lbnRpdHktUFJPRFVDVElNQUdFUy1jMGM2ZmExMC1hN2I2LTUzZWMtOTZmNC1lYTY4N2RjMjI3YWUtYXR0ci0yLWNvbW1lbnQiIGNsYXNzPSJlciBlbnRpdHlMYWJlbCI+PC90ZXh0PjxyZWN0IGhlaWdodD0iMjIiIHdpZHRoPSI1Mi4wNjg0OTY3MDQxMDE1NiIgeT0iNjgiIHg9IjAiIGNsYXNzPSJlciBhdHRyaWJ1dGVCb3hPZGQiPjwvcmVjdD48dGV4dCBzdHlsZT0iZG9taW5hbnQtYmFzZWxpbmU6IG1pZGRsZTsgZm9udC1zaXplOiAxMC4ycHg7IiB0cmFuc2Zvcm09InRyYW5zbGF0ZSg1LDc5KSIgeT0iMCIgeD0iMCIgaWQ9InRleHQtZW50aXR5LVBST0RVQ1RJTUFHRVMtYzBjNmZhMTAtYTdiNi01M2VjLTk2ZjQtZWE2ODdkYzIyN2FlLWF0dHItMy10eXBlIiBjbGFzcz0iZXIgZW50aXR5TGFiZWwiPnN0cmluZzwvdGV4dD48cmVjdCBoZWlnaHQ9IjIyIiB3aWR0aD0iNzIuODMzMTE0NjI0MDIzNDQiIHk9IjY4IiB4PSI1Mi4wNjg0OTY3MDQxMDE1NiIgY2xhc3M9ImVyIGF0dHJpYnV0ZUJveE9kZCI+PC9yZWN0Pjx0ZXh0IHN0eWxlPSJkb21pbmFudC1iYXNlbGluZTogbWlkZGxlOyBmb250LXNpemU6IDEwLjJweDsiIHRyYW5zZm9ybT0idHJhbnNsYXRlKDU3LjA2ODQ5NjcwNDEwMTU2LDc5KSIgeT0iMCIgeD0iMCIgaWQ9InRleHQtZW50aXR5LVBST0RVQ1RJTUFHRVMtYzBjNmZhMTAtYTdiNi01M2VjLTk2ZjQtZWE2ODdkYzIyN2FlLWF0dHItMy1uYW1lIiBjbGFzcz0iZXIgZW50aXR5TGFiZWwiPnVybDwvdGV4dD48cmVjdCBoZWlnaHQ9IjIyIiB3aWR0aD0iMjIuNjg3NjgzMTA1NDY4NzUiIHk9IjY4IiB4PSIxMjQuOTAxNjExMzI4MTI1IiBjbGFzcz0iZXIgYXR0cmlidXRlQm94T2RkIj48L3JlY3Q+PHRleHQgc3R5bGU9ImRvbWluYW50LWJhc2VsaW5lOiBtaWRkbGU7IGZvbnQtc2l6ZTogMTAuMnB4OyIgdHJhbnNmb3JtPSJ0cmFuc2xhdGUoMTI5LjkwMTYxMTMyODEyNSw3OSkiIHk9IjAiIHg9IjAiIGlkPSJ0ZXh0LWVudGl0eS1QUk9EVUNUSU1BR0VTLWMwYzZmYTEwLWE3YjYtNTNlYy05NmY0LWVhNjg3ZGMyMjdhZS1hdHRyLTMta2V5IiBjbGFzcz0iZXIgZW50aXR5TGFiZWwiPjwvdGV4dD48cmVjdCBoZWlnaHQ9IjIyIiB3aWR0aD0iMTQ3LjQ2OTE5MjUwNDg4MjgiIHk9IjY4IiB4PSIxNDcuNTg5Mjk0NDMzNTkzNzUiIGNsYXNzPSJlciBhdHRyaWJ1dGVCb3hPZGQiPjwvcmVjdD48dGV4dCBzdHlsZT0iZG9taW5hbnQtYmFzZWxpbmU6IG1pZGRsZTsgZm9udC1zaXplOiAxMC4ycHg7IiB0cmFuc2Zvcm09InRyYW5zbGF0ZSgxNTIuNTg5Mjk0NDMzNTkzNzUsNzkpIiB5PSIwIiB4PSIwIiBpZD0idGV4dC1lbnRpdHktUFJPRFVDVElNQUdFUy1jMGM2ZmExMC1hN2I2LTUzZWMtOTZmNC1lYTY4N2RjMjI3YWUtYXR0ci0zLWNvbW1lbnQiIGNsYXNzPSJlciBlbnRpdHlMYWJlbCI+PC90ZXh0PjxyZWN0IGhlaWdodD0iMjIiIHdpZHRoPSI1Mi4wNjg0OTY3MDQxMDE1NiIgeT0iOTAiIHg9IjAiIGNsYXNzPSJlciBhdHRyaWJ1dGVCb3hFdmVuIj48L3JlY3Q+PHRleHQgc3R5bGU9ImRvbWluYW50LWJhc2VsaW5lOiBtaWRkbGU7IGZvbnQtc2l6ZTogMTAuMnB4OyIgdHJhbnNmb3JtPSJ0cmFuc2xhdGUoNSwxMDEpIiB5PSIwIiB4PSIwIiBpZD0idGV4dC1lbnRpdHktUFJPRFVDVElNQUdFUy1jMGM2ZmExMC1hN2I2LTUzZWMtOTZmNC1lYTY4N2RjMjI3YWUtYXR0ci00LXR5cGUiIGNsYXNzPSJlciBlbnRpdHlMYWJlbCI+c3RyaW5nPC90ZXh0PjxyZWN0IGhlaWdodD0iMjIiIHdpZHRoPSI3Mi44MzMxMTQ2MjQwMjM0NCIgeT0iOTAiIHg9IjUyLjA2ODQ5NjcwNDEwMTU2IiBjbGFzcz0iZXIgYXR0cmlidXRlQm94RXZlbiI+PC9yZWN0Pjx0ZXh0IHN0eWxlPSJkb21pbmFudC1iYXNlbGluZTogbWlkZGxlOyBmb250LXNpemU6IDEwLjJweDsiIHRyYW5zZm9ybT0idHJhbnNsYXRlKDU3LjA2ODQ5NjcwNDEwMTU2LDEwMSkiIHk9IjAiIHg9IjAiIGlkPSJ0ZXh0LWVudGl0eS1QUk9EVUNUSU1BR0VTLWMwYzZmYTEwLWE3YjYtNTNlYy05NmY0LWVhNjg3ZGMyMjdhZS1hdHRyLTQtbmFtZSIgY2xhc3M9ImVyIGVudGl0eUxhYmVsIj5pbWFnZV90eXBlPC90ZXh0PjxyZWN0IGhlaWdodD0iMjIiIHdpZHRoPSIyMi42ODc2ODMxMDU0Njg3NSIgeT0iOTAiIHg9IjEyNC45MDE2MTEzMjgxMjUiIGNsYXNzPSJlciBhdHRyaWJ1dGVCb3hFdmVuIj48L3JlY3Q+PHRleHQgc3R5bGU9ImRvbWluYW50LWJhc2VsaW5lOiBtaWRkbGU7IGZvbnQtc2l6ZTogMTAuMnB4OyIgdHJhbnNmb3JtPSJ0cmFuc2xhdGUoMTI5LjkwMTYxMTMyODEyNSwxMDEpIiB5PSIwIiB4PSIwIiBpZD0idGV4dC1lbnRpdHktUFJPRFVDVElNQUdFUy1jMGM2ZmExMC1hN2I2LTUzZWMtOTZmNC1lYTY4N2RjMjI3YWUtYXR0ci00LWtleSIgY2xhc3M9ImVyIGVudGl0eUxhYmVsIj48L3RleHQ+PHJlY3QgaGVpZ2h0PSIyMiIgd2lkdGg9IjE0Ny40NjkxOTI1MDQ4ODI4IiB5PSI5MCIgeD0iMTQ3LjU4OTI5NDQzMzU5Mzc1IiBjbGFzcz0iZXIgYXR0cmlidXRlQm94RXZlbiI+PC9yZWN0Pjx0ZXh0IHN0eWxlPSJkb21pbmFudC1iYXNlbGluZTogbWlkZGxlOyBmb250LXNpemU6IDEwLjJweDsiIHRyYW5zZm9ybT0idHJhbnNsYXRlKDE1Mi41ODkyOTQ0MzM1OTM3NSwxMDEpIiB5PSIwIiB4PSIwIiBpZD0idGV4dC1lbnRpdHktUFJPRFVDVElNQUdFUy1jMGM2ZmExMC1hN2I2LTUzZWMtOTZmNC1lYTY4N2RjMjI3YWUtYXR0ci00LWNvbW1lbnQiIGNsYXNzPSJlciBlbnRpdHlMYWJlbCI+cHJldmlldyB8IHRodW1ibmFpbCB8IGdhbGxlcnk8L3RleHQ+PHJlY3QgaGVpZ2h0PSIyMiIgd2lkdGg9IjUyLjA2ODQ5NjcwNDEwMTU2IiB5PSIxMTIiIHg9IjAiIGNsYXNzPSJlciBhdHRyaWJ1dGVCb3hPZGQiPjwvcmVjdD48dGV4dCBzdHlsZT0iZG9taW5hbnQtYmFzZWxpbmU6IG1pZGRsZTsgZm9udC1zaXplOiAxMC4ycHg7IiB0cmFuc2Zvcm09InRyYW5zbGF0ZSg1LDEyMykiIHk9IjAiIHg9IjAiIGlkPSJ0ZXh0LWVudGl0eS1QUk9EVUNUSU1BR0VTLWMwYzZmYTEwLWE3YjYtNTNlYy05NmY0LWVhNjg3ZGMyMjdhZS1hdHRyLTUtdHlwZSIgY2xhc3M9ImVyIGVudGl0eUxhYmVsIj5pbnQ8L3RleHQ+PHJlY3QgaGVpZ2h0PSIyMiIgd2lkdGg9IjcyLjgzMzExNDYyNDAyMzQ0IiB5PSIxMTIiIHg9IjUyLjA2ODQ5NjcwNDEwMTU2IiBjbGFzcz0iZXIgYXR0cmlidXRlQm94T2RkIj48L3JlY3Q+PHRleHQgc3R5bGU9ImRvbWluYW50LWJhc2VsaW5lOiBtaWRkbGU7IGZvbnQtc2l6ZTogMTAuMnB4OyIgdHJhbnNmb3JtPSJ0cmFuc2xhdGUoNTcuMDY4NDk2NzA0MTAxNTYsMTIzKSIgeT0iMCIgeD0iMCIgaWQ9InRleHQtZW50aXR5LVBST0RVQ1RJTUFHRVMtYzBjNmZhMTAtYTdiNi01M2VjLTk2ZjQtZWE2ODdkYzIyN2FlLWF0dHItNS1uYW1lIiBjbGFzcz0iZXIgZW50aXR5TGFiZWwiPmRpc3BsYXlfb3JkZXI8L3RleHQ+PHJlY3QgaGVpZ2h0PSIyMiIgd2lkdGg9IjIyLjY4NzY4MzEwNTQ2ODc1IiB5PSIxMTIiIHg9IjEyNC45MDE2MTEzMjgxMjUiIGNsYXNzPSJlciBhdHRyaWJ1dGVCb3hPZGQiPjwvcmVjdD48dGV4dCBzdHlsZT0iZG9taW5hbnQtYmFzZWxpbmU6IG1pZGRsZTsgZm9udC1zaXplOiAxMC4ycHg7IiB0cmFuc2Zvcm09InRyYW5zbGF0ZSgxMjkuOTAxNjExMzI4MTI1LDEyMykiIHk9IjAiIHg9IjAiIGlkPSJ0ZXh0LWVudGl0eS1QUk9EVUNUSU1BR0VTLWMwYzZmYTEwLWE3YjYtNTNlYy05NmY0LWVhNjg3ZGMyMjdhZS1hdHRyLTUta2V5IiBjbGFzcz0iZXIgZW50aXR5TGFiZWwiPjwvdGV4dD48cmVjdCBoZWlnaHQ9IjIyIiB3aWR0aD0iMTQ3LjQ2OTE5MjUwNDg4MjgiIHk9IjExMiIgeD0iMTQ3LjU4OTI5NDQzMzU5Mzc1IiBjbGFzcz0iZXIgYXR0cmlidXRlQm94T2RkIj48L3JlY3Q+PHRleHQgc3R5bGU9ImRvbWluYW50LWJhc2VsaW5lOiBtaWRkbGU7IGZvbnQtc2l6ZTogMTAuMnB4OyIgdHJhbnNmb3JtPSJ0cmFuc2xhdGUoMTUyLjU4OTI5NDQzMzU5Mzc1LDEyMykiIHk9IjAiIHg9IjAiIGlkPSJ0ZXh0LWVudGl0eS1QUk9EVUNUSU1BR0VTLWMwYzZmYTEwLWE3YjYtNTNlYy05NmY0LWVhNjg3ZGMyMjdhZS1hdHRyLTUtY29tbWVudCIgY2xhc3M9ImVyIGVudGl0eUxhYmVsIj48L3RleHQ+PHJlY3QgaGVpZ2h0PSIyMiIgd2lkdGg9IjUyLjA2ODQ5NjcwNDEwMTU2IiB5PSIxMzQiIHg9IjAiIGNsYXNzPSJlciBhdHRyaWJ1dGVCb3hFdmVuIj48L3JlY3Q+PHRleHQgc3R5bGU9ImRvbWluYW50LWJhc2VsaW5lOiBtaWRkbGU7IGZvbnQtc2l6ZTogMTAuMnB4OyIgdHJhbnNmb3JtPSJ0cmFuc2xhdGUoNSwxNDUpIiB5PSIwIiB4PSIwIiBpZD0idGV4dC1lbnRpdHktUFJPRFVDVElNQUdFUy1jMGM2ZmExMC1hN2I2LTUzZWMtOTZmNC1lYTY4N2RjMjI3YWUtYXR0ci02LXR5cGUiIGNsYXNzPSJlciBlbnRpdHlMYWJlbCI+ZGF0ZXRpbWU8L3RleHQ+PHJlY3QgaGVpZ2h0PSIyMiIgd2lkdGg9IjcyLjgzMzExNDYyNDAyMzQ0IiB5PSIxMzQiIHg9IjUyLjA2ODQ5NjcwNDEwMTU2IiBjbGFzcz0iZXIgYXR0cmlidXRlQm94RXZlbiI+PC9yZWN0Pjx0ZXh0IHN0eWxlPSJkb21pbmFudC1iYXNlbGluZTogbWlkZGxlOyBmb250LXNpemU6IDEwLjJweDsiIHRyYW5zZm9ybT0idHJhbnNsYXRlKDU3LjA2ODQ5NjcwNDEwMTU2LDE0NSkiIHk9IjAiIHg9IjAiIGlkPSJ0ZXh0LWVudGl0eS1QUk9EVUNUSU1BR0VTLWMwYzZmYTEwLWE3YjYtNTNlYy05NmY0LWVhNjg3ZGMyMjdhZS1hdHRyLTYtbmFtZSIgY2xhc3M9ImVyIGVudGl0eUxhYmVsIj5jcmVhdGVkX2F0PC90ZXh0PjxyZWN0IGhlaWdodD0iMjIiIHdpZHRoPSIyMi42ODc2ODMxMDU0Njg3NSIgeT0iMTM0IiB4PSIxMjQuOTAxNjExMzI4MTI1IiBjbGFzcz0iZXIgYXR0cmlidXRlQm94RXZlbiI+PC9yZWN0Pjx0ZXh0IHN0eWxlPSJkb21pbmFudC1iYXNlbGluZTogbWlkZGxlOyBmb250LXNpemU6IDEwLjJweDsiIHRyYW5zZm9ybT0idHJhbnNsYXRlKDEyOS45MDE2MTEzMjgxMjUsMTQ1KSIgeT0iMCIgeD0iMCIgaWQ9InRleHQtZW50aXR5LVBST0RVQ1RJTUFHRVMtYzBjNmZhMTAtYTdiNi01M2VjLTk2ZjQtZWE2ODdkYzIyN2FlLWF0dHItNi1rZXkiIGNsYXNzPSJlciBlbnRpdHlMYWJlbCI+PC90ZXh0PjxyZWN0IGhlaWdodD0iMjIiIHdpZHRoPSIxNDcuNDY5MTkyNTA0ODgyOCIgeT0iMTM0IiB4PSIxNDcuNTg5Mjk0NDMzNTkzNzUiIGNsYXNzPSJlciBhdHRyaWJ1dGVCb3hFdmVuIj48L3JlY3Q+PHRleHQgc3R5bGU9ImRvbWluYW50LWJhc2VsaW5lOiBtaWRkbGU7IGZvbnQtc2l6ZTogMTAuMnB4OyIgdHJhbnNmb3JtPSJ0cmFuc2xhdGUoMTUyLjU4OTI5NDQzMzU5Mzc1LDE0NSkiIHk9IjAiIHg9IjAiIGlkPSJ0ZXh0LWVudGl0eS1QUk9EVUNUSU1BR0VTLWMwYzZmYTEwLWE3YjYtNTNlYy05NmY0LWVhNjg3ZGMyMjdhZS1hdHRyLTYtY29tbWVudCIgY2xhc3M9ImVyIGVudGl0eUxhYmVsIj48L3RleHQ+PC9nPjxnIHRyYW5zZm9ybT0idHJhbnNsYXRlKDQxNS4wNTg0NzE2Nzk2ODc1LDY0MiApIiBpZD0iZW50aXR5LVJFVklFV1MtODZiOTBmYmYtZjdiNi01OWRmLTkzNjQtYmY5YmZlMDVjYTU3Ij48cmVjdCBoZWlnaHQ9IjE3OCIgd2lkdGg9IjIwMi4zMzgzMDI2MTIzMDQ3IiB5PSIwIiB4PSIwIiBjbGFzcz0iZXIgZW50aXR5Qm94Ij48L3JlY3Q+PHRleHQgc3R5bGU9ImRvbWluYW50LWJhc2VsaW5lOiBtaWRkbGU7IHRleHQtYW5jaG9yOiBtaWRkbGU7IGZvbnQtc2l6ZTogMTJweDsiIHRyYW5zZm9ybT0idHJhbnNsYXRlKDEwMS4xNjkxNTEzMDYxNTIzNCwxMikiIHk9IjAiIHg9IjAiIGlkPSJ0ZXh0LWVudGl0eS1SRVZJRVdTLTg2YjkwZmJmLWY3YjYtNTlkZi05MzY0LWJmOWJmZTA1Y2E1NyIgY2xhc3M9ImVyIGVudGl0eUxhYmVsIj5SRVZJRVdTPC90ZXh0PjxyZWN0IGhlaWdodD0iMjIiIHdpZHRoPSI1Mi4wNjg0OTY3MDQxMDE1NiIgeT0iMjQiIHg9IjAiIGNsYXNzPSJlciBhdHRyaWJ1dGVCb3hPZGQiPjwvcmVjdD48dGV4dCBzdHlsZT0iZG9taW5hbnQtYmFzZWxpbmU6IG1pZGRsZTsgZm9udC1zaXplOiAxMC4ycHg7IiB0cmFuc2Zvcm09InRyYW5zbGF0ZSg1LDM1KSIgeT0iMCIgeD0iMCIgaWQ9InRleHQtZW50aXR5LVJFVklFV1MtODZiOTBmYmYtZjdiNi01OWRmLTkzNjQtYmY5YmZlMDVjYTU3LWF0dHItMS10eXBlIiBjbGFzcz0iZXIgZW50aXR5TGFiZWwiPmludDwvdGV4dD48cmVjdCBoZWlnaHQ9IjIyIiB3aWR0aD0iNjUuNjUxMjc1NjM0NzY1NjIiIHk9IjI0IiB4PSI1Mi4wNjg0OTY3MDQxMDE1NiIgY2xhc3M9ImVyIGF0dHJpYnV0ZUJveE9kZCI+PC9yZWN0Pjx0ZXh0IHN0eWxlPSJkb21pbmFudC1iYXNlbGluZTogbWlkZGxlOyBmb250LXNpemU6IDEwLjJweDsiIHRyYW5zZm9ybT0idHJhbnNsYXRlKDU3LjA2ODQ5NjcwNDEwMTU2LDM1KSIgeT0iMCIgeD0iMCIgaWQ9InRleHQtZW50aXR5LVJFVklFV1MtODZiOTBmYmYtZjdiNi01OWRmLTkzNjQtYmY5YmZlMDVjYTU3LWF0dHItMS1uYW1lIiBjbGFzcz0iZXIgZW50aXR5TGFiZWwiPmlkPC90ZXh0PjxyZWN0IGhlaWdodD0iMjIiIHdpZHRoPSIyMi42ODc2ODMxMDU0Njg3NSIgeT0iMjQiIHg9IjExNy43MTk3NzIzMzg4NjcxOSIgY2xhc3M9ImVyIGF0dHJpYnV0ZUJveE9kZCI+PC9yZWN0Pjx0ZXh0IHN0eWxlPSJkb21pbmFudC1iYXNlbGluZTogbWlkZGxlOyBmb250LXNpemU6IDEwLjJweDsiIHRyYW5zZm9ybT0idHJhbnNsYXRlKDEyMi43MTk3NzIzMzg4NjcxOSwzNSkiIHk9IjAiIHg9IjAiIGlkPSJ0ZXh0LWVudGl0eS1SRVZJRVdTLTg2YjkwZmJmLWY3YjYtNTlkZi05MzY0LWJmOWJmZTA1Y2E1Ny1hdHRyLTEta2V5IiBjbGFzcz0iZXIgZW50aXR5TGFiZWwiPlBLPC90ZXh0PjxyZWN0IGhlaWdodD0iMjIiIHdpZHRoPSI2MS45MzA4NDcxNjc5Njg3NSIgeT0iMjQiIHg9IjE0MC40MDc0NTU0NDQzMzU5NCIgY2xhc3M9ImVyIGF0dHJpYnV0ZUJveE9kZCI+PC9yZWN0Pjx0ZXh0IHN0eWxlPSJkb21pbmFudC1iYXNlbGluZTogbWlkZGxlOyBmb250LXNpemU6IDEwLjJweDsiIHRyYW5zZm9ybT0idHJhbnNsYXRlKDE0NS40MDc0NTU0NDQzMzU5NCwzNSkiIHk9IjAiIHg9IjAiIGlkPSJ0ZXh0LWVudGl0eS1SRVZJRVdTLTg2YjkwZmJmLWY3YjYtNTlkZi05MzY0LWJmOWJmZTA1Y2E1Ny1hdHRyLTEtY29tbWVudCIgY2xhc3M9ImVyIGVudGl0eUxhYmVsIj48L3RleHQ+PHJlY3QgaGVpZ2h0PSIyMiIgd2lkdGg9IjUyLjA2ODQ5NjcwNDEwMTU2IiB5PSI0NiIgeD0iMCIgY2xhc3M9ImVyIGF0dHJpYnV0ZUJveEV2ZW4iPjwvcmVjdD48dGV4dCBzdHlsZT0iZG9taW5hbnQtYmFzZWxpbmU6IG1pZGRsZTsgZm9udC1zaXplOiAxMC4ycHg7IiB0cmFuc2Zvcm09InRyYW5zbGF0ZSg1LDU3KSIgeT0iMCIgeD0iMCIgaWQ9InRleHQtZW50aXR5LVJFVklFV1MtODZiOTBmYmYtZjdiNi01OWRmLTkzNjQtYmY5YmZlMDVjYTU3LWF0dHItMi10eXBlIiBjbGFzcz0iZXIgZW50aXR5TGFiZWwiPmludDwvdGV4dD48cmVjdCBoZWlnaHQ9IjIyIiB3aWR0aD0iNjUuNjUxMjc1NjM0NzY1NjIiIHk9IjQ2IiB4PSI1Mi4wNjg0OTY3MDQxMDE1NiIgY2xhc3M9ImVyIGF0dHJpYnV0ZUJveEV2ZW4iPjwvcmVjdD48dGV4dCBzdHlsZT0iZG9taW5hbnQtYmFzZWxpbmU6IG1pZGRsZTsgZm9udC1zaXplOiAxMC4ycHg7IiB0cmFuc2Zvcm09InRyYW5zbGF0ZSg1Ny4wNjg0OTY3MDQxMDE1Niw1NykiIHk9IjAiIHg9IjAiIGlkPSJ0ZXh0LWVudGl0eS1SRVZJRVdTLTg2YjkwZmJmLWY3YjYtNTlkZi05MzY0LWJmOWJmZTA1Y2E1Ny1hdHRyLTItbmFtZSIgY2xhc3M9ImVyIGVudGl0eUxhYmVsIj5wcm9kdWN0X2lkPC90ZXh0PjxyZWN0IGhlaWdodD0iMjIiIHdpZHRoPSIyMi42ODc2ODMxMDU0Njg3NSIgeT0iNDYiIHg9IjExNy43MTk3NzIzMzg4NjcxOSIgY2xhc3M9ImVyIGF0dHJpYnV0ZUJveEV2ZW4iPjwvcmVjdD48dGV4dCBzdHlsZT0iZG9taW5hbnQtYmFzZWxpbmU6IG1pZGRsZTsgZm9udC1zaXplOiAxMC4ycHg7IiB0cmFuc2Zvcm09InRyYW5zbGF0ZSgxMjIuNzE5NzcyMzM4ODY3MTksNTcpIiB5PSIwIiB4PSIwIiBpZD0idGV4dC1lbnRpdHktUkVWSUVXUy04NmI5MGZiZi1mN2I2LTU5ZGYtOTM2NC1iZjliZmUwNWNhNTctYXR0ci0yLWtleSIgY2xhc3M9ImVyIGVudGl0eUxhYmVsIj5GSzwvdGV4dD48cmVjdCBoZWlnaHQ9IjIyIiB3aWR0aD0iNjEuOTMwODQ3MTY3OTY4NzUiIHk9IjQ2IiB4PSIxNDAuNDA3NDU1NDQ0MzM1OTQiIGNsYXNzPSJlciBhdHRyaWJ1dGVCb3hFdmVuIj48L3JlY3Q+PHRleHQgc3R5bGU9ImRvbWluYW50LWJhc2VsaW5lOiBtaWRkbGU7IGZvbnQtc2l6ZTogMTAuMnB4OyIgdHJhbnNmb3JtPSJ0cmFuc2xhdGUoMTQ1LjQwNzQ1NTQ0NDMzNTk0LDU3KSIgeT0iMCIgeD0iMCIgaWQ9InRleHQtZW50aXR5LVJFVklFV1MtODZiOTBmYmYtZjdiNi01OWRmLTkzNjQtYmY5YmZlMDVjYTU3LWF0dHItMi1jb21tZW50IiBjbGFzcz0iZXIgZW50aXR5TGFiZWwiPjwvdGV4dD48cmVjdCBoZWlnaHQ9IjIyIiB3aWR0aD0iNTIuMDY4NDk2NzA0MTAxNTYiIHk9IjY4IiB4PSIwIiBjbGFzcz0iZXIgYXR0cmlidXRlQm94T2RkIj48L3JlY3Q+PHRleHQgc3R5bGU9ImRvbWluYW50LWJhc2VsaW5lOiBtaWRkbGU7IGZvbnQtc2l6ZTogMTAuMnB4OyIgdHJhbnNmb3JtPSJ0cmFuc2xhdGUoNSw3OSkiIHk9IjAiIHg9IjAiIGlkPSJ0ZXh0LWVudGl0eS1SRVZJRVdTLTg2YjkwZmJmLWY3YjYtNTlkZi05MzY0LWJmOWJmZTA1Y2E1Ny1hdHRyLTMtdHlwZSIgY2xhc3M9ImVyIGVudGl0eUxhYmVsIj5pbnQ8L3RleHQ+PHJlY3QgaGVpZ2h0PSIyMiIgd2lkdGg9IjY1LjY1MTI3NTYzNDc2NTYyIiB5PSI2OCIgeD0iNTIuMDY4NDk2NzA0MTAxNTYiIGNsYXNzPSJlciBhdHRyaWJ1dGVCb3hPZGQiPjwvcmVjdD48dGV4dCBzdHlsZT0iZG9taW5hbnQtYmFzZWxpbmU6IG1pZGRsZTsgZm9udC1zaXplOiAxMC4ycHg7IiB0cmFuc2Zvcm09InRyYW5zbGF0ZSg1Ny4wNjg0OTY3MDQxMDE1Niw3OSkiIHk9IjAiIHg9IjAiIGlkPSJ0ZXh0LWVudGl0eS1SRVZJRVdTLTg2YjkwZmJmLWY3YjYtNTlkZi05MzY0LWJmOWJmZTA1Y2E1Ny1hdHRyLTMtbmFtZSIgY2xhc3M9ImVyIGVudGl0eUxhYmVsIj51c2VyX2lkPC90ZXh0PjxyZWN0IGhlaWdodD0iMjIiIHdpZHRoPSIyMi42ODc2ODMxMDU0Njg3NSIgeT0iNjgiIHg9IjExNy43MTk3NzIzMzg4NjcxOSIgY2xhc3M9ImVyIGF0dHJpYnV0ZUJveE9kZCI+PC9yZWN0Pjx0ZXh0IHN0eWxlPSJkb21pbmFudC1iYXNlbGluZTogbWlkZGxlOyBmb250LXNpemU6IDEwLjJweDsiIHRyYW5zZm9ybT0idHJhbnNsYXRlKDEyMi43MTk3NzIzMzg4NjcxOSw3OSkiIHk9IjAiIHg9IjAiIGlkPSJ0ZXh0LWVudGl0eS1SRVZJRVdTLTg2YjkwZmJmLWY3YjYtNTlkZi05MzY0LWJmOWJmZTA1Y2E1Ny1hdHRyLTMta2V5IiBjbGFzcz0iZXIgZW50aXR5TGFiZWwiPkZLPC90ZXh0PjxyZWN0IGhlaWdodD0iMjIiIHdpZHRoPSI2MS45MzA4NDcxNjc5Njg3NSIgeT0iNjgiIHg9IjE0MC40MDc0NTU0NDQzMzU5NCIgY2xhc3M9ImVyIGF0dHJpYnV0ZUJveE9kZCI+PC9yZWN0Pjx0ZXh0IHN0eWxlPSJkb21pbmFudC1iYXNlbGluZTogbWlkZGxlOyBmb250LXNpemU6IDEwLjJweDsiIHRyYW5zZm9ybT0idHJhbnNsYXRlKDE0NS40MDc0NTU0NDQzMzU5NCw3OSkiIHk9IjAiIHg9IjAiIGlkPSJ0ZXh0LWVudGl0eS1SRVZJRVdTLTg2YjkwZmJmLWY3YjYtNTlkZi05MzY0LWJmOWJmZTA1Y2E1Ny1hdHRyLTMtY29tbWVudCIgY2xhc3M9ImVyIGVudGl0eUxhYmVsIj48L3RleHQ+PHJlY3QgaGVpZ2h0PSIyMiIgd2lkdGg9IjUyLjA2ODQ5NjcwNDEwMTU2IiB5PSI5MCIgeD0iMCIgY2xhc3M9ImVyIGF0dHJpYnV0ZUJveEV2ZW4iPjwvcmVjdD48dGV4dCBzdHlsZT0iZG9taW5hbnQtYmFzZWxpbmU6IG1pZGRsZTsgZm9udC1zaXplOiAxMC4ycHg7IiB0cmFuc2Zvcm09InRyYW5zbGF0ZSg1LDEwMSkiIHk9IjAiIHg9IjAiIGlkPSJ0ZXh0LWVudGl0eS1SRVZJRVdTLTg2YjkwZmJmLWY3YjYtNTlkZi05MzY0LWJmOWJmZTA1Y2E1Ny1hdHRyLTQtdHlwZSIgY2xhc3M9ImVyIGVudGl0eUxhYmVsIj5pbnQ8L3RleHQ+PHJlY3QgaGVpZ2h0PSIyMiIgd2lkdGg9IjY1LjY1MTI3NTYzNDc2NTYyIiB5PSI5MCIgeD0iNTIuMDY4NDk2NzA0MTAxNTYiIGNsYXNzPSJlciBhdHRyaWJ1dGVCb3hFdmVuIj48L3JlY3Q+PHRleHQgc3R5bGU9ImRvbWluYW50LWJhc2VsaW5lOiBtaWRkbGU7IGZvbnQtc2l6ZTogMTAuMnB4OyIgdHJhbnNmb3JtPSJ0cmFuc2xhdGUoNTcuMDY4NDk2NzA0MTAxNTYsMTAxKSIgeT0iMCIgeD0iMCIgaWQ9InRleHQtZW50aXR5LVJFVklFV1MtODZiOTBmYmYtZjdiNi01OWRmLTkzNjQtYmY5YmZlMDVjYTU3LWF0dHItNC1uYW1lIiBjbGFzcz0iZXIgZW50aXR5TGFiZWwiPnJhdGluZzwvdGV4dD48cmVjdCBoZWlnaHQ9IjIyIiB3aWR0aD0iMjIuNjg3NjgzMTA1NDY4NzUiIHk9IjkwIiB4PSIxMTcuNzE5NzcyMzM4ODY3MTkiIGNsYXNzPSJlciBhdHRyaWJ1dGVCb3hFdmVuIj48L3JlY3Q+PHRleHQgc3R5bGU9ImRvbWluYW50LWJhc2VsaW5lOiBtaWRkbGU7IGZvbnQtc2l6ZTogMTAuMnB4OyIgdHJhbnNmb3JtPSJ0cmFuc2xhdGUoMTIyLjcxOTc3MjMzODg2NzE5LDEwMSkiIHk9IjAiIHg9IjAiIGlkPSJ0ZXh0LWVudGl0eS1SRVZJRVdTLTg2YjkwZmJmLWY3YjYtNTlkZi05MzY0LWJmOWJmZTA1Y2E1Ny1hdHRyLTQta2V5IiBjbGFzcz0iZXIgZW50aXR5TGFiZWwiPjwvdGV4dD48cmVjdCBoZWlnaHQ9IjIyIiB3aWR0aD0iNjEuOTMwODQ3MTY3OTY4NzUiIHk9IjkwIiB4PSIxNDAuNDA3NDU1NDQ0MzM1OTQiIGNsYXNzPSJlciBhdHRyaWJ1dGVCb3hFdmVuIj48L3JlY3Q+PHRleHQgc3R5bGU9ImRvbWluYW50LWJhc2VsaW5lOiBtaWRkbGU7IGZvbnQtc2l6ZTogMTAuMnB4OyIgdHJhbnNmb3JtPSJ0cmFuc2xhdGUoMTQ1LjQwNzQ1NTQ0NDMzNTk0LDEwMSkiIHk9IjAiIHg9IjAiIGlkPSJ0ZXh0LWVudGl0eS1SRVZJRVdTLTg2YjkwZmJmLWY3YjYtNTlkZi05MzY0LWJmOWJmZTA1Y2E1Ny1hdHRyLTQtY29tbWVudCIgY2xhc3M9ImVyIGVudGl0eUxhYmVsIj4xIHRvIDUgc3RhcnM8L3RleHQ+PHJlY3QgaGVpZ2h0PSIyMiIgd2lkdGg9IjUyLjA2ODQ5NjcwNDEwMTU2IiB5PSIxMTIiIHg9IjAiIGNsYXNzPSJlciBhdHRyaWJ1dGVCb3hPZGQiPjwvcmVjdD48dGV4dCBzdHlsZT0iZG9taW5hbnQtYmFzZWxpbmU6IG1pZGRsZTsgZm9udC1zaXplOiAxMC4ycHg7IiB0cmFuc2Zvcm09InRyYW5zbGF0ZSg1LDEyMykiIHk9IjAiIHg9IjAiIGlkPSJ0ZXh0LWVudGl0eS1SRVZJRVdTLTg2YjkwZmJmLWY3YjYtNTlkZi05MzY0LWJmOWJmZTA1Y2E1Ny1hdHRyLTUtdHlwZSIgY2xhc3M9ImVyIGVudGl0eUxhYmVsIj5zdHJpbmc8L3RleHQ+PHJlY3QgaGVpZ2h0PSIyMiIgd2lkdGg9IjY1LjY1MTI3NTYzNDc2NTYyIiB5PSIxMTIiIHg9IjUyLjA2ODQ5NjcwNDEwMTU2IiBjbGFzcz0iZXIgYXR0cmlidXRlQm94T2RkIj48L3JlY3Q+PHRleHQgc3R5bGU9ImRvbWluYW50LWJhc2VsaW5lOiBtaWRkbGU7IGZvbnQtc2l6ZTogMTAuMnB4OyIgdHJhbnNmb3JtPSJ0cmFuc2xhdGUoNTcuMDY4NDk2NzA0MTAxNTYsMTIzKSIgeT0iMCIgeD0iMCIgaWQ9InRleHQtZW50aXR5LVJFVklFV1MtODZiOTBmYmYtZjdiNi01OWRmLTkzNjQtYmY5YmZlMDVjYTU3LWF0dHItNS1uYW1lIiBjbGFzcz0iZXIgZW50aXR5TGFiZWwiPnJldmlld190ZXh0PC90ZXh0PjxyZWN0IGhlaWdodD0iMjIiIHdpZHRoPSIyMi42ODc2ODMxMDU0Njg3NSIgeT0iMTEyIiB4PSIxMTcuNzE5NzcyMzM4ODY3MTkiIGNsYXNzPSJlciBhdHRyaWJ1dGVCb3hPZGQiPjwvcmVjdD48dGV4dCBzdHlsZT0iZG9taW5hbnQtYmFzZWxpbmU6IG1pZGRsZTsgZm9udC1zaXplOiAxMC4ycHg7IiB0cmFuc2Zvcm09InRyYW5zbGF0ZSgxMjIuNzE5NzcyMzM4ODY3MTksMTIzKSIgeT0iMCIgeD0iMCIgaWQ9InRleHQtZW50aXR5LVJFVklFV1MtODZiOTBmYmYtZjdiNi01OWRmLTkzNjQtYmY5YmZlMDVjYTU3LWF0dHItNS1rZXkiIGNsYXNzPSJlciBlbnRpdHlMYWJlbCI+PC90ZXh0PjxyZWN0IGhlaWdodD0iMjIiIHdpZHRoPSI2MS45MzA4NDcxNjc5Njg3NSIgeT0iMTEyIiB4PSIxNDAuNDA3NDU1NDQ0MzM1OTQiIGNsYXNzPSJlciBhdHRyaWJ1dGVCb3hPZGQiPjwvcmVjdD48dGV4dCBzdHlsZT0iZG9taW5hbnQtYmFzZWxpbmU6IG1pZGRsZTsgZm9udC1zaXplOiAxMC4ycHg7IiB0cmFuc2Zvcm09InRyYW5zbGF0ZSgxNDUuNDA3NDU1NDQ0MzM1OTQsMTIzKSIgeT0iMCIgeD0iMCIgaWQ9InRleHQtZW50aXR5LVJFVklFV1MtODZiOTBmYmYtZjdiNi01OWRmLTkzNjQtYmY5YmZlMDVjYTU3LWF0dHItNS1jb21tZW50IiBjbGFzcz0iZXIgZW50aXR5TGFiZWwiPjwvdGV4dD48cmVjdCBoZWlnaHQ9IjIyIiB3aWR0aD0iNTIuMDY4NDk2NzA0MTAxNTYiIHk9IjEzNCIgeD0iMCIgY2xhc3M9ImVyIGF0dHJpYnV0ZUJveEV2ZW4iPjwvcmVjdD48dGV4dCBzdHlsZT0iZG9taW5hbnQtYmFzZWxpbmU6IG1pZGRsZTsgZm9udC1zaXplOiAxMC4ycHg7IiB0cmFuc2Zvcm09InRyYW5zbGF0ZSg1LDE0NSkiIHk9IjAiIHg9IjAiIGlkPSJ0ZXh0LWVudGl0eS1SRVZJRVdTLTg2YjkwZmJmLWY3YjYtNTlkZi05MzY0LWJmOWJmZTA1Y2E1Ny1hdHRyLTYtdHlwZSIgY2xhc3M9ImVyIGVudGl0eUxhYmVsIj5kYXRldGltZTwvdGV4dD48cmVjdCBoZWlnaHQ9IjIyIiB3aWR0aD0iNjUuNjUxMjc1NjM0NzY1NjIiIHk9IjEzNCIgeD0iNTIuMDY4NDk2NzA0MTAxNTYiIGNsYXNzPSJlciBhdHRyaWJ1dGVCb3hFdmVuIj48L3JlY3Q+PHRleHQgc3R5bGU9ImRvbWluYW50LWJhc2VsaW5lOiBtaWRkbGU7IGZvbnQtc2l6ZTogMTAuMnB4OyIgdHJhbnNmb3JtPSJ0cmFuc2xhdGUoNTcuMDY4NDk2NzA0MTAxNTYsMTQ1KSIgeT0iMCIgeD0iMCIgaWQ9InRleHQtZW50aXR5LVJFVklFV1MtODZiOTBmYmYtZjdiNi01OWRmLTkzNjQtYmY5YmZlMDVjYTU3LWF0dHItNi1uYW1lIiBjbGFzcz0iZXIgZW50aXR5TGFiZWwiPmNyZWF0ZWRfYXQ8L3RleHQ+PHJlY3QgaGVpZ2h0PSIyMiIgd2lkdGg9IjIyLjY4NzY4MzEwNTQ2ODc1IiB5PSIxMzQiIHg9IjExNy43MTk3NzIzMzg4NjcxOSIgY2xhc3M9ImVyIGF0dHJpYnV0ZUJveEV2ZW4iPjwvcmVjdD48dGV4dCBzdHlsZT0iZG9taW5hbnQtYmFzZWxpbmU6IG1pZGRsZTsgZm9udC1zaXplOiAxMC4ycHg7IiB0cmFuc2Zvcm09InRyYW5zbGF0ZSgxMjIuNzE5NzcyMzM4ODY3MTksMTQ1KSIgeT0iMCIgeD0iMCIgaWQ9InRleHQtZW50aXR5LVJFVklFV1MtODZiOTBmYmYtZjdiNi01OWRmLTkzNjQtYmY5YmZlMDVjYTU3LWF0dHItNi1rZXkiIGNsYXNzPSJlciBlbnRpdHlMYWJlbCI+PC90ZXh0PjxyZWN0IGhlaWdodD0iMjIiIHdpZHRoPSI2MS45MzA4NDcxNjc5Njg3NSIgeT0iMTM0IiB4PSIxNDAuNDA3NDU1NDQ0MzM1OTQiIGNsYXNzPSJlciBhdHRyaWJ1dGVCb3hFdmVuIj48L3JlY3Q+PHRleHQgc3R5bGU9ImRvbWluYW50LWJhc2VsaW5lOiBtaWRkbGU7IGZvbnQtc2l6ZTogMTAuMnB4OyIgdHJhbnNmb3JtPSJ0cmFuc2xhdGUoMTQ1LjQwNzQ1NTQ0NDMzNTk0LDE0NSkiIHk9IjAiIHg9IjAiIGlkPSJ0ZXh0LWVudGl0eS1SRVZJRVdTLTg2YjkwZmJmLWY3YjYtNTlkZi05MzY0LWJmOWJmZTA1Y2E1Ny1hdHRyLTYtY29tbWVudCIgY2xhc3M9ImVyIGVudGl0eUxhYmVsIj48L3RleHQ+PHJlY3QgaGVpZ2h0PSIyMiIgd2lkdGg9IjUyLjA2ODQ5NjcwNDEwMTU2IiB5PSIxNTYiIHg9IjAiIGNsYXNzPSJlciBhdHRyaWJ1dGVCb3hPZGQiPjwvcmVjdD48dGV4dCBzdHlsZT0iZG9taW5hbnQtYmFzZWxpbmU6IG1pZGRsZTsgZm9udC1zaXplOiAxMC4ycHg7IiB0cmFuc2Zvcm09InRyYW5zbGF0ZSg1LDE2NykiIHk9IjAiIHg9IjAiIGlkPSJ0ZXh0LWVudGl0eS1SRVZJRVdTLTg2YjkwZmJmLWY3YjYtNTlkZi05MzY0LWJmOWJmZTA1Y2E1Ny1hdHRyLTctdHlwZSIgY2xhc3M9ImVyIGVudGl0eUxhYmVsIj5kYXRldGltZTwvdGV4dD48cmVjdCBoZWlnaHQ9IjIyIiB3aWR0aD0iNjUuNjUxMjc1NjM0NzY1NjIiIHk9IjE1NiIgeD0iNTIuMDY4NDk2NzA0MTAxNTYiIGNsYXNzPSJlciBhdHRyaWJ1dGVCb3hPZGQiPjwvcmVjdD48dGV4dCBzdHlsZT0iZG9taW5hbnQtYmFzZWxpbmU6IG1pZGRsZTsgZm9udC1zaXplOiAxMC4ycHg7IiB0cmFuc2Zvcm09InRyYW5zbGF0ZSg1Ny4wNjg0OTY3MDQxMDE1NiwxNjcpIiB5PSIwIiB4PSIwIiBpZD0idGV4dC1lbnRpdHktUkVWSUVXUy04NmI5MGZiZi1mN2I2LTU5ZGYtOTM2NC1iZjliZmUwNWNhNTctYXR0ci03LW5hbWUiIGNsYXNzPSJlciBlbnRpdHlMYWJlbCI+dXBkYXRlZF9hdDwvdGV4dD48cmVjdCBoZWlnaHQ9IjIyIiB3aWR0aD0iMjIuNjg3NjgzMTA1NDY4NzUiIHk9IjE1NiIgeD0iMTE3LjcxOTc3MjMzODg2NzE5IiBjbGFzcz0iZXIgYXR0cmlidXRlQm94T2RkIj48L3JlY3Q+PHRleHQgc3R5bGU9ImRvbWluYW50LWJhc2VsaW5lOiBtaWRkbGU7IGZvbnQtc2l6ZTogMTAuMnB4OyIgdHJhbnNmb3JtPSJ0cmFuc2xhdGUoMTIyLjcxOTc3MjMzODg2NzE5LDE2NykiIHk9IjAiIHg9IjAiIGlkPSJ0ZXh0LWVudGl0eS1SRVZJRVdTLTg2YjkwZmJmLWY3YjYtNTlkZi05MzY0LWJmOWJmZTA1Y2E1Ny1hdHRyLTcta2V5IiBjbGFzcz0iZXIgZW50aXR5TGFiZWwiPjwvdGV4dD48cmVjdCBoZWlnaHQ9IjIyIiB3aWR0aD0iNjEuOTMwODQ3MTY3OTY4NzUiIHk9IjE1NiIgeD0iMTQwLjQwNzQ1NTQ0NDMzNTk0IiBjbGFzcz0iZXIgYXR0cmlidXRlQm94T2RkIj48L3JlY3Q+PHRleHQgc3R5bGU9ImRvbWluYW50LWJhc2VsaW5lOiBtaWRkbGU7IGZvbnQtc2l6ZTogMTAuMnB4OyIgdHJhbnNmb3JtPSJ0cmFuc2xhdGUoMTQ1LjQwNzQ1NTQ0NDMzNTk0LDE2NykiIHk9IjAiIHg9IjAiIGlkPSJ0ZXh0LWVudGl0eS1SRVZJRVdTLTg2YjkwZmJmLWY3YjYtNTlkZi05MzY0LWJmOWJmZTA1Y2E1Ny1hdHRyLTctY29tbWVudCIgY2xhc3M9ImVyIGVudGl0eUxhYmVsIj48L3RleHQ+PC9nPjxnIHRyYW5zZm9ybT0idHJhbnNsYXRlKDE0MzEuNjMxNTM4MzkxMTEzMyw5MjAgKSIgaWQ9ImVudGl0eS1SRVZJRVdWT1RFUy1mY2U2MDBlOC00ZDAzLTU4NWItYTI4MC05N2VlMGYyZjcyMDYiPjxyZWN0IGhlaWdodD0iMTM0IiB3aWR0aD0iMjM5LjcyMjIxMzc0NTExNzIiIHk9IjAiIHg9IjAiIGNsYXNzPSJlciBlbnRpdHlCb3giPjwvcmVjdD48dGV4dCBzdHlsZT0iZG9taW5hbnQtYmFzZWxpbmU6IG1pZGRsZTsgdGV4dC1hbmNob3I6IG1pZGRsZTsgZm9udC1zaXplOiAxMnB4OyIgdHJhbnNmb3JtPSJ0cmFuc2xhdGUoMTE5Ljg2MTEwNjg3MjU1ODYsMTIpIiB5PSIwIiB4PSIwIiBpZD0idGV4dC1lbnRpdHktUkVWSUVXVk9URVMtZmNlNjAwZTgtNGQwMy01ODViLWEyODAtOTdlZTBmMmY3MjA2IiBjbGFzcz0iZXIgZW50aXR5TGFiZWwiPlJFVklFV19WT1RFUzwvdGV4dD48cmVjdCBoZWlnaHQ9IjIyIiB3aWR0aD0iNTIuMDY4NDk2NzA0MTAxNTYiIHk9IjI0IiB4PSIwIiBjbGFzcz0iZXIgYXR0cmlidXRlQm94T2RkIj48L3JlY3Q+PHRleHQgc3R5bGU9ImRvbWluYW50LWJhc2VsaW5lOiBtaWRkbGU7IGZvbnQtc2l6ZTogMTAuMnB4OyIgdHJhbnNmb3JtPSJ0cmFuc2xhdGUoNSwzNSkiIHk9IjAiIHg9IjAiIGlkPSJ0ZXh0LWVudGl0eS1SRVZJRVdWT1RFUy1mY2U2MDBlOC00ZDAzLTU4NWItYTI4MC05N2VlMGYyZjcyMDYtYXR0ci0xLXR5cGUiIGNsYXNzPSJlciBlbnRpdHlMYWJlbCI+aW50PC90ZXh0PjxyZWN0IGhlaWdodD0iMjIiIHdpZHRoPSI2MC45MzQ3ODM5MzU1NDY4NzUiIHk9IjI0IiB4PSI1Mi4wNjg0OTY3MDQxMDE1NiIgY2xhc3M9ImVyIGF0dHJpYnV0ZUJveE9kZCI+PC9yZWN0Pjx0ZXh0IHN0eWxlPSJkb21pbmFudC1iYXNlbGluZTogbWlkZGxlOyBmb250LXNpemU6IDEwLjJweDsiIHRyYW5zZm9ybT0idHJhbnNsYXRlKDU3LjA2ODQ5NjcwNDEwMTU2LDM1KSIgeT0iMCIgeD0iMCIgaWQ9InRleHQtZW50aXR5LVJFVklFV1ZPVEVTLWZjZTYwMGU4LTRkMDMtNTg1Yi1hMjgwLTk3ZWUwZjJmNzIwNi1hdHRyLTEtbmFtZSIgY2xhc3M9ImVyIGVudGl0eUxhYmVsIj5pZDwvdGV4dD48cmVjdCBoZWlnaHQ9IjIyIiB3aWR0aD0iMjIuNjg3NjgzMTA1NDY4NzUiIHk9IjI0IiB4PSIxMTMuMDAzMjgwNjM5NjQ4NDQiIGNsYXNzPSJlciBhdHRyaWJ1dGVCb3hPZGQiPjwvcmVjdD48dGV4dCBzdHlsZT0iZG9taW5hbnQtYmFzZWxpbmU6IG1pZGRsZTsgZm9udC1zaXplOiAxMC4ycHg7IiB0cmFuc2Zvcm09InRyYW5zbGF0ZSgxMTguMDAzMjgwNjM5NjQ4NDQsMzUpIiB5PSIwIiB4PSIwIiBpZD0idGV4dC1lbnRpdHktUkVWSUVXVk9URVMtZmNlNjAwZTgtNGQwMy01ODViLWEyODAtOTdlZTBmMmY3MjA2LWF0dHItMS1rZXkiIGNsYXNzPSJlciBlbnRpdHlMYWJlbCI+UEs8L3RleHQ+PHJlY3QgaGVpZ2h0PSIyMiIgd2lkdGg9IjEwNC4wMzEyNSIgeT0iMjQiIHg9IjEzNS42OTA5NjM3NDUxMTcyIiBjbGFzcz0iZXIgYXR0cmlidXRlQm94T2RkIj48L3JlY3Q+PHRleHQgc3R5bGU9ImRvbWluYW50LWJhc2VsaW5lOiBtaWRkbGU7IGZvbnQtc2l6ZTogMTAuMnB4OyIgdHJhbnNmb3JtPSJ0cmFuc2xhdGUoMTQwLjY5MDk2Mzc0NTExNzIsMzUpIiB5PSIwIiB4PSIwIiBpZD0idGV4dC1lbnRpdHktUkVWSUVXVk9URVMtZmNlNjAwZTgtNGQwMy01ODViLWEyODAtOTdlZTBmMmY3MjA2LWF0dHItMS1jb21tZW50IiBjbGFzcz0iZXIgZW50aXR5TGFiZWwiPjwvdGV4dD48cmVjdCBoZWlnaHQ9IjIyIiB3aWR0aD0iNTIuMDY4NDk2NzA0MTAxNTYiIHk9IjQ2IiB4PSIwIiBjbGFzcz0iZXIgYXR0cmlidXRlQm94RXZlbiI+PC9yZWN0Pjx0ZXh0IHN0eWxlPSJkb21pbmFudC1iYXNlbGluZTogbWlkZGxlOyBmb250LXNpemU6IDEwLjJweDsiIHRyYW5zZm9ybT0idHJhbnNsYXRlKDUsNTcpIiB5PSIwIiB4PSIwIiBpZD0idGV4dC1lbnRpdHktUkVWSUVXVk9URVMtZmNlNjAwZTgtNGQwMy01ODViLWEyODAtOTdlZTBmMmY3MjA2LWF0dHItMi10eXBlIiBjbGFzcz0iZXIgZW50aXR5TGFiZWwiPmludDwvdGV4dD48cmVjdCBoZWlnaHQ9IjIyIiB3aWR0aD0iNjAuOTM0NzgzOTM1NTQ2ODc1IiB5PSI0NiIgeD0iNTIuMDY4NDk2NzA0MTAxNTYiIGNsYXNzPSJlciBhdHRyaWJ1dGVCb3hFdmVuIj48L3JlY3Q+PHRleHQgc3R5bGU9ImRvbWluYW50LWJhc2VsaW5lOiBtaWRkbGU7IGZvbnQtc2l6ZTogMTAuMnB4OyIgdHJhbnNmb3JtPSJ0cmFuc2xhdGUoNTcuMDY4NDk2NzA0MTAxNTYsNTcpIiB5PSIwIiB4PSIwIiBpZD0idGV4dC1lbnRpdHktUkVWSUVXVk9URVMtZmNlNjAwZTgtNGQwMy01ODViLWEyODAtOTdlZTBmMmY3MjA2LWF0dHItMi1uYW1lIiBjbGFzcz0iZXIgZW50aXR5TGFiZWwiPnJldmlld19pZDwvdGV4dD48cmVjdCBoZWlnaHQ9IjIyIiB3aWR0aD0iMjIuNjg3NjgzMTA1NDY4NzUiIHk9IjQ2IiB4PSIxMTMuMDAzMjgwNjM5NjQ4NDQiIGNsYXNzPSJlciBhdHRyaWJ1dGVCb3hFdmVuIj48L3JlY3Q+PHRleHQgc3R5bGU9ImRvbWluYW50LWJhc2VsaW5lOiBtaWRkbGU7IGZvbnQtc2l6ZTogMTAuMnB4OyIgdHJhbnNmb3JtPSJ0cmFuc2xhdGUoMTE4LjAwMzI4MDYzOTY0ODQ0LDU3KSIgeT0iMCIgeD0iMCIgaWQ9InRleHQtZW50aXR5LVJFVklFV1ZPVEVTLWZjZTYwMGU4LTRkMDMtNTg1Yi1hMjgwLTk3ZWUwZjJmNzIwNi1hdHRyLTIta2V5IiBjbGFzcz0iZXIgZW50aXR5TGFiZWwiPkZLPC90ZXh0PjxyZWN0IGhlaWdodD0iMjIiIHdpZHRoPSIxMDQuMDMxMjUiIHk9IjQ2IiB4PSIxMzUuNjkwOTYzNzQ1MTE3MiIgY2xhc3M9ImVyIGF0dHJpYnV0ZUJveEV2ZW4iPjwvcmVjdD48dGV4dCBzdHlsZT0iZG9taW5hbnQtYmFzZWxpbmU6IG1pZGRsZTsgZm9udC1zaXplOiAxMC4ycHg7IiB0cmFuc2Zvcm09InRyYW5zbGF0ZSgxNDAuNjkwOTYzNzQ1MTE3Miw1NykiIHk9IjAiIHg9IjAiIGlkPSJ0ZXh0LWVudGl0eS1SRVZJRVdWT1RFUy1mY2U2MDBlOC00ZDAzLTU4NWItYTI4MC05N2VlMGYyZjcyMDYtYXR0ci0yLWNvbW1lbnQiIGNsYXNzPSJlciBlbnRpdHlMYWJlbCI+PC90ZXh0PjxyZWN0IGhlaWdodD0iMjIiIHdpZHRoPSI1Mi4wNjg0OTY3MDQxMDE1NiIgeT0iNjgiIHg9IjAiIGNsYXNzPSJlciBhdHRyaWJ1dGVCb3hPZGQiPjwvcmVjdD48dGV4dCBzdHlsZT0iZG9taW5hbnQtYmFzZWxpbmU6IG1pZGRsZTsgZm9udC1zaXplOiAxMC4ycHg7IiB0cmFuc2Zvcm09InRyYW5zbGF0ZSg1LDc5KSIgeT0iMCIgeD0iMCIgaWQ9InRleHQtZW50aXR5LVJFVklFV1ZPVEVTLWZjZTYwMGU4LTRkMDMtNTg1Yi1hMjgwLTk3ZWUwZjJmNzIwNi1hdHRyLTMtdHlwZSIgY2xhc3M9ImVyIGVudGl0eUxhYmVsIj5pbnQ8L3RleHQ+PHJlY3QgaGVpZ2h0PSIyMiIgd2lkdGg9IjYwLjkzNDc4MzkzNTU0Njg3NSIgeT0iNjgiIHg9IjUyLjA2ODQ5NjcwNDEwMTU2IiBjbGFzcz0iZXIgYXR0cmlidXRlQm94T2RkIj48L3JlY3Q+PHRleHQgc3R5bGU9ImRvbWluYW50LWJhc2VsaW5lOiBtaWRkbGU7IGZvbnQtc2l6ZTogMTAuMnB4OyIgdHJhbnNmb3JtPSJ0cmFuc2xhdGUoNTcuMDY4NDk2NzA0MTAxNTYsNzkpIiB5PSIwIiB4PSIwIiBpZD0idGV4dC1lbnRpdHktUkVWSUVXVk9URVMtZmNlNjAwZTgtNGQwMy01ODViLWEyODAtOTdlZTBmMmY3MjA2LWF0dHItMy1uYW1lIiBjbGFzcz0iZXIgZW50aXR5TGFiZWwiPnVzZXJfaWQ8L3RleHQ+PHJlY3QgaGVpZ2h0PSIyMiIgd2lkdGg9IjIyLjY4NzY4MzEwNTQ2ODc1IiB5PSI2OCIgeD0iMTEzLjAwMzI4MDYzOTY0ODQ0IiBjbGFzcz0iZXIgYXR0cmlidXRlQm94T2RkIj48L3JlY3Q+PHRleHQgc3R5bGU9ImRvbWluYW50LWJhc2VsaW5lOiBtaWRkbGU7IGZvbnQtc2l6ZTogMTAuMnB4OyIgdHJhbnNmb3JtPSJ0cmFuc2xhdGUoMTE4LjAwMzI4MDYzOTY0ODQ0LDc5KSIgeT0iMCIgeD0iMCIgaWQ9InRleHQtZW50aXR5LVJFVklFV1ZPVEVTLWZjZTYwMGU4LTRkMDMtNTg1Yi1hMjgwLTk3ZWUwZjJmNzIwNi1hdHRyLTMta2V5IiBjbGFzcz0iZXIgZW50aXR5TGFiZWwiPkZLPC90ZXh0PjxyZWN0IGhlaWdodD0iMjIiIHdpZHRoPSIxMDQuMDMxMjUiIHk9IjY4IiB4PSIxMzUuNjkwOTYzNzQ1MTE3MiIgY2xhc3M9ImVyIGF0dHJpYnV0ZUJveE9kZCI+PC9yZWN0Pjx0ZXh0IHN0eWxlPSJkb21pbmFudC1iYXNlbGluZTogbWlkZGxlOyBmb250LXNpemU6IDEwLjJweDsiIHRyYW5zZm9ybT0idHJhbnNsYXRlKDE0MC42OTA5NjM3NDUxMTcyLDc5KSIgeT0iMCIgeD0iMCIgaWQ9InRleHQtZW50aXR5LVJFVklFV1ZPVEVTLWZjZTYwMGU4LTRkMDMtNTg1Yi1hMjgwLTk3ZWUwZjJmNzIwNi1hdHRyLTMtY29tbWVudCIgY2xhc3M9ImVyIGVudGl0eUxhYmVsIj48L3RleHQ+PHJlY3QgaGVpZ2h0PSIyMiIgd2lkdGg9IjUyLjA2ODQ5NjcwNDEwMTU2IiB5PSI5MCIgeD0iMCIgY2xhc3M9ImVyIGF0dHJpYnV0ZUJveEV2ZW4iPjwvcmVjdD48dGV4dCBzdHlsZT0iZG9taW5hbnQtYmFzZWxpbmU6IG1pZGRsZTsgZm9udC1zaXplOiAxMC4ycHg7IiB0cmFuc2Zvcm09InRyYW5zbGF0ZSg1LDEwMSkiIHk9IjAiIHg9IjAiIGlkPSJ0ZXh0LWVudGl0eS1SRVZJRVdWT1RFUy1mY2U2MDBlOC00ZDAzLTU4NWItYTI4MC05N2VlMGYyZjcyMDYtYXR0ci00LXR5cGUiIGNsYXNzPSJlciBlbnRpdHlMYWJlbCI+c3RyaW5nPC90ZXh0PjxyZWN0IGhlaWdodD0iMjIiIHdpZHRoPSI2MC45MzQ3ODM5MzU1NDY4NzUiIHk9IjkwIiB4PSI1Mi4wNjg0OTY3MDQxMDE1NiIgY2xhc3M9ImVyIGF0dHJpYnV0ZUJveEV2ZW4iPjwvcmVjdD48dGV4dCBzdHlsZT0iZG9taW5hbnQtYmFzZWxpbmU6IG1pZGRsZTsgZm9udC1zaXplOiAxMC4ycHg7IiB0cmFuc2Zvcm09InRyYW5zbGF0ZSg1Ny4wNjg0OTY3MDQxMDE1NiwxMDEpIiB5PSIwIiB4PSIwIiBpZD0idGV4dC1lbnRpdHktUkVWSUVXVk9URVMtZmNlNjAwZTgtNGQwMy01ODViLWEyODAtOTdlZTBmMmY3MjA2LWF0dHItNC1uYW1lIiBjbGFzcz0iZXIgZW50aXR5TGFiZWwiPnZvdGVfdHlwZTwvdGV4dD48cmVjdCBoZWlnaHQ9IjIyIiB3aWR0aD0iMjIuNjg3NjgzMTA1NDY4NzUiIHk9IjkwIiB4PSIxMTMuMDAzMjgwNjM5NjQ4NDQiIGNsYXNzPSJlciBhdHRyaWJ1dGVCb3hFdmVuIj48L3JlY3Q+PHRleHQgc3R5bGU9ImRvbWluYW50LWJhc2VsaW5lOiBtaWRkbGU7IGZvbnQtc2l6ZTogMTAuMnB4OyIgdHJhbnNmb3JtPSJ0cmFuc2xhdGUoMTE4LjAwMzI4MDYzOTY0ODQ0LDEwMSkiIHk9IjAiIHg9IjAiIGlkPSJ0ZXh0LWVudGl0eS1SRVZJRVdWT1RFUy1mY2U2MDBlOC00ZDAzLTU4NWItYTI4MC05N2VlMGYyZjcyMDYtYXR0ci00LWtleSIgY2xhc3M9ImVyIGVudGl0eUxhYmVsIj48L3RleHQ+PHJlY3QgaGVpZ2h0PSIyMiIgd2lkdGg9IjEwNC4wMzEyNSIgeT0iOTAiIHg9IjEzNS42OTA5NjM3NDUxMTcyIiBjbGFzcz0iZXIgYXR0cmlidXRlQm94RXZlbiI+PC9yZWN0Pjx0ZXh0IHN0eWxlPSJkb21pbmFudC1iYXNlbGluZTogbWlkZGxlOyBmb250LXNpemU6IDEwLjJweDsiIHRyYW5zZm9ybT0idHJhbnNsYXRlKDE0MC42OTA5NjM3NDUxMTcyLDEwMSkiIHk9IjAiIHg9IjAiIGlkPSJ0ZXh0LWVudGl0eS1SRVZJRVdWT1RFUy1mY2U2MDBlOC00ZDAzLTU4NWItYTI4MC05N2VlMGYyZjcyMDYtYXR0ci00LWNvbW1lbnQiIGNsYXNzPSJlciBlbnRpdHlMYWJlbCI+aGVscGZ1bCB8IG5vdCBoZWxwZnVsPC90ZXh0PjxyZWN0IGhlaWdodD0iMjIiIHdpZHRoPSI1Mi4wNjg0OTY3MDQxMDE1NiIgeT0iMTEyIiB4PSIwIiBjbGFzcz0iZXIgYXR0cmlidXRlQm94T2RkIj48L3JlY3Q+PHRleHQgc3R5bGU9ImRvbWluYW50LWJhc2VsaW5lOiBtaWRkbGU7IGZvbnQtc2l6ZTogMTAuMnB4OyIgdHJhbnNmb3JtPSJ0cmFuc2xhdGUoNSwxMjMpIiB5PSIwIiB4PSIwIiBpZD0idGV4dC1lbnRpdHktUkVWSUVXVk9URVMtZmNlNjAwZTgtNGQwMy01ODViLWEyODAtOTdlZTBmMmY3MjA2LWF0dHItNS10eXBlIiBjbGFzcz0iZXIgZW50aXR5TGFiZWwiPmRhdGV0aW1lPC90ZXh0PjxyZWN0IGhlaWdodD0iMjIiIHdpZHRoPSI2MC45MzQ3ODM5MzU1NDY4NzUiIHk9IjExMiIgeD0iNTIuMDY4NDk2NzA0MTAxNTYiIGNsYXNzPSJlciBhdHRyaWJ1dGVCb3hPZGQiPjwvcmVjdD48dGV4dCBzdHlsZT0iZG9taW5hbnQtYmFzZWxpbmU6IG1pZGRsZTsgZm9udC1zaXplOiAxMC4ycHg7IiB0cmFuc2Zvcm09InRyYW5zbGF0ZSg1Ny4wNjg0OTY3MDQxMDE1NiwxMjMpIiB5PSIwIiB4PSIwIiBpZD0idGV4dC1lbnRpdHktUkVWSUVXVk9URVMtZmNlNjAwZTgtNGQwMy01ODViLWEyODAtOTdlZTBmMmY3MjA2LWF0dHItNS1uYW1lIiBjbGFzcz0iZXIgZW50aXR5TGFiZWwiPmNyZWF0ZWRfYXQ8L3RleHQ+PHJlY3QgaGVpZ2h0PSIyMiIgd2lkdGg9IjIyLjY4NzY4MzEwNTQ2ODc1IiB5PSIxMTIiIHg9IjExMy4wMDMyODA2Mzk2NDg0NCIgY2xhc3M9ImVyIGF0dHJpYnV0ZUJveE9kZCI+PC9yZWN0Pjx0ZXh0IHN0eWxlPSJkb21pbmFudC1iYXNlbGluZTogbWlkZGxlOyBmb250LXNpemU6IDEwLjJweDsiIHRyYW5zZm9ybT0idHJhbnNsYXRlKDExOC4wMDMyODA2Mzk2NDg0NCwxMjMpIiB5PSIwIiB4PSIwIiBpZD0idGV4dC1lbnRpdHktUkVWSUVXVk9URVMtZmNlNjAwZTgtNGQwMy01ODViLWEyODAtOTdlZTBmMmY3MjA2LWF0dHItNS1rZXkiIGNsYXNzPSJlciBlbnRpdHlMYWJlbCI+PC90ZXh0PjxyZWN0IGhlaWdodD0iMjIiIHdpZHRoPSIxMDQuMDMxMjUiIHk9IjExMiIgeD0iMTM1LjY5MDk2Mzc0NTExNzIiIGNsYXNzPSJlciBhdHRyaWJ1dGVCb3hPZGQiPjwvcmVjdD48dGV4dCBzdHlsZT0iZG9taW5hbnQtYmFzZWxpbmU6IG1pZGRsZTsgZm9udC1zaXplOiAxMC4ycHg7IiB0cmFuc2Zvcm09InRyYW5zbGF0ZSgxNDAuNjkwOTYzNzQ1MTE3MiwxMjMpIiB5PSIwIiB4PSIwIiBpZD0idGV4dC1lbnRpdHktUkVWSUVXVk9URVMtZmNlNjAwZTgtNGQwMy01ODViLWEyODAtOTdlZTBmMmY3MjA2LWF0dHItNS1jb21tZW50IiBjbGFzcz0iZXIgZW50aXR5TGFiZWwiPjwvdGV4dD48L2c+PGcgdHJhbnNmb3JtPSJ0cmFuc2xhdGUoNjY2LjIyNzYyMjk4NTgzOTgsMzY0ICkiIGlkPSJlbnRpdHktU0hPUFBJTkdDQVJULTZlNGQxYTA0LTQwYmMtNWMxMC04YWMwLTlhZGE2ZWJiNWUxYyI+PHJlY3QgaGVpZ2h0PSIxMTIiIHdpZHRoPSIxNDEuMjc3OTY5MzYwMzUxNTYiIHk9IjAiIHg9IjAiIGNsYXNzPSJlciBlbnRpdHlCb3giPjwvcmVjdD48dGV4dCBzdHlsZT0iZG9taW5hbnQtYmFzZWxpbmU6IG1pZGRsZTsgdGV4dC1hbmNob3I6IG1pZGRsZTsgZm9udC1zaXplOiAxMnB4OyIgdHJhbnNmb3JtPSJ0cmFuc2xhdGUoNzAuNjM4OTg0NjgwMTc1NzgsMTIpIiB5PSIwIiB4PSIwIiBpZD0idGV4dC1lbnRpdHktU0hPUFBJTkdDQVJULTZlNGQxYTA0LTQwYmMtNWMxMC04YWMwLTlhZGE2ZWJiNWUxYyIgY2xhc3M9ImVyIGVudGl0eUxhYmVsIj5TSE9QUElOR19DQVJUPC90ZXh0PjxyZWN0IGhlaWdodD0iMjIiIHdpZHRoPSI1Mi4wNjg0OTY3MDQxMDE1NiIgeT0iMjQiIHg9IjAiIGNsYXNzPSJlciBhdHRyaWJ1dGVCb3hPZGQiPjwvcmVjdD48dGV4dCBzdHlsZT0iZG9taW5hbnQtYmFzZWxpbmU6IG1pZGRsZTsgZm9udC1zaXplOiAxMC4ycHg7IiB0cmFuc2Zvcm09InRyYW5zbGF0ZSg1LDM1KSIgeT0iMCIgeD0iMCIgaWQ9InRleHQtZW50aXR5LVNIT1BQSU5HQ0FSVC02ZTRkMWEwNC00MGJjLTVjMTAtOGFjMC05YWRhNmViYjVlMWMtYXR0ci0xLXR5cGUiIGNsYXNzPSJlciBlbnRpdHlMYWJlbCI+aW50PC90ZXh0PjxyZWN0IGhlaWdodD0iMjIiIHdpZHRoPSI2Ni41MjE3ODk1NTA3ODEyNSIgeT0iMjQiIHg9IjUyLjA2ODQ5NjcwNDEwMTU2IiBjbGFzcz0iZXIgYXR0cmlidXRlQm94T2RkIj48L3JlY3Q+PHRleHQgc3R5bGU9ImRvbWluYW50LWJhc2VsaW5lOiBtaWRkbGU7IGZvbnQtc2l6ZTogMTAuMnB4OyIgdHJhbnNmb3JtPSJ0cmFuc2xhdGUoNTcuMDY4NDk2NzA0MTAxNTYsMzUpIiB5PSIwIiB4PSIwIiBpZD0idGV4dC1lbnRpdHktU0hPUFBJTkdDQVJULTZlNGQxYTA0LTQwYmMtNWMxMC04YWMwLTlhZGE2ZWJiNWUxYy1hdHRyLTEtbmFtZSIgY2xhc3M9ImVyIGVudGl0eUxhYmVsIj5pZDwvdGV4dD48cmVjdCBoZWlnaHQ9IjIyIiB3aWR0aD0iMjIuNjg3NjgzMTA1NDY4NzUiIHk9IjI0IiB4PSIxMTguNTkwMjg2MjU0ODgyODEiIGNsYXNzPSJlciBhdHRyaWJ1dGVCb3hPZGQiPjwvcmVjdD48dGV4dCBzdHlsZT0iZG9taW5hbnQtYmFzZWxpbmU6IG1pZGRsZTsgZm9udC1zaXplOiAxMC4ycHg7IiB0cmFuc2Zvcm09InRyYW5zbGF0ZSgxMjMuNTkwMjg2MjU0ODgyODEsMzUpIiB5PSIwIiB4PSIwIiBpZD0idGV4dC1lbnRpdHktU0hPUFBJTkdDQVJULTZlNGQxYTA0LTQwYmMtNWMxMC04YWMwLTlhZGE2ZWJiNWUxYy1hdHRyLTEta2V5IiBjbGFzcz0iZXIgZW50aXR5TGFiZWwiPlBLPC90ZXh0PjxyZWN0IGhlaWdodD0iMjIiIHdpZHRoPSI1Mi4wNjg0OTY3MDQxMDE1NiIgeT0iNDYiIHg9IjAiIGNsYXNzPSJlciBhdHRyaWJ1dGVCb3hFdmVuIj48L3JlY3Q+PHRleHQgc3R5bGU9ImRvbWluYW50LWJhc2VsaW5lOiBtaWRkbGU7IGZvbnQtc2l6ZTogMTAuMnB4OyIgdHJhbnNmb3JtPSJ0cmFuc2xhdGUoNSw1NykiIHk9IjAiIHg9IjAiIGlkPSJ0ZXh0LWVudGl0eS1TSE9QUElOR0NBUlQtNmU0ZDFhMDQtNDBiYy01YzEwLThhYzAtOWFkYTZlYmI1ZTFjLWF0dHItMi10eXBlIiBjbGFzcz0iZXIgZW50aXR5TGFiZWwiPmludDwvdGV4dD48cmVjdCBoZWlnaHQ9IjIyIiB3aWR0aD0iNjYuNTIxNzg5NTUwNzgxMjUiIHk9IjQ2IiB4PSI1Mi4wNjg0OTY3MDQxMDE1NiIgY2xhc3M9ImVyIGF0dHJpYnV0ZUJveEV2ZW4iPjwvcmVjdD48dGV4dCBzdHlsZT0iZG9taW5hbnQtYmFzZWxpbmU6IG1pZGRsZTsgZm9udC1zaXplOiAxMC4ycHg7IiB0cmFuc2Zvcm09InRyYW5zbGF0ZSg1Ny4wNjg0OTY3MDQxMDE1Niw1NykiIHk9IjAiIHg9IjAiIGlkPSJ0ZXh0LWVudGl0eS1TSE9QUElOR0NBUlQtNmU0ZDFhMDQtNDBiYy01YzEwLThhYzAtOWFkYTZlYmI1ZTFjLWF0dHItMi1uYW1lIiBjbGFzcz0iZXIgZW50aXR5TGFiZWwiPmN1c3RvbWVyX2lkPC90ZXh0PjxyZWN0IGhlaWdodD0iMjIiIHdpZHRoPSIyMi42ODc2ODMxMDU0Njg3NSIgeT0iNDYiIHg9IjExOC41OTAyODYyNTQ4ODI4MSIgY2xhc3M9ImVyIGF0dHJpYnV0ZUJveEV2ZW4iPjwvcmVjdD48dGV4dCBzdHlsZT0iZG9taW5hbnQtYmFzZWxpbmU6IG1pZGRsZTsgZm9udC1zaXplOiAxMC4ycHg7IiB0cmFuc2Zvcm09InRyYW5zbGF0ZSgxMjMuNTkwMjg2MjU0ODgyODEsNTcpIiB5PSIwIiB4PSIwIiBpZD0idGV4dC1lbnRpdHktU0hPUFBJTkdDQVJULTZlNGQxYTA0LTQwYmMtNWMxMC04YWMwLTlhZGE2ZWJiNWUxYy1hdHRyLTIta2V5IiBjbGFzcz0iZXIgZW50aXR5TGFiZWwiPkZLPC90ZXh0PjxyZWN0IGhlaWdodD0iMjIiIHdpZHRoPSI1Mi4wNjg0OTY3MDQxMDE1NiIgeT0iNjgiIHg9IjAiIGNsYXNzPSJlciBhdHRyaWJ1dGVCb3hPZGQiPjwvcmVjdD48dGV4dCBzdHlsZT0iZG9taW5hbnQtYmFzZWxpbmU6IG1pZGRsZTsgZm9udC1zaXplOiAxMC4ycHg7IiB0cmFuc2Zvcm09InRyYW5zbGF0ZSg1LDc5KSIgeT0iMCIgeD0iMCIgaWQ9InRleHQtZW50aXR5LVNIT1BQSU5HQ0FSVC02ZTRkMWEwNC00MGJjLTVjMTAtOGFjMC05YWRhNmViYjVlMWMtYXR0ci0zLXR5cGUiIGNsYXNzPSJlciBlbnRpdHlMYWJlbCI+ZGF0ZXRpbWU8L3RleHQ+PHJlY3QgaGVpZ2h0PSIyMiIgd2lkdGg9IjY2LjUyMTc4OTU1MDc4MTI1IiB5PSI2OCIgeD0iNTIuMDY4NDk2NzA0MTAxNTYiIGNsYXNzPSJlciBhdHRyaWJ1dGVCb3hPZGQiPjwvcmVjdD48dGV4dCBzdHlsZT0iZG9taW5hbnQtYmFzZWxpbmU6IG1pZGRsZTsgZm9udC1zaXplOiAxMC4ycHg7IiB0cmFuc2Zvcm09InRyYW5zbGF0ZSg1Ny4wNjg0OTY3MDQxMDE1Niw3OSkiIHk9IjAiIHg9IjAiIGlkPSJ0ZXh0LWVudGl0eS1TSE9QUElOR0NBUlQtNmU0ZDFhMDQtNDBiYy01YzEwLThhYzAtOWFkYTZlYmI1ZTFjLWF0dHItMy1uYW1lIiBjbGFzcz0iZXIgZW50aXR5TGFiZWwiPmNyZWF0ZWRfYXQ8L3RleHQ+PHJlY3QgaGVpZ2h0PSIyMiIgd2lkdGg9IjIyLjY4NzY4MzEwNTQ2ODc1IiB5PSI2OCIgeD0iMTE4LjU5MDI4NjI1NDg4MjgxIiBjbGFzcz0iZXIgYXR0cmlidXRlQm94T2RkIj48L3JlY3Q+PHRleHQgc3R5bGU9ImRvbWluYW50LWJhc2VsaW5lOiBtaWRkbGU7IGZvbnQtc2l6ZTogMTAuMnB4OyIgdHJhbnNmb3JtPSJ0cmFuc2xhdGUoMTIzLjU5MDI4NjI1NDg4MjgxLDc5KSIgeT0iMCIgeD0iMCIgaWQ9InRleHQtZW50aXR5LVNIT1BQSU5HQ0FSVC02ZTRkMWEwNC00MGJjLTVjMTAtOGFjMC05YWRhNmViYjVlMWMtYXR0ci0zLWtleSIgY2xhc3M9ImVyIGVudGl0eUxhYmVsIj48L3RleHQ+PHJlY3QgaGVpZ2h0PSIyMiIgd2lkdGg9IjUyLjA2ODQ5NjcwNDEwMTU2IiB5PSI5MCIgeD0iMCIgY2xhc3M9ImVyIGF0dHJpYnV0ZUJveEV2ZW4iPjwvcmVjdD48dGV4dCBzdHlsZT0iZG9taW5hbnQtYmFzZWxpbmU6IG1pZGRsZTsgZm9udC1zaXplOiAxMC4ycHg7IiB0cmFuc2Zvcm09InRyYW5zbGF0ZSg1LDEwMSkiIHk9IjAiIHg9IjAiIGlkPSJ0ZXh0LWVudGl0eS1TSE9QUElOR0NBUlQtNmU0ZDFhMDQtNDBiYy01YzEwLThhYzAtOWFkYTZlYmI1ZTFjLWF0dHItNC10eXBlIiBjbGFzcz0iZXIgZW50aXR5TGFiZWwiPmRhdGV0aW1lPC90ZXh0PjxyZWN0IGhlaWdodD0iMjIiIHdpZHRoPSI2Ni41MjE3ODk1NTA3ODEyNSIgeT0iOTAiIHg9IjUyLjA2ODQ5NjcwNDEwMTU2IiBjbGFzcz0iZXIgYXR0cmlidXRlQm94RXZlbiI+PC9yZWN0Pjx0ZXh0IHN0eWxlPSJkb21pbmFudC1iYXNlbGluZTogbWlkZGxlOyBmb250LXNpemU6IDEwLjJweDsiIHRyYW5zZm9ybT0idHJhbnNsYXRlKDU3LjA2ODQ5NjcwNDEwMTU2LDEwMSkiIHk9IjAiIHg9IjAiIGlkPSJ0ZXh0LWVudGl0eS1TSE9QUElOR0NBUlQtNmU0ZDFhMDQtNDBiYy01YzEwLThhYzAtOWFkYTZlYmI1ZTFjLWF0dHItNC1uYW1lIiBjbGFzcz0iZXIgZW50aXR5TGFiZWwiPnVwZGF0ZWRfYXQ8L3RleHQ+PHJlY3QgaGVpZ2h0PSIyMiIgd2lkdGg9IjIyLjY4NzY4MzEwNTQ2ODc1IiB5PSI5MCIgeD0iMTE4LjU5MDI4NjI1NDg4MjgxIiBjbGFzcz0iZXIgYXR0cmlidXRlQm94RXZlbiI+PC9yZWN0Pjx0ZXh0IHN0eWxlPSJkb21pbmFudC1iYXNlbGluZTogbWlkZGxlOyBmb250LXNpemU6IDEwLjJweDsiIHRyYW5zZm9ybT0idHJhbnNsYXRlKDEyMy41OTAyODYyNTQ4ODI4MSwxMDEpIiB5PSIwIiB4PSIwIiBpZD0idGV4dC1lbnRpdHktU0hPUFBJTkdDQVJULTZlNGQxYTA0LTQwYmMtNWMxMC04YWMwLTlhZGE2ZWJiNWUxYy1hdHRyLTQta2V5IiBjbGFzcz0iZXIgZW50aXR5TGFiZWwiPjwvdGV4dD48L2c+PGcgdHJhbnNmb3JtPSJ0cmFuc2xhdGUoNzI5LjM1MzA5NjAwODMwMDgsNjY0ICkiIGlkPSJlbnRpdHktQ0FSVElURU0tZGRmMTk4YzItNmViMy01OGIxLTkyZmItMjNmYzgzNTEzZmM4Ij48cmVjdCBoZWlnaHQ9IjEzNCIgd2lkdGg9IjExNS4wMjcwMjMzMTU0Mjk2OSIgeT0iMCIgeD0iMCIgY2xhc3M9ImVyIGVudGl0eUJveCI+PC9yZWN0Pjx0ZXh0IHN0eWxlPSJkb21pbmFudC1iYXNlbGluZTogbWlkZGxlOyB0ZXh0LWFuY2hvcjogbWlkZGxlOyBmb250LXNpemU6IDEycHg7IiB0cmFuc2Zvcm09InRyYW5zbGF0ZSg1Ny41MTM1MTE2NTc3MTQ4NDQsMTIpIiB5PSIwIiB4PSIwIiBpZD0idGV4dC1lbnRpdHktQ0FSVElURU0tZGRmMTk4YzItNmViMy01OGIxLTkyZmItMjNmYzgzNTEzZmM4IiBjbGFzcz0iZXIgZW50aXR5TGFiZWwiPkNBUlRfSVRFTTwvdGV4dD48cmVjdCBoZWlnaHQ9IjIyIiB3aWR0aD0iMzIuNjEwOTAwODc4OTA2MjUiIHk9IjI0IiB4PSIwIiBjbGFzcz0iZXIgYXR0cmlidXRlQm94T2RkIj48L3JlY3Q+PHRleHQgc3R5bGU9ImRvbWluYW50LWJhc2VsaW5lOiBtaWRkbGU7IGZvbnQtc2l6ZTogMTAuMnB4OyIgdHJhbnNmb3JtPSJ0cmFuc2xhdGUoNSwzNSkiIHk9IjAiIHg9IjAiIGlkPSJ0ZXh0LWVudGl0eS1DQVJUSVRFTS1kZGYxOThjMi02ZWIzLTU4YjEtOTJmYi0yM2ZjODM1MTNmYzgtYXR0ci0xLXR5cGUiIGNsYXNzPSJlciBlbnRpdHlMYWJlbCI+aW50PC90ZXh0PjxyZWN0IGhlaWdodD0iMjIiIHdpZHRoPSI1OS43Mjg0MzkzMzEwNTQ2OSIgeT0iMjQiIHg9IjMyLjYxMDkwMDg3ODkwNjI1IiBjbGFzcz0iZXIgYXR0cmlidXRlQm94T2RkIj48L3JlY3Q+PHRleHQgc3R5bGU9ImRvbWluYW50LWJhc2VsaW5lOiBtaWRkbGU7IGZvbnQtc2l6ZTogMTAuMnB4OyIgdHJhbnNmb3JtPSJ0cmFuc2xhdGUoMzcuNjEwOTAwODc4OTA2MjUsMzUpIiB5PSIwIiB4PSIwIiBpZD0idGV4dC1lbnRpdHktQ0FSVElURU0tZGRmMTk4YzItNmViMy01OGIxLTkyZmItMjNmYzgzNTEzZmM4LWF0dHItMS1uYW1lIiBjbGFzcz0iZXIgZW50aXR5TGFiZWwiPmlkPC90ZXh0PjxyZWN0IGhlaWdodD0iMjIiIHdpZHRoPSIyMi42ODc2ODMxMDU0Njg3NSIgeT0iMjQiIHg9IjkyLjMzOTM0MDIwOTk2MDk0IiBjbGFzcz0iZXIgYXR0cmlidXRlQm94T2RkIj48L3JlY3Q+PHRleHQgc3R5bGU9ImRvbWluYW50LWJhc2VsaW5lOiBtaWRkbGU7IGZvbnQtc2l6ZTogMTAuMnB4OyIgdHJhbnNmb3JtPSJ0cmFuc2xhdGUoOTcuMzM5MzQwMjA5OTYwOTQsMzUpIiB5PSIwIiB4PSIwIiBpZD0idGV4dC1lbnRpdHktQ0FSVElURU0tZGRmMTk4YzItNmViMy01OGIxLTkyZmItMjNmYzgzNTEzZmM4LWF0dHItMS1rZXkiIGNsYXNzPSJlciBlbnRpdHlMYWJlbCI+UEs8L3RleHQ+PHJlY3QgaGVpZ2h0PSIyMiIgd2lkdGg9IjMyLjYxMDkwMDg3ODkwNjI1IiB5PSI0NiIgeD0iMCIgY2xhc3M9ImVyIGF0dHJpYnV0ZUJveEV2ZW4iPjwvcmVjdD48dGV4dCBzdHlsZT0iZG9taW5hbnQtYmFzZWxpbmU6IG1pZGRsZTsgZm9udC1zaXplOiAxMC4ycHg7IiB0cmFuc2Zvcm09InRyYW5zbGF0ZSg1LDU3KSIgeT0iMCIgeD0iMCIgaWQ9InRleHQtZW50aXR5LUNBUlRJVEVNLWRkZjE5OGMyLTZlYjMtNThiMS05MmZiLTIzZmM4MzUxM2ZjOC1hdHRyLTItdHlwZSIgY2xhc3M9ImVyIGVudGl0eUxhYmVsIj5pbnQ8L3RleHQ+PHJlY3QgaGVpZ2h0PSIyMiIgd2lkdGg9IjU5LjcyODQzOTMzMTA1NDY5IiB5PSI0NiIgeD0iMzIuNjEwOTAwODc4OTA2MjUiIGNsYXNzPSJlciBhdHRyaWJ1dGVCb3hFdmVuIj48L3JlY3Q+PHRleHQgc3R5bGU9ImRvbWluYW50LWJhc2VsaW5lOiBtaWRkbGU7IGZvbnQtc2l6ZTogMTAuMnB4OyIgdHJhbnNmb3JtPSJ0cmFuc2xhdGUoMzcuNjEwOTAwODc4OTA2MjUsNTcpIiB5PSIwIiB4PSIwIiBpZD0idGV4dC1lbnRpdHktQ0FSVElURU0tZGRmMTk4YzItNmViMy01OGIxLTkyZmItMjNmYzgzNTEzZmM4LWF0dHItMi1uYW1lIiBjbGFzcz0iZXIgZW50aXR5TGFiZWwiPmNhcnRfaWQ8L3RleHQ+PHJlY3QgaGVpZ2h0PSIyMiIgd2lkdGg9IjIyLjY4NzY4MzEwNTQ2ODc1IiB5PSI0NiIgeD0iOTIuMzM5MzQwMjA5OTYwOTQiIGNsYXNzPSJlciBhdHRyaWJ1dGVCb3hFdmVuIj48L3JlY3Q+PHRleHQgc3R5bGU9ImRvbWluYW50LWJhc2VsaW5lOiBtaWRkbGU7IGZvbnQtc2l6ZTogMTAuMnB4OyIgdHJhbnNmb3JtPSJ0cmFuc2xhdGUoOTcuMzM5MzQwMjA5OTYwOTQsNTcpIiB5PSIwIiB4PSIwIiBpZD0idGV4dC1lbnRpdHktQ0FSVElURU0tZGRmMTk4YzItNmViMy01OGIxLTkyZmItMjNmYzgzNTEzZmM4LWF0dHItMi1rZXkiIGNsYXNzPSJlciBlbnRpdHlMYWJlbCI+Rks8L3RleHQ+PHJlY3QgaGVpZ2h0PSIyMiIgd2lkdGg9IjMyLjYxMDkwMDg3ODkwNjI1IiB5PSI2OCIgeD0iMCIgY2xhc3M9ImVyIGF0dHJpYnV0ZUJveE9kZCI+PC9yZWN0Pjx0ZXh0IHN0eWxlPSJkb21pbmFudC1iYXNlbGluZTogbWlkZGxlOyBmb250LXNpemU6IDEwLjJweDsiIHRyYW5zZm9ybT0idHJhbnNsYXRlKDUsNzkpIiB5PSIwIiB4PSIwIiBpZD0idGV4dC1lbnRpdHktQ0FSVElURU0tZGRmMTk4YzItNmViMy01OGIxLTkyZmItMjNmYzgzNTEzZmM4LWF0dHItMy10eXBlIiBjbGFzcz0iZXIgZW50aXR5TGFiZWwiPmludDwvdGV4dD48cmVjdCBoZWlnaHQ9IjIyIiB3aWR0aD0iNTkuNzI4NDM5MzMxMDU0NjkiIHk9IjY4IiB4PSIzMi42MTA5MDA4Nzg5MDYyNSIgY2xhc3M9ImVyIGF0dHJpYnV0ZUJveE9kZCI+PC9yZWN0Pjx0ZXh0IHN0eWxlPSJkb21pbmFudC1iYXNlbGluZTogbWlkZGxlOyBmb250LXNpemU6IDEwLjJweDsiIHRyYW5zZm9ybT0idHJhbnNsYXRlKDM3LjYxMDkwMDg3ODkwNjI1LDc5KSIgeT0iMCIgeD0iMCIgaWQ9InRleHQtZW50aXR5LUNBUlRJVEVNLWRkZjE5OGMyLTZlYjMtNThiMS05MmZiLTIzZmM4MzUxM2ZjOC1hdHRyLTMtbmFtZSIgY2xhc3M9ImVyIGVudGl0eUxhYmVsIj5wcm9kdWN0X2lkPC90ZXh0PjxyZWN0IGhlaWdodD0iMjIiIHdpZHRoPSIyMi42ODc2ODMxMDU0Njg3NSIgeT0iNjgiIHg9IjkyLjMzOTM0MDIwOTk2MDk0IiBjbGFzcz0iZXIgYXR0cmlidXRlQm94T2RkIj48L3JlY3Q+PHRleHQgc3R5bGU9ImRvbWluYW50LWJhc2VsaW5lOiBtaWRkbGU7IGZvbnQtc2l6ZTogMTAuMnB4OyIgdHJhbnNmb3JtPSJ0cmFuc2xhdGUoOTcuMzM5MzQwMjA5OTYwOTQsNzkpIiB5PSIwIiB4PSIwIiBpZD0idGV4dC1lbnRpdHktQ0FSVElURU0tZGRmMTk4YzItNmViMy01OGIxLTkyZmItMjNmYzgzNTEzZmM4LWF0dHItMy1rZXkiIGNsYXNzPSJlciBlbnRpdHlMYWJlbCI+Rks8L3RleHQ+PHJlY3QgaGVpZ2h0PSIyMiIgd2lkdGg9IjMyLjYxMDkwMDg3ODkwNjI1IiB5PSI5MCIgeD0iMCIgY2xhc3M9ImVyIGF0dHJpYnV0ZUJveEV2ZW4iPjwvcmVjdD48dGV4dCBzdHlsZT0iZG9taW5hbnQtYmFzZWxpbmU6IG1pZGRsZTsgZm9udC1zaXplOiAxMC4ycHg7IiB0cmFuc2Zvcm09InRyYW5zbGF0ZSg1LDEwMSkiIHk9IjAiIHg9IjAiIGlkPSJ0ZXh0LWVudGl0eS1DQVJUSVRFTS1kZGYxOThjMi02ZWIzLTU4YjEtOTJmYi0yM2ZjODM1MTNmYzgtYXR0ci00LXR5cGUiIGNsYXNzPSJlciBlbnRpdHlMYWJlbCI+aW50PC90ZXh0PjxyZWN0IGhlaWdodD0iMjIiIHdpZHRoPSI1OS43Mjg0MzkzMzEwNTQ2OSIgeT0iOTAiIHg9IjMyLjYxMDkwMDg3ODkwNjI1IiBjbGFzcz0iZXIgYXR0cmlidXRlQm94RXZlbiI+PC9yZWN0Pjx0ZXh0IHN0eWxlPSJkb21pbmFudC1iYXNlbGluZTogbWlkZGxlOyBmb250LXNpemU6IDEwLjJweDsiIHRyYW5zZm9ybT0idHJhbnNsYXRlKDM3LjYxMDkwMDg3ODkwNjI1LDEwMSkiIHk9IjAiIHg9IjAiIGlkPSJ0ZXh0LWVudGl0eS1DQVJUSVRFTS1kZGYxOThjMi02ZWIzLTU4YjEtOTJmYi0yM2ZjODM1MTNmYzgtYXR0ci00LW5hbWUiIGNsYXNzPSJlciBlbnRpdHlMYWJlbCI+cXVhbnRpdHk8L3RleHQ+PHJlY3QgaGVpZ2h0PSIyMiIgd2lkdGg9IjIyLjY4NzY4MzEwNTQ2ODc1IiB5PSI5MCIgeD0iOTIuMzM5MzQwMjA5OTYwOTQiIGNsYXNzPSJlciBhdHRyaWJ1dGVCb3hFdmVuIj48L3JlY3Q+PHRleHQgc3R5bGU9ImRvbWluYW50LWJhc2VsaW5lOiBtaWRkbGU7IGZvbnQtc2l6ZTogMTAuMnB4OyIgdHJhbnNmb3JtPSJ0cmFuc2xhdGUoOTcuMzM5MzQwMjA5OTYwOTQsMTAxKSIgeT0iMCIgeD0iMCIgaWQ9InRleHQtZW50aXR5LUNBUlRJVEVNLWRkZjE5OGMyLTZlYjMtNThiMS05MmZiLTIzZmM4MzUxM2ZjOC1hdHRyLTQta2V5IiBjbGFzcz0iZXIgZW50aXR5TGFiZWwiPjwvdGV4dD48cmVjdCBoZWlnaHQ9IjIyIiB3aWR0aD0iMzIuNjEwOTAwODc4OTA2MjUiIHk9IjExMiIgeD0iMCIgY2xhc3M9ImVyIGF0dHJpYnV0ZUJveE9kZCI+PC9yZWN0Pjx0ZXh0IHN0eWxlPSJkb21pbmFudC1iYXNlbGluZTogbWlkZGxlOyBmb250LXNpemU6IDEwLjJweDsiIHRyYW5zZm9ybT0idHJhbnNsYXRlKDUsMTIzKSIgeT0iMCIgeD0iMCIgaWQ9InRleHQtZW50aXR5LUNBUlRJVEVNLWRkZjE5OGMyLTZlYjMtNThiMS05MmZiLTIzZmM4MzUxM2ZjOC1hdHRyLTUtdHlwZSIgY2xhc3M9ImVyIGVudGl0eUxhYmVsIj5mbG9hdDwvdGV4dD48cmVjdCBoZWlnaHQ9IjIyIiB3aWR0aD0iNTkuNzI4NDM5MzMxMDU0NjkiIHk9IjExMiIgeD0iMzIuNjEwOTAwODc4OTA2MjUiIGNsYXNzPSJlciBhdHRyaWJ1dGVCb3hPZGQiPjwvcmVjdD48dGV4dCBzdHlsZT0iZG9taW5hbnQtYmFzZWxpbmU6IG1pZGRsZTsgZm9udC1zaXplOiAxMC4ycHg7IiB0cmFuc2Zvcm09InRyYW5zbGF0ZSgzNy42MTA5MDA4Nzg5MDYyNSwxMjMpIiB5PSIwIiB4PSIwIiBpZD0idGV4dC1lbnRpdHktQ0FSVElURU0tZGRmMTk4YzItNmViMy01OGIxLTkyZmItMjNmYzgzNTEzZmM4LWF0dHItNS1uYW1lIiBjbGFzcz0iZXIgZW50aXR5TGFiZWwiPnVuaXRfcHJpY2U8L3RleHQ+PHJlY3QgaGVpZ2h0PSIyMiIgd2lkdGg9IjIyLjY4NzY4MzEwNTQ2ODc1IiB5PSIxMTIiIHg9IjkyLjMzOTM0MDIwOTk2MDk0IiBjbGFzcz0iZXIgYXR0cmlidXRlQm94T2RkIj48L3JlY3Q+PHRleHQgc3R5bGU9ImRvbWluYW50LWJhc2VsaW5lOiBtaWRkbGU7IGZvbnQtc2l6ZTogMTAuMnB4OyIgdHJhbnNmb3JtPSJ0cmFuc2xhdGUoOTcuMzM5MzQwMjA5OTYwOTQsMTIzKSIgeT0iMCIgeD0iMCIgaWQ9InRleHQtZW50aXR5LUNBUlRJVEVNLWRkZjE5OGMyLTZlYjMtNThiMS05MmZiLTIzZmM4MzUxM2ZjOC1hdHRyLTUta2V5IiBjbGFzcz0iZXIgZW50aXR5TGFiZWwiPjwvdGV4dD48L2c+PGcgdHJhbnNmb3JtPSJ0cmFuc2xhdGUoMTQzMi42NzIyNzkzNTc5MTAyLDM1MyApIiBpZD0iZW50aXR5LU9SREVSLTM2OTQxZTIwLWViMWQtNTBhMy04MWM1LTAwMDc5YjQzYzI0YSI+PHJlY3QgaGVpZ2h0PSIxMzQiIHdpZHRoPSIzNjEuODg2MjYwOTg2MzI4MSIgeT0iMCIgeD0iMCIgY2xhc3M9ImVyIGVudGl0eUJveCI+PC9yZWN0Pjx0ZXh0IHN0eWxlPSJkb21pbmFudC1iYXNlbGluZTogbWlkZGxlOyB0ZXh0LWFuY2hvcjogbWlkZGxlOyBmb250LXNpemU6IDEycHg7IiB0cmFuc2Zvcm09InRyYW5zbGF0ZSgxODAuOTQzMTMwNDkzMTY0MDYsMTIpIiB5PSIwIiB4PSIwIiBpZD0idGV4dC1lbnRpdHktT1JERVItMzY5NDFlMjAtZWIxZC01MGEzLTgxYzUtMDAwNzliNDNjMjRhIiBjbGFzcz0iZXIgZW50aXR5TGFiZWwiPk9SREVSPC90ZXh0PjxyZWN0IGhlaWdodD0iMjIiIHdpZHRoPSI1Mi4wNjg0OTY3MDQxMDE1NiIgeT0iMjQiIHg9IjAiIGNsYXNzPSJlciBhdHRyaWJ1dGVCb3hPZGQiPjwvcmVjdD48dGV4dCBzdHlsZT0iZG9taW5hbnQtYmFzZWxpbmU6IG1pZGRsZTsgZm9udC1zaXplOiAxMC4ycHg7IiB0cmFuc2Zvcm09InRyYW5zbGF0ZSg1LDM1KSIgeT0iMCIgeD0iMCIgaWQ9InRleHQtZW50aXR5LU9SREVSLTM2OTQxZTIwLWViMWQtNTBhMy04MWM1LTAwMDc5YjQzYzI0YS1hdHRyLTEtdHlwZSIgY2xhc3M9ImVyIGVudGl0eUxhYmVsIj5pbnQ8L3RleHQ+PHJlY3QgaGVpZ2h0PSIyMiIgd2lkdGg9IjcyLjcyMzU0MTI1OTc2NTYyIiB5PSIyNCIgeD0iNTIuMDY4NDk2NzA0MTAxNTYiIGNsYXNzPSJlciBhdHRyaWJ1dGVCb3hPZGQiPjwvcmVjdD48dGV4dCBzdHlsZT0iZG9taW5hbnQtYmFzZWxpbmU6IG1pZGRsZTsgZm9udC1zaXplOiAxMC4ycHg7IiB0cmFuc2Zvcm09InRyYW5zbGF0ZSg1Ny4wNjg0OTY3MDQxMDE1NiwzNSkiIHk9IjAiIHg9IjAiIGlkPSJ0ZXh0LWVudGl0eS1PUkRFUi0zNjk0MWUyMC1lYjFkLTUwYTMtODFjNS0wMDA3OWI0M2MyNGEtYXR0ci0xLW5hbWUiIGNsYXNzPSJlciBlbnRpdHlMYWJlbCI+aWQ8L3RleHQ+PHJlY3QgaGVpZ2h0PSIyMiIgd2lkdGg9IjIyLjY4NzY4MzEwNTQ2ODc1IiB5PSIyNCIgeD0iMTI0Ljc5MjAzNzk2Mzg2NzE5IiBjbGFzcz0iZXIgYXR0cmlidXRlQm94T2RkIj48L3JlY3Q+PHRleHQgc3R5bGU9ImRvbWluYW50LWJhc2VsaW5lOiBtaWRkbGU7IGZvbnQtc2l6ZTogMTAuMnB4OyIgdHJhbnNmb3JtPSJ0cmFuc2xhdGUoMTI5Ljc5MjAzNzk2Mzg2NzIsMzUpIiB5PSIwIiB4PSIwIiBpZD0idGV4dC1lbnRpdHktT1JERVItMzY5NDFlMjAtZWIxZC01MGEzLTgxYzUtMDAwNzliNDNjMjRhLWF0dHItMS1rZXkiIGNsYXNzPSJlciBlbnRpdHlMYWJlbCI+UEs8L3RleHQ+PHJlY3QgaGVpZ2h0PSIyMiIgd2lkdGg9IjIxNC40MDY1Mzk5MTY5OTIyIiB5PSIyNCIgeD0iMTQ3LjQ3OTcyMTA2OTMzNTk0IiBjbGFzcz0iZXIgYXR0cmlidXRlQm94T2RkIj48L3JlY3Q+PHRleHQgc3R5bGU9ImRvbWluYW50LWJhc2VsaW5lOiBtaWRkbGU7IGZvbnQtc2l6ZTogMTAuMnB4OyIgdHJhbnNmb3JtPSJ0cmFuc2xhdGUoMTUyLjQ3OTcyMTA2OTMzNTk0LDM1KSIgeT0iMCIgeD0iMCIgaWQ9InRleHQtZW50aXR5LU9SREVSLTM2OTQxZTIwLWViMWQtNTBhMy04MWM1LTAwMDc5YjQzYzI0YS1hdHRyLTEtY29tbWVudCIgY2xhc3M9ImVyIGVudGl0eUxhYmVsIj48L3RleHQ+PHJlY3QgaGVpZ2h0PSIyMiIgd2lkdGg9IjUyLjA2ODQ5NjcwNDEwMTU2IiB5PSI0NiIgeD0iMCIgY2xhc3M9ImVyIGF0dHJpYnV0ZUJveEV2ZW4iPjwvcmVjdD48dGV4dCBzdHlsZT0iZG9taW5hbnQtYmFzZWxpbmU6IG1pZGRsZTsgZm9udC1zaXplOiAxMC4ycHg7IiB0cmFuc2Zvcm09InRyYW5zbGF0ZSg1LDU3KSIgeT0iMCIgeD0iMCIgaWQ9InRleHQtZW50aXR5LU9SREVSLTM2OTQxZTIwLWViMWQtNTBhMy04MWM1LTAwMDc5YjQzYzI0YS1hdHRyLTItdHlwZSIgY2xhc3M9ImVyIGVudGl0eUxhYmVsIj5pbnQ8L3RleHQ+PHJlY3QgaGVpZ2h0PSIyMiIgd2lkdGg9IjcyLjcyMzU0MTI1OTc2NTYyIiB5PSI0NiIgeD0iNTIuMDY4NDk2NzA0MTAxNTYiIGNsYXNzPSJlciBhdHRyaWJ1dGVCb3hFdmVuIj48L3JlY3Q+PHRleHQgc3R5bGU9ImRvbWluYW50LWJhc2VsaW5lOiBtaWRkbGU7IGZvbnQtc2l6ZTogMTAuMnB4OyIgdHJhbnNmb3JtPSJ0cmFuc2xhdGUoNTcuMDY4NDk2NzA0MTAxNTYsNTcpIiB5PSIwIiB4PSIwIiBpZD0idGV4dC1lbnRpdHktT1JERVItMzY5NDFlMjAtZWIxZC01MGEzLTgxYzUtMDAwNzliNDNjMjRhLWF0dHItMi1uYW1lIiBjbGFzcz0iZXIgZW50aXR5TGFiZWwiPmN1c3RvbWVyX2lkPC90ZXh0PjxyZWN0IGhlaWdodD0iMjIiIHdpZHRoPSIyMi42ODc2ODMxMDU0Njg3NSIgeT0iNDYiIHg9IjEyNC43OTIwMzc5NjM4NjcxOSIgY2xhc3M9ImVyIGF0dHJpYnV0ZUJveEV2ZW4iPjwvcmVjdD48dGV4dCBzdHlsZT0iZG9taW5hbnQtYmFzZWxpbmU6IG1pZGRsZTsgZm9udC1zaXplOiAxMC4ycHg7IiB0cmFuc2Zvcm09InRyYW5zbGF0ZSgxMjkuNzkyMDM3OTYzODY3Miw1NykiIHk9IjAiIHg9IjAiIGlkPSJ0ZXh0LWVudGl0eS1PUkRFUi0zNjk0MWUyMC1lYjFkLTUwYTMtODFjNS0wMDA3OWI0M2MyNGEtYXR0ci0yLWtleSIgY2xhc3M9ImVyIGVudGl0eUxhYmVsIj5GSzwvdGV4dD48cmVjdCBoZWlnaHQ9IjIyIiB3aWR0aD0iMjE0LjQwNjUzOTkxNjk5MjIiIHk9IjQ2IiB4PSIxNDcuNDc5NzIxMDY5MzM1OTQiIGNsYXNzPSJlciBhdHRyaWJ1dGVCb3hFdmVuIj48L3JlY3Q+PHRleHQgc3R5bGU9ImRvbWluYW50LWJhc2VsaW5lOiBtaWRkbGU7IGZvbnQtc2l6ZTogMTAuMnB4OyIgdHJhbnNmb3JtPSJ0cmFuc2xhdGUoMTUyLjQ3OTcyMTA2OTMzNTk0LDU3KSIgeT0iMCIgeD0iMCIgaWQ9InRleHQtZW50aXR5LU9SREVSLTM2OTQxZTIwLWViMWQtNTBhMy04MWM1LTAwMDc5YjQzYzI0YS1hdHRyLTItY29tbWVudCIgY2xhc3M9ImVyIGVudGl0eUxhYmVsIj48L3RleHQ+PHJlY3QgaGVpZ2h0PSIyMiIgd2lkdGg9IjUyLjA2ODQ5NjcwNDEwMTU2IiB5PSI2OCIgeD0iMCIgY2xhc3M9ImVyIGF0dHJpYnV0ZUJveE9kZCI+PC9yZWN0Pjx0ZXh0IHN0eWxlPSJkb21pbmFudC1iYXNlbGluZTogbWlkZGxlOyBmb250LXNpemU6IDEwLjJweDsiIHRyYW5zZm9ybT0idHJhbnNsYXRlKDUsNzkpIiB5PSIwIiB4PSIwIiBpZD0idGV4dC1lbnRpdHktT1JERVItMzY5NDFlMjAtZWIxZC01MGEzLTgxYzUtMDAwNzliNDNjMjRhLWF0dHItMy10eXBlIiBjbGFzcz0iZXIgZW50aXR5TGFiZWwiPmRhdGV0aW1lPC90ZXh0PjxyZWN0IGhlaWdodD0iMjIiIHdpZHRoPSI3Mi43MjM1NDEyNTk3NjU2MiIgeT0iNjgiIHg9IjUyLjA2ODQ5NjcwNDEwMTU2IiBjbGFzcz0iZXIgYXR0cmlidXRlQm94T2RkIj48L3JlY3Q+PHRleHQgc3R5bGU9ImRvbWluYW50LWJhc2VsaW5lOiBtaWRkbGU7IGZvbnQtc2l6ZTogMTAuMnB4OyIgdHJhbnNmb3JtPSJ0cmFuc2xhdGUoNTcuMDY4NDk2NzA0MTAxNTYsNzkpIiB5PSIwIiB4PSIwIiBpZD0idGV4dC1lbnRpdHktT1JERVItMzY5NDFlMjAtZWIxZC01MGEzLTgxYzUtMDAwNzliNDNjMjRhLWF0dHItMy1uYW1lIiBjbGFzcz0iZXIgZW50aXR5TGFiZWwiPm9yZGVyX2RhdGU8L3RleHQ+PHJlY3QgaGVpZ2h0PSIyMiIgd2lkdGg9IjIyLjY4NzY4MzEwNTQ2ODc1IiB5PSI2OCIgeD0iMTI0Ljc5MjAzNzk2Mzg2NzE5IiBjbGFzcz0iZXIgYXR0cmlidXRlQm94T2RkIj48L3JlY3Q+PHRleHQgc3R5bGU9ImRvbWluYW50LWJhc2VsaW5lOiBtaWRkbGU7IGZvbnQtc2l6ZTogMTAuMnB4OyIgdHJhbnNmb3JtPSJ0cmFuc2xhdGUoMTI5Ljc5MjAzNzk2Mzg2NzIsNzkpIiB5PSIwIiB4PSIwIiBpZD0idGV4dC1lbnRpdHktT1JERVItMzY5NDFlMjAtZWIxZC01MGEzLTgxYzUtMDAwNzliNDNjMjRhLWF0dHItMy1rZXkiIGNsYXNzPSJlciBlbnRpdHlMYWJlbCI+PC90ZXh0PjxyZWN0IGhlaWdodD0iMjIiIHdpZHRoPSIyMTQuNDA2NTM5OTE2OTkyMiIgeT0iNjgiIHg9IjE0Ny40Nzk3MjEwNjkzMzU5NCIgY2xhc3M9ImVyIGF0dHJpYnV0ZUJveE9kZCI+PC9yZWN0Pjx0ZXh0IHN0eWxlPSJkb21pbmFudC1iYXNlbGluZTogbWlkZGxlOyBmb250LXNpemU6IDEwLjJweDsiIHRyYW5zZm9ybT0idHJhbnNsYXRlKDE1Mi40Nzk3MjEwNjkzMzU5NCw3OSkiIHk9IjAiIHg9IjAiIGlkPSJ0ZXh0LWVudGl0eS1PUkRFUi0zNjk0MWUyMC1lYjFkLTUwYTMtODFjNS0wMDA3OWI0M2MyNGEtYXR0ci0zLWNvbW1lbnQiIGNsYXNzPSJlciBlbnRpdHlMYWJlbCI+PC90ZXh0PjxyZWN0IGhlaWdodD0iMjIiIHdpZHRoPSI1Mi4wNjg0OTY3MDQxMDE1NiIgeT0iOTAiIHg9IjAiIGNsYXNzPSJlciBhdHRyaWJ1dGVCb3hFdmVuIj48L3JlY3Q+PHRleHQgc3R5bGU9ImRvbWluYW50LWJhc2VsaW5lOiBtaWRkbGU7IGZvbnQtc2l6ZTogMTAuMnB4OyIgdHJhbnNmb3JtPSJ0cmFuc2xhdGUoNSwxMDEpIiB5PSIwIiB4PSIwIiBpZD0idGV4dC1lbnRpdHktT1JERVItMzY5NDFlMjAtZWIxZC01MGEzLTgxYzUtMDAwNzliNDNjMjRhLWF0dHItNC10eXBlIiBjbGFzcz0iZXIgZW50aXR5TGFiZWwiPnN0cmluZzwvdGV4dD48cmVjdCBoZWlnaHQ9IjIyIiB3aWR0aD0iNzIuNzIzNTQxMjU5NzY1NjIiIHk9IjkwIiB4PSI1Mi4wNjg0OTY3MDQxMDE1NiIgY2xhc3M9ImVyIGF0dHJpYnV0ZUJveEV2ZW4iPjwvcmVjdD48dGV4dCBzdHlsZT0iZG9taW5hbnQtYmFzZWxpbmU6IG1pZGRsZTsgZm9udC1zaXplOiAxMC4ycHg7IiB0cmFuc2Zvcm09InRyYW5zbGF0ZSg1Ny4wNjg0OTY3MDQxMDE1NiwxMDEpIiB5PSIwIiB4PSIwIiBpZD0idGV4dC1lbnRpdHktT1JERVItMzY5NDFlMjAtZWIxZC01MGEzLTgxYzUtMDAwNzliNDNjMjRhLWF0dHItNC1uYW1lIiBjbGFzcz0iZXIgZW50aXR5TGFiZWwiPm9yZGVyX3N0YXR1czwvdGV4dD48cmVjdCBoZWlnaHQ9IjIyIiB3aWR0aD0iMjIuNjg3NjgzMTA1NDY4NzUiIHk9IjkwIiB4PSIxMjQuNzkyMDM3OTYzODY3MTkiIGNsYXNzPSJlciBhdHRyaWJ1dGVCb3hFdmVuIj48L3JlY3Q+PHRleHQgc3R5bGU9ImRvbWluYW50LWJhc2VsaW5lOiBtaWRkbGU7IGZvbnQtc2l6ZTogMTAuMnB4OyIgdHJhbnNmb3JtPSJ0cmFuc2xhdGUoMTI5Ljc5MjAzNzk2Mzg2NzIsMTAxKSIgeT0iMCIgeD0iMCIgaWQ9InRleHQtZW50aXR5LU9SREVSLTM2OTQxZTIwLWViMWQtNTBhMy04MWM1LTAwMDc5YjQzYzI0YS1hdHRyLTQta2V5IiBjbGFzcz0iZXIgZW50aXR5TGFiZWwiPjwvdGV4dD48cmVjdCBoZWlnaHQ9IjIyIiB3aWR0aD0iMjE0LjQwNjUzOTkxNjk5MjIiIHk9IjkwIiB4PSIxNDcuNDc5NzIxMDY5MzM1OTQiIGNsYXNzPSJlciBhdHRyaWJ1dGVCb3hFdmVuIj48L3JlY3Q+PHRleHQgc3R5bGU9ImRvbWluYW50LWJhc2VsaW5lOiBtaWRkbGU7IGZvbnQtc2l6ZTogMTAuMnB4OyIgdHJhbnNmb3JtPSJ0cmFuc2xhdGUoMTUyLjQ3OTcyMTA2OTMzNTk0LDEwMSkiIHk9IjAiIHg9IjAiIGlkPSJ0ZXh0LWVudGl0eS1PUkRFUi0zNjk0MWUyMC1lYjFkLTUwYTMtODFjNS0wMDA3OWI0M2MyNGEtYXR0ci00LWNvbW1lbnQiIGNsYXNzPSJlciBlbnRpdHlMYWJlbCI+cHJvY2Vzc2luZyB8IHNoaXBwZWQgfCBkZWxpdmVyZWQgfCBjYW5jZWxsZWQ8L3RleHQ+PHJlY3QgaGVpZ2h0PSIyMiIgd2lkdGg9IjUyLjA2ODQ5NjcwNDEwMTU2IiB5PSIxMTIiIHg9IjAiIGNsYXNzPSJlciBhdHRyaWJ1dGVCb3hPZGQiPjwvcmVjdD48dGV4dCBzdHlsZT0iZG9taW5hbnQtYmFzZWxpbmU6IG1pZGRsZTsgZm9udC1zaXplOiAxMC4ycHg7IiB0cmFuc2Zvcm09InRyYW5zbGF0ZSg1LDEyMykiIHk9IjAiIHg9IjAiIGlkPSJ0ZXh0LWVudGl0eS1PUkRFUi0zNjk0MWUyMC1lYjFkLTUwYTMtODFjNS0wMDA3OWI0M2MyNGEtYXR0ci01LXR5cGUiIGNsYXNzPSJlciBlbnRpdHlMYWJlbCI+ZmxvYXQ8L3RleHQ+PHJlY3QgaGVpZ2h0PSIyMiIgd2lkdGg9IjcyLjcyMzU0MTI1OTc2NTYyIiB5PSIxMTIiIHg9IjUyLjA2ODQ5NjcwNDEwMTU2IiBjbGFzcz0iZXIgYXR0cmlidXRlQm94T2RkIj48L3JlY3Q+PHRleHQgc3R5bGU9ImRvbWluYW50LWJhc2VsaW5lOiBtaWRkbGU7IGZvbnQtc2l6ZTogMTAuMnB4OyIgdHJhbnNmb3JtPSJ0cmFuc2xhdGUoNTcuMDY4NDk2NzA0MTAxNTYsMTIzKSIgeT0iMCIgeD0iMCIgaWQ9InRleHQtZW50aXR5LU9SREVSLTM2OTQxZTIwLWViMWQtNTBhMy04MWM1LTAwMDc5YjQzYzI0YS1hdHRyLTUtbmFtZSIgY2xhc3M9ImVyIGVudGl0eUxhYmVsIj50b3RhbF9hbW91bnQ8L3RleHQ+PHJlY3QgaGVpZ2h0PSIyMiIgd2lkdGg9IjIyLjY4NzY4MzEwNTQ2ODc1IiB5PSIxMTIiIHg9IjEyNC43OTIwMzc5NjM4NjcxOSIgY2xhc3M9ImVyIGF0dHJpYnV0ZUJveE9kZCI+PC9yZWN0Pjx0ZXh0IHN0eWxlPSJkb21pbmFudC1iYXNlbGluZTogbWlkZGxlOyBmb250LXNpemU6IDEwLjJweDsiIHRyYW5zZm9ybT0idHJhbnNsYXRlKDEyOS43OTIwMzc5NjM4NjcyLDEyMykiIHk9IjAiIHg9IjAiIGlkPSJ0ZXh0LWVudGl0eS1PUkRFUi0zNjk0MWUyMC1lYjFkLTUwYTMtODFjNS0wMDA3OWI0M2MyNGEtYXR0ci01LWtleSIgY2xhc3M9ImVyIGVudGl0eUxhYmVsIj48L3RleHQ+PHJlY3QgaGVpZ2h0PSIyMiIgd2lkdGg9IjIxNC40MDY1Mzk5MTY5OTIyIiB5PSIxMTIiIHg9IjE0Ny40Nzk3MjEwNjkzMzU5NCIgY2xhc3M9ImVyIGF0dHJpYnV0ZUJveE9kZCI+PC9yZWN0Pjx0ZXh0IHN0eWxlPSJkb21pbmFudC1iYXNlbGluZTogbWlkZGxlOyBmb250LXNpemU6IDEwLjJweDsiIHRyYW5zZm9ybT0idHJhbnNsYXRlKDE1Mi40Nzk3MjEwNjkzMzU5NCwxMjMpIiB5PSIwIiB4PSIwIiBpZD0idGV4dC1lbnRpdHktT1JERVItMzY5NDFlMjAtZWIxZC01MGEzLTgxYzUtMDAwNzliNDNjMjRhLWF0dHItNS1jb21tZW50IiBjbGFzcz0iZXIgZW50aXR5TGFiZWwiPjwvdGV4dD48L2c+PGcgdHJhbnNmb3JtPSJ0cmFuc2xhdGUoMTE4Mi4zNjcwMDgyMDkyMjg1LDY2NCApIiBpZD0iZW50aXR5LU9SREVSSVRFTS1lNTM0OWQ3Mi1iNDdiLTU1YmUtODAyMC0xMTMwMTY0MjVmNjIiPjxyZWN0IGhlaWdodD0iMTM0IiB3aWR0aD0iMTE1LjAyNzAyMzMxNTQyOTY5IiB5PSIwIiB4PSIwIiBjbGFzcz0iZXIgZW50aXR5Qm94Ij48L3JlY3Q+PHRleHQgc3R5bGU9ImRvbWluYW50LWJhc2VsaW5lOiBtaWRkbGU7IHRleHQtYW5jaG9yOiBtaWRkbGU7IGZvbnQtc2l6ZTogMTJweDsiIHRyYW5zZm9ybT0idHJhbnNsYXRlKDU3LjUxMzUxMTY1NzcxNDg0NCwxMikiIHk9IjAiIHg9IjAiIGlkPSJ0ZXh0LWVudGl0eS1PUkRFUklURU0tZTUzNDlkNzItYjQ3Yi01NWJlLTgwMjAtMTEzMDE2NDI1ZjYyIiBjbGFzcz0iZXIgZW50aXR5TGFiZWwiPk9SREVSX0lURU08L3RleHQ+PHJlY3QgaGVpZ2h0PSIyMiIgd2lkdGg9IjMyLjYxMDkwMDg3ODkwNjI1IiB5PSIyNCIgeD0iMCIgY2xhc3M9ImVyIGF0dHJpYnV0ZUJveE9kZCI+PC9yZWN0Pjx0ZXh0IHN0eWxlPSJkb21pbmFudC1iYXNlbGluZTogbWlkZGxlOyBmb250LXNpemU6IDEwLjJweDsiIHRyYW5zZm9ybT0idHJhbnNsYXRlKDUsMzUpIiB5PSIwIiB4PSIwIiBpZD0idGV4dC1lbnRpdHktT1JERVJJVEVNLWU1MzQ5ZDcyLWI0N2ItNTViZS04MDIwLTExMzAxNjQyNWY2Mi1hdHRyLTEtdHlwZSIgY2xhc3M9ImVyIGVudGl0eUxhYmVsIj5pbnQ8L3RleHQ+PHJlY3QgaGVpZ2h0PSIyMiIgd2lkdGg9IjU5LjcyODQzOTMzMTA1NDY5IiB5PSIyNCIgeD0iMzIuNjEwOTAwODc4OTA2MjUiIGNsYXNzPSJlciBhdHRyaWJ1dGVCb3hPZGQiPjwvcmVjdD48dGV4dCBzdHlsZT0iZG9taW5hbnQtYmFzZWxpbmU6IG1pZGRsZTsgZm9udC1zaXplOiAxMC4ycHg7IiB0cmFuc2Zvcm09InRyYW5zbGF0ZSgzNy42MTA5MDA4Nzg5MDYyNSwzNSkiIHk9IjAiIHg9IjAiIGlkPSJ0ZXh0LWVudGl0eS1PUkRFUklURU0tZTUzNDlkNzItYjQ3Yi01NWJlLTgwMjAtMTEzMDE2NDI1ZjYyLWF0dHItMS1uYW1lIiBjbGFzcz0iZXIgZW50aXR5TGFiZWwiPmlkPC90ZXh0PjxyZWN0IGhlaWdodD0iMjIiIHdpZHRoPSIyMi42ODc2ODMxMDU0Njg3NSIgeT0iMjQiIHg9IjkyLjMzOTM0MDIwOTk2MDk0IiBjbGFzcz0iZXIgYXR0cmlidXRlQm94T2RkIj48L3JlY3Q+PHRleHQgc3R5bGU9ImRvbWluYW50LWJhc2VsaW5lOiBtaWRkbGU7IGZvbnQtc2l6ZTogMTAuMnB4OyIgdHJhbnNmb3JtPSJ0cmFuc2xhdGUoOTcuMzM5MzQwMjA5OTYwOTQsMzUpIiB5PSIwIiB4PSIwIiBpZD0idGV4dC1lbnRpdHktT1JERVJJVEVNLWU1MzQ5ZDcyLWI0N2ItNTViZS04MDIwLTExMzAxNjQyNWY2Mi1hdHRyLTEta2V5IiBjbGFzcz0iZXIgZW50aXR5TGFiZWwiPlBLPC90ZXh0PjxyZWN0IGhlaWdodD0iMjIiIHdpZHRoPSIzMi42MTA5MDA4Nzg5MDYyNSIgeT0iNDYiIHg9IjAiIGNsYXNzPSJlciBhdHRyaWJ1dGVCb3hFdmVuIj48L3JlY3Q+PHRleHQgc3R5bGU9ImRvbWluYW50LWJhc2VsaW5lOiBtaWRkbGU7IGZvbnQtc2l6ZTogMTAuMnB4OyIgdHJhbnNmb3JtPSJ0cmFuc2xhdGUoNSw1NykiIHk9IjAiIHg9IjAiIGlkPSJ0ZXh0LWVudGl0eS1PUkRFUklURU0tZTUzNDlkNzItYjQ3Yi01NWJlLTgwMjAtMTEzMDE2NDI1ZjYyLWF0dHItMi10eXBlIiBjbGFzcz0iZXIgZW50aXR5TGFiZWwiPmludDwvdGV4dD48cmVjdCBoZWlnaHQ9IjIyIiB3aWR0aD0iNTkuNzI4NDM5MzMxMDU0NjkiIHk9IjQ2IiB4PSIzMi42MTA5MDA4Nzg5MDYyNSIgY2xhc3M9ImVyIGF0dHJpYnV0ZUJveEV2ZW4iPjwvcmVjdD48dGV4dCBzdHlsZT0iZG9taW5hbnQtYmFzZWxpbmU6IG1pZGRsZTsgZm9udC1zaXplOiAxMC4ycHg7IiB0cmFuc2Zvcm09InRyYW5zbGF0ZSgzNy42MTA5MDA4Nzg5MDYyNSw1NykiIHk9IjAiIHg9IjAiIGlkPSJ0ZXh0LWVudGl0eS1PUkRFUklURU0tZTUzNDlkNzItYjQ3Yi01NWJlLTgwMjAtMTEzMDE2NDI1ZjYyLWF0dHItMi1uYW1lIiBjbGFzcz0iZXIgZW50aXR5TGFiZWwiPm9yZGVyX2lkPC90ZXh0PjxyZWN0IGhlaWdodD0iMjIiIHdpZHRoPSIyMi42ODc2ODMxMDU0Njg3NSIgeT0iNDYiIHg9IjkyLjMzOTM0MDIwOTk2MDk0IiBjbGFzcz0iZXIgYXR0cmlidXRlQm94RXZlbiI+PC9yZWN0Pjx0ZXh0IHN0eWxlPSJkb21pbmFudC1iYXNlbGluZTogbWlkZGxlOyBmb250LXNpemU6IDEwLjJweDsiIHRyYW5zZm9ybT0idHJhbnNsYXRlKDk3LjMzOTM0MDIwOTk2MDk0LDU3KSIgeT0iMCIgeD0iMCIgaWQ9InRleHQtZW50aXR5LU9SREVSSVRFTS1lNTM0OWQ3Mi1iNDdiLTU1YmUtODAyMC0xMTMwMTY0MjVmNjItYXR0ci0yLWtleSIgY2xhc3M9ImVyIGVudGl0eUxhYmVsIj5GSzwvdGV4dD48cmVjdCBoZWlnaHQ9IjIyIiB3aWR0aD0iMzIuNjEwOTAwODc4OTA2MjUiIHk9IjY4IiB4PSIwIiBjbGFzcz0iZXIgYXR0cmlidXRlQm94T2RkIj48L3JlY3Q+PHRleHQgc3R5bGU9ImRvbWluYW50LWJhc2VsaW5lOiBtaWRkbGU7IGZvbnQtc2l6ZTogMTAuMnB4OyIgdHJhbnNmb3JtPSJ0cmFuc2xhdGUoNSw3OSkiIHk9IjAiIHg9IjAiIGlkPSJ0ZXh0LWVudGl0eS1PUkRFUklURU0tZTUzNDlkNzItYjQ3Yi01NWJlLTgwMjAtMTEzMDE2NDI1ZjYyLWF0dHItMy10eXBlIiBjbGFzcz0iZXIgZW50aXR5TGFiZWwiPmludDwvdGV4dD48cmVjdCBoZWlnaHQ9IjIyIiB3aWR0aD0iNTkuNzI4NDM5MzMxMDU0NjkiIHk9IjY4IiB4PSIzMi42MTA5MDA4Nzg5MDYyNSIgY2xhc3M9ImVyIGF0dHJpYnV0ZUJveE9kZCI+PC9yZWN0Pjx0ZXh0IHN0eWxlPSJkb21pbmFudC1iYXNlbGluZTogbWlkZGxlOyBmb250LXNpemU6IDEwLjJweDsiIHRyYW5zZm9ybT0idHJhbnNsYXRlKDM3LjYxMDkwMDg3ODkwNjI1LDc5KSIgeT0iMCIgeD0iMCIgaWQ9InRleHQtZW50aXR5LU9SREVSSVRFTS1lNTM0OWQ3Mi1iNDdiLTU1YmUtODAyMC0xMTMwMTY0MjVmNjItYXR0ci0zLW5hbWUiIGNsYXNzPSJlciBlbnRpdHlMYWJlbCI+cHJvZHVjdF9pZDwvdGV4dD48cmVjdCBoZWlnaHQ9IjIyIiB3aWR0aD0iMjIuNjg3NjgzMTA1NDY4NzUiIHk9IjY4IiB4PSI5Mi4zMzkzNDAyMDk5NjA5NCIgY2xhc3M9ImVyIGF0dHJpYnV0ZUJveE9kZCI+PC9yZWN0Pjx0ZXh0IHN0eWxlPSJkb21pbmFudC1iYXNlbGluZTogbWlkZGxlOyBmb250LXNpemU6IDEwLjJweDsiIHRyYW5zZm9ybT0idHJhbnNsYXRlKDk3LjMzOTM0MDIwOTk2MDk0LDc5KSIgeT0iMCIgeD0iMCIgaWQ9InRleHQtZW50aXR5LU9SREVSSVRFTS1lNTM0OWQ3Mi1iNDdiLTU1YmUtODAyMC0xMTMwMTY0MjVmNjItYXR0ci0zLWtleSIgY2xhc3M9ImVyIGVudGl0eUxhYmVsIj5GSzwvdGV4dD48cmVjdCBoZWlnaHQ9IjIyIiB3aWR0aD0iMzIuNjEwOTAwODc4OTA2MjUiIHk9IjkwIiB4PSIwIiBjbGFzcz0iZXIgYXR0cmlidXRlQm94RXZlbiI+PC9yZWN0Pjx0ZXh0IHN0eWxlPSJkb21pbmFudC1iYXNlbGluZTogbWlkZGxlOyBmb250LXNpemU6IDEwLjJweDsiIHRyYW5zZm9ybT0idHJhbnNsYXRlKDUsMTAxKSIgeT0iMCIgeD0iMCIgaWQ9InRleHQtZW50aXR5LU9SREVSSVRFTS1lNTM0OWQ3Mi1iNDdiLTU1YmUtODAyMC0xMTMwMTY0MjVmNjItYXR0ci00LXR5cGUiIGNsYXNzPSJlciBlbnRpdHlMYWJlbCI+aW50PC90ZXh0PjxyZWN0IGhlaWdodD0iMjIiIHdpZHRoPSI1OS43Mjg0MzkzMzEwNTQ2OSIgeT0iOTAiIHg9IjMyLjYxMDkwMDg3ODkwNjI1IiBjbGFzcz0iZXIgYXR0cmlidXRlQm94RXZlbiI+PC9yZWN0Pjx0ZXh0IHN0eWxlPSJkb21pbmFudC1iYXNlbGluZTogbWlkZGxlOyBmb250LXNpemU6IDEwLjJweDsiIHRyYW5zZm9ybT0idHJhbnNsYXRlKDM3LjYxMDkwMDg3ODkwNjI1LDEwMSkiIHk9IjAiIHg9IjAiIGlkPSJ0ZXh0LWVudGl0eS1PUkRFUklURU0tZTUzNDlkNzItYjQ3Yi01NWJlLTgwMjAtMTEzMDE2NDI1ZjYyLWF0dHItNC1uYW1lIiBjbGFzcz0iZXIgZW50aXR5TGFiZWwiPnF1YW50aXR5PC90ZXh0PjxyZWN0IGhlaWdodD0iMjIiIHdpZHRoPSIyMi42ODc2ODMxMDU0Njg3NSIgeT0iOTAiIHg9IjkyLjMzOTM0MDIwOTk2MDk0IiBjbGFzcz0iZXIgYXR0cmlidXRlQm94RXZlbiI+PC9yZWN0Pjx0ZXh0IHN0eWxlPSJkb21pbmFudC1iYXNlbGluZTogbWlkZGxlOyBmb250LXNpemU6IDEwLjJweDsiIHRyYW5zZm9ybT0idHJhbnNsYXRlKDk3LjMzOTM0MDIwOTk2MDk0LDEwMSkiIHk9IjAiIHg9IjAiIGlkPSJ0ZXh0LWVudGl0eS1PUkRFUklURU0tZTUzNDlkNzItYjQ3Yi01NWJlLTgwMjAtMTEzMDE2NDI1ZjYyLWF0dHItNC1rZXkiIGNsYXNzPSJlciBlbnRpdHlMYWJlbCI+PC90ZXh0PjxyZWN0IGhlaWdodD0iMjIiIHdpZHRoPSIzMi42MTA5MDA4Nzg5MDYyNSIgeT0iMTEyIiB4PSIwIiBjbGFzcz0iZXIgYXR0cmlidXRlQm94T2RkIj48L3JlY3Q+PHRleHQgc3R5bGU9ImRvbWluYW50LWJhc2VsaW5lOiBtaWRkbGU7IGZvbnQtc2l6ZTogMTAuMnB4OyIgdHJhbnNmb3JtPSJ0cmFuc2xhdGUoNSwxMjMpIiB5PSIwIiB4PSIwIiBpZD0idGV4dC1lbnRpdHktT1JERVJJVEVNLWU1MzQ5ZDcyLWI0N2ItNTViZS04MDIwLTExMzAxNjQyNWY2Mi1hdHRyLTUtdHlwZSIgY2xhc3M9ImVyIGVudGl0eUxhYmVsIj5mbG9hdDwvdGV4dD48cmVjdCBoZWlnaHQ9IjIyIiB3aWR0aD0iNTkuNzI4NDM5MzMxMDU0NjkiIHk9IjExMiIgeD0iMzIuNjEwOTAwODc4OTA2MjUiIGNsYXNzPSJlciBhdHRyaWJ1dGVCb3hPZGQiPjwvcmVjdD48dGV4dCBzdHlsZT0iZG9taW5hbnQtYmFzZWxpbmU6IG1pZGRsZTsgZm9udC1zaXplOiAxMC4ycHg7IiB0cmFuc2Zvcm09InRyYW5zbGF0ZSgzNy42MTA5MDA4Nzg5MDYyNSwxMjMpIiB5PSIwIiB4PSIwIiBpZD0idGV4dC1lbnRpdHktT1JERVJJVEVNLWU1MzQ5ZDcyLWI0N2ItNTViZS04MDIwLTExMzAxNjQyNWY2Mi1hdHRyLTUtbmFtZSIgY2xhc3M9ImVyIGVudGl0eUxhYmVsIj51bml0X3ByaWNlPC90ZXh0PjxyZWN0IGhlaWdodD0iMjIiIHdpZHRoPSIyMi42ODc2ODMxMDU0Njg3NSIgeT0iMTEyIiB4PSI5Mi4zMzkzNDAyMDk5NjA5NCIgY2xhc3M9ImVyIGF0dHJpYnV0ZUJveE9kZCI+PC9yZWN0Pjx0ZXh0IHN0eWxlPSJkb21pbmFudC1iYXNlbGluZTogbWlkZGxlOyBmb250LXNpemU6IDEwLjJweDsiIHRyYW5zZm9ybT0idHJhbnNsYXRlKDk3LjMzOTM0MDIwOTk2MDk0LDEyMykiIHk9IjAiIHg9IjAiIGlkPSJ0ZXh0LWVudGl0eS1PUkRFUklURU0tZTUzNDlkNzItYjQ3Yi01NWJlLTgwMjAtMTEzMDE2NDI1ZjYyLWF0dHItNS1rZXkiIGNsYXNzPSJlciBlbnRpdHlMYWJlbCI+PC90ZXh0PjwvZz48ZyB0cmFuc2Zvcm09InRyYW5zbGF0ZSgxMzk3LjM5NDAzMTUyNDY1ODIsNjUzICkiIGlkPSJlbnRpdHktUEFZTUVOVC05Nzk3ZWVlOC03YTAxLTVlZmUtYWFhNS1mYjlhNGYxNDk1N2MiPjxyZWN0IGhlaWdodD0iMTU2IiB3aWR0aD0iMTY0Ljk0NTE0NDY1MzMyMDMiIHk9IjAiIHg9IjAiIGNsYXNzPSJlciBlbnRpdHlCb3giPjwvcmVjdD48dGV4dCBzdHlsZT0iZG9taW5hbnQtYmFzZWxpbmU6IG1pZGRsZTsgdGV4dC1hbmNob3I6IG1pZGRsZTsgZm9udC1zaXplOiAxMnB4OyIgdHJhbnNmb3JtPSJ0cmFuc2xhdGUoODIuNDcyNTcyMzI2NjYwMTYsMTIpIiB5PSIwIiB4PSIwIiBpZD0idGV4dC1lbnRpdHktUEFZTUVOVC05Nzk3ZWVlOC03YTAxLTVlZmUtYWFhNS1mYjlhNGYxNDk1N2MiIGNsYXNzPSJlciBlbnRpdHlMYWJlbCI+UEFZTUVOVDwvdGV4dD48cmVjdCBoZWlnaHQ9IjIyIiB3aWR0aD0iNTIuMDY4NDk2NzA0MTAxNTYiIHk9IjI0IiB4PSIwIiBjbGFzcz0iZXIgYXR0cmlidXRlQm94T2RkIj48L3JlY3Q+PHRleHQgc3R5bGU9ImRvbWluYW50LWJhc2VsaW5lOiBtaWRkbGU7IGZvbnQtc2l6ZTogMTAuMnB4OyIgdHJhbnNmb3JtPSJ0cmFuc2xhdGUoNSwzNSkiIHk9IjAiIHg9IjAiIGlkPSJ0ZXh0LWVudGl0eS1QQVlNRU5ULTk3OTdlZWU4LTdhMDEtNWVmZS1hYWE1LWZiOWE0ZjE0OTU3Yy1hdHRyLTEtdHlwZSIgY2xhc3M9ImVyIGVudGl0eUxhYmVsIj5pbnQ8L3RleHQ+PHJlY3QgaGVpZ2h0PSIyMiIgd2lkdGg9IjkwLjE4ODk2NDg0Mzc1IiB5PSIyNCIgeD0iNTIuMDY4NDk2NzA0MTAxNTYiIGNsYXNzPSJlciBhdHRyaWJ1dGVCb3hPZGQiPjwvcmVjdD48dGV4dCBzdHlsZT0iZG9taW5hbnQtYmFzZWxpbmU6IG1pZGRsZTsgZm9udC1zaXplOiAxMC4ycHg7IiB0cmFuc2Zvcm09InRyYW5zbGF0ZSg1Ny4wNjg0OTY3MDQxMDE1NiwzNSkiIHk9IjAiIHg9IjAiIGlkPSJ0ZXh0LWVudGl0eS1QQVlNRU5ULTk3OTdlZWU4LTdhMDEtNWVmZS1hYWE1LWZiOWE0ZjE0OTU3Yy1hdHRyLTEtbmFtZSIgY2xhc3M9ImVyIGVudGl0eUxhYmVsIj5pZDwvdGV4dD48cmVjdCBoZWlnaHQ9IjIyIiB3aWR0aD0iMjIuNjg3NjgzMTA1NDY4NzUiIHk9IjI0IiB4PSIxNDIuMjU3NDYxNTQ3ODUxNTYiIGNsYXNzPSJlciBhdHRyaWJ1dGVCb3hPZGQiPjwvcmVjdD48dGV4dCBzdHlsZT0iZG9taW5hbnQtYmFzZWxpbmU6IG1pZGRsZTsgZm9udC1zaXplOiAxMC4ycHg7IiB0cmFuc2Zvcm09InRyYW5zbGF0ZSgxNDcuMjU3NDYxNTQ3ODUxNTYsMzUpIiB5PSIwIiB4PSIwIiBpZD0idGV4dC1lbnRpdHktUEFZTUVOVC05Nzk3ZWVlOC03YTAxLTVlZmUtYWFhNS1mYjlhNGYxNDk1N2MtYXR0ci0xLWtleSIgY2xhc3M9ImVyIGVudGl0eUxhYmVsIj5QSzwvdGV4dD48cmVjdCBoZWlnaHQ9IjIyIiB3aWR0aD0iNTIuMDY4NDk2NzA0MTAxNTYiIHk9IjQ2IiB4PSIwIiBjbGFzcz0iZXIgYXR0cmlidXRlQm94RXZlbiI+PC9yZWN0Pjx0ZXh0IHN0eWxlPSJkb21pbmFudC1iYXNlbGluZTogbWlkZGxlOyBmb250LXNpemU6IDEwLjJweDsiIHRyYW5zZm9ybT0idHJhbnNsYXRlKDUsNTcpIiB5PSIwIiB4PSIwIiBpZD0idGV4dC1lbnRpdHktUEFZTUVOVC05Nzk3ZWVlOC03YTAxLTVlZmUtYWFhNS1mYjlhNGYxNDk1N2MtYXR0ci0yLXR5cGUiIGNsYXNzPSJlciBlbnRpdHlMYWJlbCI+aW50PC90ZXh0PjxyZWN0IGhlaWdodD0iMjIiIHdpZHRoPSI5MC4xODg5NjQ4NDM3NSIgeT0iNDYiIHg9IjUyLjA2ODQ5NjcwNDEwMTU2IiBjbGFzcz0iZXIgYXR0cmlidXRlQm94RXZlbiI+PC9yZWN0Pjx0ZXh0IHN0eWxlPSJkb21pbmFudC1iYXNlbGluZTogbWlkZGxlOyBmb250LXNpemU6IDEwLjJweDsiIHRyYW5zZm9ybT0idHJhbnNsYXRlKDU3LjA2ODQ5NjcwNDEwMTU2LDU3KSIgeT0iMCIgeD0iMCIgaWQ9InRleHQtZW50aXR5LVBBWU1FTlQtOTc5N2VlZTgtN2EwMS01ZWZlLWFhYTUtZmI5YTRmMTQ5NTdjLWF0dHItMi1uYW1lIiBjbGFzcz0iZXIgZW50aXR5TGFiZWwiPm9yZGVyX2lkPC90ZXh0PjxyZWN0IGhlaWdodD0iMjIiIHdpZHRoPSIyMi42ODc2ODMxMDU0Njg3NSIgeT0iNDYiIHg9IjE0Mi4yNTc0NjE1NDc4NTE1NiIgY2xhc3M9ImVyIGF0dHJpYnV0ZUJveEV2ZW4iPjwvcmVjdD48dGV4dCBzdHlsZT0iZG9taW5hbnQtYmFzZWxpbmU6IG1pZGRsZTsgZm9udC1zaXplOiAxMC4ycHg7IiB0cmFuc2Zvcm09InRyYW5zbGF0ZSgxNDcuMjU3NDYxNTQ3ODUxNTYsNTcpIiB5PSIwIiB4PSIwIiBpZD0idGV4dC1lbnRpdHktUEFZTUVOVC05Nzk3ZWVlOC03YTAxLTVlZmUtYWFhNS1mYjlhNGYxNDk1N2MtYXR0ci0yLWtleSIgY2xhc3M9ImVyIGVudGl0eUxhYmVsIj5GSzwvdGV4dD48cmVjdCBoZWlnaHQ9IjIyIiB3aWR0aD0iNTIuMDY4NDk2NzA0MTAxNTYiIHk9IjY4IiB4PSIwIiBjbGFzcz0iZXIgYXR0cmlidXRlQm94T2RkIj48L3JlY3Q+PHRleHQgc3R5bGU9ImRvbWluYW50LWJhc2VsaW5lOiBtaWRkbGU7IGZvbnQtc2l6ZTogMTAuMnB4OyIgdHJhbnNmb3JtPSJ0cmFuc2xhdGUoNSw3OSkiIHk9IjAiIHg9IjAiIGlkPSJ0ZXh0LWVudGl0eS1QQVlNRU5ULTk3OTdlZWU4LTdhMDEtNWVmZS1hYWE1LWZiOWE0ZjE0OTU3Yy1hdHRyLTMtdHlwZSIgY2xhc3M9ImVyIGVudGl0eUxhYmVsIj5zdHJpbmc8L3RleHQ+PHJlY3QgaGVpZ2h0PSIyMiIgd2lkdGg9IjkwLjE4ODk2NDg0Mzc1IiB5PSI2OCIgeD0iNTIuMDY4NDk2NzA0MTAxNTYiIGNsYXNzPSJlciBhdHRyaWJ1dGVCb3hPZGQiPjwvcmVjdD48dGV4dCBzdHlsZT0iZG9taW5hbnQtYmFzZWxpbmU6IG1pZGRsZTsgZm9udC1zaXplOiAxMC4ycHg7IiB0cmFuc2Zvcm09InRyYW5zbGF0ZSg1Ny4wNjg0OTY3MDQxMDE1Niw3OSkiIHk9IjAiIHg9IjAiIGlkPSJ0ZXh0LWVudGl0eS1QQVlNRU5ULTk3OTdlZWU4LTdhMDEtNWVmZS1hYWE1LWZiOWE0ZjE0OTU3Yy1hdHRyLTMtbmFtZSIgY2xhc3M9ImVyIGVudGl0eUxhYmVsIj5wYXltZW50X21ldGhvZDwvdGV4dD48cmVjdCBoZWlnaHQ9IjIyIiB3aWR0aD0iMjIuNjg3NjgzMTA1NDY4NzUiIHk9IjY4IiB4PSIxNDIuMjU3NDYxNTQ3ODUxNTYiIGNsYXNzPSJlciBhdHRyaWJ1dGVCb3hPZGQiPjwvcmVjdD48dGV4dCBzdHlsZT0iZG9taW5hbnQtYmFzZWxpbmU6IG1pZGRsZTsgZm9udC1zaXplOiAxMC4ycHg7IiB0cmFuc2Zvcm09InRyYW5zbGF0ZSgxNDcuMjU3NDYxNTQ3ODUxNTYsNzkpIiB5PSIwIiB4PSIwIiBpZD0idGV4dC1lbnRpdHktUEFZTUVOVC05Nzk3ZWVlOC03YTAxLTVlZmUtYWFhNS1mYjlhNGYxNDk1N2MtYXR0ci0zLWtleSIgY2xhc3M9ImVyIGVudGl0eUxhYmVsIj48L3RleHQ+PHJlY3QgaGVpZ2h0PSIyMiIgd2lkdGg9IjUyLjA2ODQ5NjcwNDEwMTU2IiB5PSI5MCIgeD0iMCIgY2xhc3M9ImVyIGF0dHJpYnV0ZUJveEV2ZW4iPjwvcmVjdD48dGV4dCBzdHlsZT0iZG9taW5hbnQtYmFzZWxpbmU6IG1pZGRsZTsgZm9udC1zaXplOiAxMC4ycHg7IiB0cmFuc2Zvcm09InRyYW5zbGF0ZSg1LDEwMSkiIHk9IjAiIHg9IjAiIGlkPSJ0ZXh0LWVudGl0eS1QQVlNRU5ULTk3OTdlZWU4LTdhMDEtNWVmZS1hYWE1LWZiOWE0ZjE0OTU3Yy1hdHRyLTQtdHlwZSIgY2xhc3M9ImVyIGVudGl0eUxhYmVsIj5mbG9hdDwvdGV4dD48cmVjdCBoZWlnaHQ9IjIyIiB3aWR0aD0iOTAuMTg4OTY0ODQzNzUiIHk9IjkwIiB4PSI1Mi4wNjg0OTY3MDQxMDE1NiIgY2xhc3M9ImVyIGF0dHJpYnV0ZUJveEV2ZW4iPjwvcmVjdD48dGV4dCBzdHlsZT0iZG9taW5hbnQtYmFzZWxpbmU6IG1pZGRsZTsgZm9udC1zaXplOiAxMC4ycHg7IiB0cmFuc2Zvcm09InRyYW5zbGF0ZSg1Ny4wNjg0OTY3MDQxMDE1NiwxMDEpIiB5PSIwIiB4PSIwIiBpZD0idGV4dC1lbnRpdHktUEFZTUVOVC05Nzk3ZWVlOC03YTAxLTVlZmUtYWFhNS1mYjlhNGYxNDk1N2MtYXR0ci00LW5hbWUiIGNsYXNzPSJlciBlbnRpdHlMYWJlbCI+YW1vdW50PC90ZXh0PjxyZWN0IGhlaWdodD0iMjIiIHdpZHRoPSIyMi42ODc2ODMxMDU0Njg3NSIgeT0iOTAiIHg9IjE0Mi4yNTc0NjE1NDc4NTE1NiIgY2xhc3M9ImVyIGF0dHJpYnV0ZUJveEV2ZW4iPjwvcmVjdD48dGV4dCBzdHlsZT0iZG9taW5hbnQtYmFzZWxpbmU6IG1pZGRsZTsgZm9udC1zaXplOiAxMC4ycHg7IiB0cmFuc2Zvcm09InRyYW5zbGF0ZSgxNDcuMjU3NDYxNTQ3ODUxNTYsMTAxKSIgeT0iMCIgeD0iMCIgaWQ9InRleHQtZW50aXR5LVBBWU1FTlQtOTc5N2VlZTgtN2EwMS01ZWZlLWFhYTUtZmI5YTRmMTQ5NTdjLWF0dHItNC1rZXkiIGNsYXNzPSJlciBlbnRpdHlMYWJlbCI+PC90ZXh0PjxyZWN0IGhlaWdodD0iMjIiIHdpZHRoPSI1Mi4wNjg0OTY3MDQxMDE1NiIgeT0iMTEyIiB4PSIwIiBjbGFzcz0iZXIgYXR0cmlidXRlQm94T2RkIj48L3JlY3Q+PHRleHQgc3R5bGU9ImRvbWluYW50LWJhc2VsaW5lOiBtaWRkbGU7IGZvbnQtc2l6ZTogMTAuMnB4OyIgdHJhbnNmb3JtPSJ0cmFuc2xhdGUoNSwxMjMpIiB5PSIwIiB4PSIwIiBpZD0idGV4dC1lbnRpdHktUEFZTUVOVC05Nzk3ZWVlOC03YTAxLTVlZmUtYWFhNS1mYjlhNGYxNDk1N2MtYXR0ci01LXR5cGUiIGNsYXNzPSJlciBlbnRpdHlMYWJlbCI+c3RyaW5nPC90ZXh0PjxyZWN0IGhlaWdodD0iMjIiIHdpZHRoPSI5MC4xODg5NjQ4NDM3NSIgeT0iMTEyIiB4PSI1Mi4wNjg0OTY3MDQxMDE1NiIgY2xhc3M9ImVyIGF0dHJpYnV0ZUJveE9kZCI+PC9yZWN0Pjx0ZXh0IHN0eWxlPSJkb21pbmFudC1iYXNlbGluZTogbWlkZGxlOyBmb250LXNpemU6IDEwLjJweDsiIHRyYW5zZm9ybT0idHJhbnNsYXRlKDU3LjA2ODQ5NjcwNDEwMTU2LDEyMykiIHk9IjAiIHg9IjAiIGlkPSJ0ZXh0LWVudGl0eS1QQVlNRU5ULTk3OTdlZWU4LTdhMDEtNWVmZS1hYWE1LWZiOWE0ZjE0OTU3Yy1hdHRyLTUtbmFtZSIgY2xhc3M9ImVyIGVudGl0eUxhYmVsIj5zdGF0dXM8L3RleHQ+PHJlY3QgaGVpZ2h0PSIyMiIgd2lkdGg9IjIyLjY4NzY4MzEwNTQ2ODc1IiB5PSIxMTIiIHg9IjE0Mi4yNTc0NjE1NDc4NTE1NiIgY2xhc3M9ImVyIGF0dHJpYnV0ZUJveE9kZCI+PC9yZWN0Pjx0ZXh0IHN0eWxlPSJkb21pbmFudC1iYXNlbGluZTogbWlkZGxlOyBmb250LXNpemU6IDEwLjJweDsiIHRyYW5zZm9ybT0idHJhbnNsYXRlKDE0Ny4yNTc0NjE1NDc4NTE1NiwxMjMpIiB5PSIwIiB4PSIwIiBpZD0idGV4dC1lbnRpdHktUEFZTUVOVC05Nzk3ZWVlOC03YTAxLTVlZmUtYWFhNS1mYjlhNGYxNDk1N2MtYXR0ci01LWtleSIgY2xhc3M9ImVyIGVudGl0eUxhYmVsIj48L3RleHQ+PHJlY3QgaGVpZ2h0PSIyMiIgd2lkdGg9IjUyLjA2ODQ5NjcwNDEwMTU2IiB5PSIxMzQiIHg9IjAiIGNsYXNzPSJlciBhdHRyaWJ1dGVCb3hFdmVuIj48L3JlY3Q+PHRleHQgc3R5bGU9ImRvbWluYW50LWJhc2VsaW5lOiBtaWRkbGU7IGZvbnQtc2l6ZTogMTAuMnB4OyIgdHJhbnNmb3JtPSJ0cmFuc2xhdGUoNSwxNDUpIiB5PSIwIiB4PSIwIiBpZD0idGV4dC1lbnRpdHktUEFZTUVOVC05Nzk3ZWVlOC03YTAxLTVlZmUtYWFhNS1mYjlhNGYxNDk1N2MtYXR0ci02LXR5cGUiIGNsYXNzPSJlciBlbnRpdHlMYWJlbCI+ZGF0ZXRpbWU8L3RleHQ+PHJlY3QgaGVpZ2h0PSIyMiIgd2lkdGg9IjkwLjE4ODk2NDg0Mzc1IiB5PSIxMzQiIHg9IjUyLjA2ODQ5NjcwNDEwMTU2IiBjbGFzcz0iZXIgYXR0cmlidXRlQm94RXZlbiI+PC9yZWN0Pjx0ZXh0IHN0eWxlPSJkb21pbmFudC1iYXNlbGluZTogbWlkZGxlOyBmb250LXNpemU6IDEwLjJweDsiIHRyYW5zZm9ybT0idHJhbnNsYXRlKDU3LjA2ODQ5NjcwNDEwMTU2LDE0NSkiIHk9IjAiIHg9IjAiIGlkPSJ0ZXh0LWVudGl0eS1QQVlNRU5ULTk3OTdlZWU4LTdhMDEtNWVmZS1hYWE1LWZiOWE0ZjE0OTU3Yy1hdHRyLTYtbmFtZSIgY2xhc3M9ImVyIGVudGl0eUxhYmVsIj5wYXltZW50X2RhdGU8L3RleHQ+PHJlY3QgaGVpZ2h0PSIyMiIgd2lkdGg9IjIyLjY4NzY4MzEwNTQ2ODc1IiB5PSIxMzQiIHg9IjE0Mi4yNTc0NjE1NDc4NTE1NiIgY2xhc3M9ImVyIGF0dHJpYnV0ZUJveEV2ZW4iPjwvcmVjdD48dGV4dCBzdHlsZT0iZG9taW5hbnQtYmFzZWxpbmU6IG1pZGRsZTsgZm9udC1zaXplOiAxMC4ycHg7IiB0cmFuc2Zvcm09InRyYW5zbGF0ZSgxNDcuMjU3NDYxNTQ3ODUxNTYsMTQ1KSIgeT0iMCIgeD0iMCIgaWQ9InRleHQtZW50aXR5LVBBWU1FTlQtOTc5N2VlZTgtN2EwMS01ZWZlLWFhYTUtZmI5YTRmMTQ5NTdjLWF0dHItNi1rZXkiIGNsYXNzPSJlciBlbnRpdHlMYWJlbCI+PC90ZXh0PjwvZz48ZyB0cmFuc2Zvcm09InRyYW5zbGF0ZSgxNjYyLjMzOTE3NjE3Nzk3ODUsNjUzICkiIGlkPSJlbnRpdHktU0hJUFBJTkctZGMzY2RmZGQtZTFhOS01NmI5LWI4YjktNWI2Yjc0YWRlYmMwIj48cmVjdCBoZWlnaHQ9IjE1NiIgd2lkdGg9IjE3MC4wNTAwNzkzNDU3MDMxMiIgeT0iMCIgeD0iMCIgY2xhc3M9ImVyIGVudGl0eUJveCI+PC9yZWN0Pjx0ZXh0IHN0eWxlPSJkb21pbmFudC1iYXNlbGluZTogbWlkZGxlOyB0ZXh0LWFuY2hvcjogbWlkZGxlOyBmb250LXNpemU6IDEycHg7IiB0cmFuc2Zvcm09InRyYW5zbGF0ZSg4NS4wMjUwMzk2NzI4NTE1NiwxMikiIHk9IjAiIHg9IjAiIGlkPSJ0ZXh0LWVudGl0eS1TSElQUElORy1kYzNjZGZkZC1lMWE5LTU2YjktYjhiOS01YjZiNzRhZGViYzAiIGNsYXNzPSJlciBlbnRpdHlMYWJlbCI+U0hJUFBJTkc8L3RleHQ+PHJlY3QgaGVpZ2h0PSIyMiIgd2lkdGg9IjUyLjA2ODQ5NjcwNDEwMTU2IiB5PSIyNCIgeD0iMCIgY2xhc3M9ImVyIGF0dHJpYnV0ZUJveE9kZCI+PC9yZWN0Pjx0ZXh0IHN0eWxlPSJkb21pbmFudC1iYXNlbGluZTogbWlkZGxlOyBmb250LXNpemU6IDEwLjJweDsiIHRyYW5zZm9ybT0idHJhbnNsYXRlKDUsMzUpIiB5PSIwIiB4PSIwIiBpZD0idGV4dC1lbnRpdHktU0hJUFBJTkctZGMzY2RmZGQtZTFhOS01NmI5LWI4YjktNWI2Yjc0YWRlYmMwLWF0dHItMS10eXBlIiBjbGFzcz0iZXIgZW50aXR5TGFiZWwiPmludDwvdGV4dD48cmVjdCBoZWlnaHQ9IjIyIiB3aWR0aD0iOTUuMjkzODk5NTM2MTMyODEiIHk9IjI0IiB4PSI1Mi4wNjg0OTY3MDQxMDE1NiIgY2xhc3M9ImVyIGF0dHJpYnV0ZUJveE9kZCI+PC9yZWN0Pjx0ZXh0IHN0eWxlPSJkb21pbmFudC1iYXNlbGluZTogbWlkZGxlOyBmb250LXNpemU6IDEwLjJweDsiIHRyYW5zZm9ybT0idHJhbnNsYXRlKDU3LjA2ODQ5NjcwNDEwMTU2LDM1KSIgeT0iMCIgeD0iMCIgaWQ9InRleHQtZW50aXR5LVNISVBQSU5HLWRjM2NkZmRkLWUxYTktNTZiOS1iOGI5LTViNmI3NGFkZWJjMC1hdHRyLTEtbmFtZSIgY2xhc3M9ImVyIGVudGl0eUxhYmVsIj5pZDwvdGV4dD48cmVjdCBoZWlnaHQ9IjIyIiB3aWR0aD0iMjIuNjg3NjgzMTA1NDY4NzUiIHk9IjI0IiB4PSIxNDcuMzYyMzk2MjQwMjM0MzgiIGNsYXNzPSJlciBhdHRyaWJ1dGVCb3hPZGQiPjwvcmVjdD48dGV4dCBzdHlsZT0iZG9taW5hbnQtYmFzZWxpbmU6IG1pZGRsZTsgZm9udC1zaXplOiAxMC4ycHg7IiB0cmFuc2Zvcm09InRyYW5zbGF0ZSgxNTIuMzYyMzk2MjQwMjM0MzgsMzUpIiB5PSIwIiB4PSIwIiBpZD0idGV4dC1lbnRpdHktU0hJUFBJTkctZGMzY2RmZGQtZTFhOS01NmI5LWI4YjktNWI2Yjc0YWRlYmMwLWF0dHItMS1rZXkiIGNsYXNzPSJlciBlbnRpdHlMYWJlbCI+UEs8L3RleHQ+PHJlY3QgaGVpZ2h0PSIyMiIgd2lkdGg9IjUyLjA2ODQ5NjcwNDEwMTU2IiB5PSI0NiIgeD0iMCIgY2xhc3M9ImVyIGF0dHJpYnV0ZUJveEV2ZW4iPjwvcmVjdD48dGV4dCBzdHlsZT0iZG9taW5hbnQtYmFzZWxpbmU6IG1pZGRsZTsgZm9udC1zaXplOiAxMC4ycHg7IiB0cmFuc2Zvcm09InRyYW5zbGF0ZSg1LDU3KSIgeT0iMCIgeD0iMCIgaWQ9InRleHQtZW50aXR5LVNISVBQSU5HLWRjM2NkZmRkLWUxYTktNTZiOS1iOGI5LTViNmI3NGFkZWJjMC1hdHRyLTItdHlwZSIgY2xhc3M9ImVyIGVudGl0eUxhYmVsIj5pbnQ8L3RleHQ+PHJlY3QgaGVpZ2h0PSIyMiIgd2lkdGg9Ijk1LjI5Mzg5OTUzNjEzMjgxIiB5PSI0NiIgeD0iNTIuMDY4NDk2NzA0MTAxNTYiIGNsYXNzPSJlciBhdHRyaWJ1dGVCb3hFdmVuIj48L3JlY3Q+PHRleHQgc3R5bGU9ImRvbWluYW50LWJhc2VsaW5lOiBtaWRkbGU7IGZvbnQtc2l6ZTogMTAuMnB4OyIgdHJhbnNmb3JtPSJ0cmFuc2xhdGUoNTcuMDY4NDk2NzA0MTAxNTYsNTcpIiB5PSIwIiB4PSIwIiBpZD0idGV4dC1lbnRpdHktU0hJUFBJTkctZGMzY2RmZGQtZTFhOS01NmI5LWI4YjktNWI2Yjc0YWRlYmMwLWF0dHItMi1uYW1lIiBjbGFzcz0iZXIgZW50aXR5TGFiZWwiPm9yZGVyX2lkPC90ZXh0PjxyZWN0IGhlaWdodD0iMjIiIHdpZHRoPSIyMi42ODc2ODMxMDU0Njg3NSIgeT0iNDYiIHg9IjE0Ny4zNjIzOTYyNDAyMzQzOCIgY2xhc3M9ImVyIGF0dHJpYnV0ZUJveEV2ZW4iPjwvcmVjdD48dGV4dCBzdHlsZT0iZG9taW5hbnQtYmFzZWxpbmU6IG1pZGRsZTsgZm9udC1zaXplOiAxMC4ycHg7IiB0cmFuc2Zvcm09InRyYW5zbGF0ZSgxNTIuMzYyMzk2MjQwMjM0MzgsNTcpIiB5PSIwIiB4PSIwIiBpZD0idGV4dC1lbnRpdHktU0hJUFBJTkctZGMzY2RmZGQtZTFhOS01NmI5LWI4YjktNWI2Yjc0YWRlYmMwLWF0dHItMi1rZXkiIGNsYXNzPSJlciBlbnRpdHlMYWJlbCI+Rks8L3RleHQ+PHJlY3QgaGVpZ2h0PSIyMiIgd2lkdGg9IjUyLjA2ODQ5NjcwNDEwMTU2IiB5PSI2OCIgeD0iMCIgY2xhc3M9ImVyIGF0dHJpYnV0ZUJveE9kZCI+PC9yZWN0Pjx0ZXh0IHN0eWxlPSJkb21pbmFudC1iYXNlbGluZTogbWlkZGxlOyBmb250LXNpemU6IDEwLjJweDsiIHRyYW5zZm9ybT0idHJhbnNsYXRlKDUsNzkpIiB5PSIwIiB4PSIwIiBpZD0idGV4dC1lbnRpdHktU0hJUFBJTkctZGMzY2RmZGQtZTFhOS01NmI5LWI4YjktNWI2Yjc0YWRlYmMwLWF0dHItMy10eXBlIiBjbGFzcz0iZXIgZW50aXR5TGFiZWwiPnN0cmluZzwvdGV4dD48cmVjdCBoZWlnaHQ9IjIyIiB3aWR0aD0iOTUuMjkzODk5NTM2MTMyODEiIHk9IjY4IiB4PSI1Mi4wNjg0OTY3MDQxMDE1NiIgY2xhc3M9ImVyIGF0dHJpYnV0ZUJveE9kZCI+PC9yZWN0Pjx0ZXh0IHN0eWxlPSJkb21pbmFudC1iYXNlbGluZTogbWlkZGxlOyBmb250LXNpemU6IDEwLjJweDsiIHRyYW5zZm9ybT0idHJhbnNsYXRlKDU3LjA2ODQ5NjcwNDEwMTU2LDc5KSIgeT0iMCIgeD0iMCIgaWQ9InRleHQtZW50aXR5LVNISVBQSU5HLWRjM2NkZmRkLWUxYTktNTZiOS1iOGI5LTViNmI3NGFkZWJjMC1hdHRyLTMtbmFtZSIgY2xhc3M9ImVyIGVudGl0eUxhYmVsIj5zaGlwcGluZ19hZGRyZXNzPC90ZXh0PjxyZWN0IGhlaWdodD0iMjIiIHdpZHRoPSIyMi42ODc2ODMxMDU0Njg3NSIgeT0iNjgiIHg9IjE0Ny4zNjIzOTYyNDAyMzQzOCIgY2xhc3M9ImVyIGF0dHJpYnV0ZUJveE9kZCI+PC9yZWN0Pjx0ZXh0IHN0eWxlPSJkb21pbmFudC1iYXNlbGluZTogbWlkZGxlOyBmb250LXNpemU6IDEwLjJweDsiIHRyYW5zZm9ybT0idHJhbnNsYXRlKDE1Mi4zNjIzOTYyNDAyMzQzOCw3OSkiIHk9IjAiIHg9IjAiIGlkPSJ0ZXh0LWVudGl0eS1TSElQUElORy1kYzNjZGZkZC1lMWE5LTU2YjktYjhiOS01YjZiNzRhZGViYzAtYXR0ci0zLWtleSIgY2xhc3M9ImVyIGVudGl0eUxhYmVsIj48L3RleHQ+PHJlY3QgaGVpZ2h0PSIyMiIgd2lkdGg9IjUyLjA2ODQ5NjcwNDEwMTU2IiB5PSI5MCIgeD0iMCIgY2xhc3M9ImVyIGF0dHJpYnV0ZUJveEV2ZW4iPjwvcmVjdD48dGV4dCBzdHlsZT0iZG9taW5hbnQtYmFzZWxpbmU6IG1pZGRsZTsgZm9udC1zaXplOiAxMC4ycHg7IiB0cmFuc2Zvcm09InRyYW5zbGF0ZSg1LDEwMSkiIHk9IjAiIHg9IjAiIGlkPSJ0ZXh0LWVudGl0eS1TSElQUElORy1kYzNjZGZkZC1lMWE5LTU2YjktYjhiOS01YjZiNzRhZGViYzAtYXR0ci00LXR5cGUiIGNsYXNzPSJlciBlbnRpdHlMYWJlbCI+c3RyaW5nPC90ZXh0PjxyZWN0IGhlaWdodD0iMjIiIHdpZHRoPSI5NS4yOTM4OTk1MzYxMzI4MSIgeT0iOTAiIHg9IjUyLjA2ODQ5NjcwNDEwMTU2IiBjbGFzcz0iZXIgYXR0cmlidXRlQm94RXZlbiI+PC9yZWN0Pjx0ZXh0IHN0eWxlPSJkb21pbmFudC1iYXNlbGluZTogbWlkZGxlOyBmb250LXNpemU6IDEwLjJweDsiIHRyYW5zZm9ybT0idHJhbnNsYXRlKDU3LjA2ODQ5NjcwNDEwMTU2LDEwMSkiIHk9IjAiIHg9IjAiIGlkPSJ0ZXh0LWVudGl0eS1TSElQUElORy1kYzNjZGZkZC1lMWE5LTU2YjktYjhiOS01YjZiNzRhZGViYzAtYXR0ci00LW5hbWUiIGNsYXNzPSJlciBlbnRpdHlMYWJlbCI+c2hpcHBpbmdfc3RhdHVzPC90ZXh0PjxyZWN0IGhlaWdodD0iMjIiIHdpZHRoPSIyMi42ODc2ODMxMDU0Njg3NSIgeT0iOTAiIHg9IjE0Ny4zNjIzOTYyNDAyMzQzOCIgY2xhc3M9ImVyIGF0dHJpYnV0ZUJveEV2ZW4iPjwvcmVjdD48dGV4dCBzdHlsZT0iZG9taW5hbnQtYmFzZWxpbmU6IG1pZGRsZTsgZm9udC1zaXplOiAxMC4ycHg7IiB0cmFuc2Zvcm09InRyYW5zbGF0ZSgxNTIuMzYyMzk2MjQwMjM0MzgsMTAxKSIgeT0iMCIgeD0iMCIgaWQ9InRleHQtZW50aXR5LVNISVBQSU5HLWRjM2NkZmRkLWUxYTktNTZiOS1iOGI5LTViNmI3NGFkZWJjMC1hdHRyLTQta2V5IiBjbGFzcz0iZXIgZW50aXR5TGFiZWwiPjwvdGV4dD48cmVjdCBoZWlnaHQ9IjIyIiB3aWR0aD0iNTIuMDY4NDk2NzA0MTAxNTYiIHk9IjExMiIgeD0iMCIgY2xhc3M9ImVyIGF0dHJpYnV0ZUJveE9kZCI+PC9yZWN0Pjx0ZXh0IHN0eWxlPSJkb21pbmFudC1iYXNlbGluZTogbWlkZGxlOyBmb250LXNpemU6IDEwLjJweDsiIHRyYW5zZm9ybT0idHJhbnNsYXRlKDUsMTIzKSIgeT0iMCIgeD0iMCIgaWQ9InRleHQtZW50aXR5LVNISVBQSU5HLWRjM2NkZmRkLWUxYTktNTZiOS1iOGI5LTViNmI3NGFkZWJjMC1hdHRyLTUtdHlwZSIgY2xhc3M9ImVyIGVudGl0eUxhYmVsIj5kYXRldGltZTwvdGV4dD48cmVjdCBoZWlnaHQ9IjIyIiB3aWR0aD0iOTUuMjkzODk5NTM2MTMyODEiIHk9IjExMiIgeD0iNTIuMDY4NDk2NzA0MTAxNTYiIGNsYXNzPSJlciBhdHRyaWJ1dGVCb3hPZGQiPjwvcmVjdD48dGV4dCBzdHlsZT0iZG9taW5hbnQtYmFzZWxpbmU6IG1pZGRsZTsgZm9udC1zaXplOiAxMC4ycHg7IiB0cmFuc2Zvcm09InRyYW5zbGF0ZSg1Ny4wNjg0OTY3MDQxMDE1NiwxMjMpIiB5PSIwIiB4PSIwIiBpZD0idGV4dC1lbnRpdHktU0hJUFBJTkctZGMzY2RmZGQtZTFhOS01NmI5LWI4YjktNWI2Yjc0YWRlYmMwLWF0dHItNS1uYW1lIiBjbGFzcz0iZXIgZW50aXR5TGFiZWwiPnNoaXBwZWRfZGF0ZTwvdGV4dD48cmVjdCBoZWlnaHQ9IjIyIiB3aWR0aD0iMjIuNjg3NjgzMTA1NDY4NzUiIHk9IjExMiIgeD0iMTQ3LjM2MjM5NjI0MDIzNDM4IiBjbGFzcz0iZXIgYXR0cmlidXRlQm94T2RkIj48L3JlY3Q+PHRleHQgc3R5bGU9ImRvbWluYW50LWJhc2VsaW5lOiBtaWRkbGU7IGZvbnQtc2l6ZTogMTAuMnB4OyIgdHJhbnNmb3JtPSJ0cmFuc2xhdGUoMTUyLjM2MjM5NjI0MDIzNDM4LDEyMykiIHk9IjAiIHg9IjAiIGlkPSJ0ZXh0LWVudGl0eS1TSElQUElORy1kYzNjZGZkZC1lMWE5LTU2YjktYjhiOS01YjZiNzRhZGViYzAtYXR0ci01LWtleSIgY2xhc3M9ImVyIGVudGl0eUxhYmVsIj48L3RleHQ+PHJlY3QgaGVpZ2h0PSIyMiIgd2lkdGg9IjUyLjA2ODQ5NjcwNDEwMTU2IiB5PSIxMzQiIHg9IjAiIGNsYXNzPSJlciBhdHRyaWJ1dGVCb3hFdmVuIj48L3JlY3Q+PHRleHQgc3R5bGU9ImRvbWluYW50LWJhc2VsaW5lOiBtaWRkbGU7IGZvbnQtc2l6ZTogMTAuMnB4OyIgdHJhbnNmb3JtPSJ0cmFuc2xhdGUoNSwxNDUpIiB5PSIwIiB4PSIwIiBpZD0idGV4dC1lbnRpdHktU0hJUFBJTkctZGMzY2RmZGQtZTFhOS01NmI5LWI4YjktNWI2Yjc0YWRlYmMwLWF0dHItNi10eXBlIiBjbGFzcz0iZXIgZW50aXR5TGFiZWwiPmRhdGV0aW1lPC90ZXh0PjxyZWN0IGhlaWdodD0iMjIiIHdpZHRoPSI5NS4yOTM4OTk1MzYxMzI4MSIgeT0iMTM0IiB4PSI1Mi4wNjg0OTY3MDQxMDE1NiIgY2xhc3M9ImVyIGF0dHJpYnV0ZUJveEV2ZW4iPjwvcmVjdD48dGV4dCBzdHlsZT0iZG9taW5hbnQtYmFzZWxpbmU6IG1pZGRsZTsgZm9udC1zaXplOiAxMC4ycHg7IiB0cmFuc2Zvcm09InRyYW5zbGF0ZSg1Ny4wNjg0OTY3MDQxMDE1NiwxNDUpIiB5PSIwIiB4PSIwIiBpZD0idGV4dC1lbnRpdHktU0hJUFBJTkctZGMzY2RmZGQtZTFhOS01NmI5LWI4YjktNWI2Yjc0YWRlYmMwLWF0dHItNi1uYW1lIiBjbGFzcz0iZXIgZW50aXR5TGFiZWwiPmV4cGVjdGVkX2RlbGl2ZXJ5PC90ZXh0PjxyZWN0IGhlaWdodD0iMjIiIHdpZHRoPSIyMi42ODc2ODMxMDU0Njg3NSIgeT0iMTM0IiB4PSIxNDcuMzYyMzk2MjQwMjM0MzgiIGNsYXNzPSJlciBhdHRyaWJ1dGVCb3hFdmVuIj48L3JlY3Q+PHRleHQgc3R5bGU9ImRvbWluYW50LWJhc2VsaW5lOiBtaWRkbGU7IGZvbnQtc2l6ZTogMTAuMnB4OyIgdHJhbnNmb3JtPSJ0cmFuc2xhdGUoMTUyLjM2MjM5NjI0MDIzNDM4LDE0NSkiIHk9IjAiIHg9IjAiIGlkPSJ0ZXh0LWVudGl0eS1TSElQUElORy1kYzNjZGZkZC1lMWE5LTU2YjktYjhiOS01YjZiNzRhZGViYzAtYXR0ci02LWtleSIgY2xhc3M9ImVyIGVudGl0eUxhYmVsIj48L3RleHQ+PC9nPjxnIHRyYW5zZm9ybT0idHJhbnNsYXRlKDE5MzIuMzg5MjU1NTIzNjgxNiw2NTMgKSIgaWQ9ImVudGl0eS1NT0RFUkFUSU9OUVVFVUUtMjNmMWY0ZmItMjJmNC01NTgzLThmZmItYzZkZTYwZjIyMjY3Ij48cmVjdCBoZWlnaHQ9IjE1NiIgd2lkdGg9IjI5My4yODA0NTY1NDI5Njg3NSIgeT0iMCIgeD0iMCIgY2xhc3M9ImVyIGVudGl0eUJveCI+PC9yZWN0Pjx0ZXh0IHN0eWxlPSJkb21pbmFudC1iYXNlbGluZTogbWlkZGxlOyB0ZXh0LWFuY2hvcjogbWlkZGxlOyBmb250LXNpemU6IDEycHg7IiB0cmFuc2Zvcm09InRyYW5zbGF0ZSgxNDYuNjQwMjI4MjcxNDg0MzgsMTIpIiB5PSIwIiB4PSIwIiBpZD0idGV4dC1lbnRpdHktTU9ERVJBVElPTlFVRVVFLTIzZjFmNGZiLTIyZjQtNTU4My04ZmZiLWM2ZGU2MGYyMjI2NyIgY2xhc3M9ImVyIGVudGl0eUxhYmVsIj5NT0RFUkFUSU9OX1FVRVVFPC90ZXh0PjxyZWN0IGhlaWdodD0iMjIiIHdpZHRoPSI1Mi4wNjg0OTY3MDQxMDE1NiIgeT0iMjQiIHg9IjAiIGNsYXNzPSJlciBhdHRyaWJ1dGVCb3hPZGQiPjwvcmVjdD48dGV4dCBzdHlsZT0iZG9taW5hbnQtYmFzZWxpbmU6IG1pZGRsZTsgZm9udC1zaXplOiAxMC4ycHg7IiB0cmFuc2Zvcm09InRyYW5zbGF0ZSg1LDM1KSIgeT0iMCIgeD0iMCIgaWQ9InRleHQtZW50aXR5LU1PREVSQVRJT05RVUVVRS0yM2YxZjRmYi0yMmY0LTU1ODMtOGZmYi1jNmRlNjBmMjIyNjctYXR0ci0xLXR5cGUiIGNsYXNzPSJlciBlbnRpdHlMYWJlbCI+aW50PC90ZXh0PjxyZWN0IGhlaWdodD0iMjIiIHdpZHRoPSI2Ny41Mzg4NzkzOTQ1MzEyNSIgeT0iMjQiIHg9IjUyLjA2ODQ5NjcwNDEwMTU2IiBjbGFzcz0iZXIgYXR0cmlidXRlQm94T2RkIj48L3JlY3Q+PHRleHQgc3R5bGU9ImRvbWluYW50LWJhc2VsaW5lOiBtaWRkbGU7IGZvbnQtc2l6ZTogMTAuMnB4OyIgdHJhbnNmb3JtPSJ0cmFuc2xhdGUoNTcuMDY4NDk2NzA0MTAxNTYsMzUpIiB5PSIwIiB4PSIwIiBpZD0idGV4dC1lbnRpdHktTU9ERVJBVElPTlFVRVVFLTIzZjFmNGZiLTIyZjQtNTU4My04ZmZiLWM2ZGU2MGYyMjI2Ny1hdHRyLTEtbmFtZSIgY2xhc3M9ImVyIGVudGl0eUxhYmVsIj5pZDwvdGV4dD48cmVjdCBoZWlnaHQ9IjIyIiB3aWR0aD0iMjIuNjg3NjgzMTA1NDY4NzUiIHk9IjI0IiB4PSIxMTkuNjA3Mzc2MDk4NjMyODEiIGNsYXNzPSJlciBhdHRyaWJ1dGVCb3hPZGQiPjwvcmVjdD48dGV4dCBzdHlsZT0iZG9taW5hbnQtYmFzZWxpbmU6IG1pZGRsZTsgZm9udC1zaXplOiAxMC4ycHg7IiB0cmFuc2Zvcm09InRyYW5zbGF0ZSgxMjQuNjA3Mzc2MDk4NjMyODEsMzUpIiB5PSIwIiB4PSIwIiBpZD0idGV4dC1lbnRpdHktTU9ERVJBVElPTlFVRVVFLTIzZjFmNGZiLTIyZjQtNTU4My04ZmZiLWM2ZGU2MGYyMjI2Ny1hdHRyLTEta2V5IiBjbGFzcz0iZXIgZW50aXR5TGFiZWwiPlBLPC90ZXh0PjxyZWN0IGhlaWdodD0iMjIiIHdpZHRoPSIxNTAuOTg1Mzk3MzM4ODY3MiIgeT0iMjQiIHg9IjE0Mi4yOTUwNTkyMDQxMDE1NiIgY2xhc3M9ImVyIGF0dHJpYnV0ZUJveE9kZCI+PC9yZWN0Pjx0ZXh0IHN0eWxlPSJkb21pbmFudC1iYXNlbGluZTogbWlkZGxlOyBmb250LXNpemU6IDEwLjJweDsiIHRyYW5zZm9ybT0idHJhbnNsYXRlKDE0Ny4yOTUwNTkyMDQxMDE1NiwzNSkiIHk9IjAiIHg9IjAiIGlkPSJ0ZXh0LWVudGl0eS1NT0RFUkFUSU9OUVVFVUUtMjNmMWY0ZmItMjJmNC01NTgzLThmZmItYzZkZTYwZjIyMjY3LWF0dHItMS1jb21tZW50IiBjbGFzcz0iZXIgZW50aXR5TGFiZWwiPjwvdGV4dD48cmVjdCBoZWlnaHQ9IjIyIiB3aWR0aD0iNTIuMDY4NDk2NzA0MTAxNTYiIHk9IjQ2IiB4PSIwIiBjbGFzcz0iZXIgYXR0cmlidXRlQm94RXZlbiI+PC9yZWN0Pjx0ZXh0IHN0eWxlPSJkb21pbmFudC1iYXNlbGluZTogbWlkZGxlOyBmb250LXNpemU6IDEwLjJweDsiIHRyYW5zZm9ybT0idHJhbnNsYXRlKDUsNTcpIiB5PSIwIiB4PSIwIiBpZD0idGV4dC1lbnRpdHktTU9ERVJBVElPTlFVRVVFLTIzZjFmNGZiLTIyZjQtNTU4My04ZmZiLWM2ZGU2MGYyMjI2Ny1hdHRyLTItdHlwZSIgY2xhc3M9ImVyIGVudGl0eUxhYmVsIj5pbnQ8L3RleHQ+PHJlY3QgaGVpZ2h0PSIyMiIgd2lkdGg9IjY3LjUzODg3OTM5NDUzMTI1IiB5PSI0NiIgeD0iNTIuMDY4NDk2NzA0MTAxNTYiIGNsYXNzPSJlciBhdHRyaWJ1dGVCb3hFdmVuIj48L3JlY3Q+PHRleHQgc3R5bGU9ImRvbWluYW50LWJhc2VsaW5lOiBtaWRkbGU7IGZvbnQtc2l6ZTogMTAuMnB4OyIgdHJhbnNmb3JtPSJ0cmFuc2xhdGUoNTcuMDY4NDk2NzA0MTAxNTYsNTcpIiB5PSIwIiB4PSIwIiBpZD0idGV4dC1lbnRpdHktTU9ERVJBVElPTlFVRVVFLTIzZjFmNGZiLTIyZjQtNTU4My04ZmZiLWM2ZGU2MGYyMjI2Ny1hdHRyLTItbmFtZSIgY2xhc3M9ImVyIGVudGl0eUxhYmVsIj5wcm9kdWN0X2lkPC90ZXh0PjxyZWN0IGhlaWdodD0iMjIiIHdpZHRoPSIyMi42ODc2ODMxMDU0Njg3NSIgeT0iNDYiIHg9IjExOS42MDczNzYwOTg2MzI4MSIgY2xhc3M9ImVyIGF0dHJpYnV0ZUJveEV2ZW4iPjwvcmVjdD48dGV4dCBzdHlsZT0iZG9taW5hbnQtYmFzZWxpbmU6IG1pZGRsZTsgZm9udC1zaXplOiAxMC4ycHg7IiB0cmFuc2Zvcm09InRyYW5zbGF0ZSgxMjQuNjA3Mzc2MDk4NjMyODEsNTcpIiB5PSIwIiB4PSIwIiBpZD0idGV4dC1lbnRpdHktTU9ERVJBVElPTlFVRVVFLTIzZjFmNGZiLTIyZjQtNTU4My04ZmZiLWM2ZGU2MGYyMjI2Ny1hdHRyLTIta2V5IiBjbGFzcz0iZXIgZW50aXR5TGFiZWwiPkZLPC90ZXh0PjxyZWN0IGhlaWdodD0iMjIiIHdpZHRoPSIxNTAuOTg1Mzk3MzM4ODY3MiIgeT0iNDYiIHg9IjE0Mi4yOTUwNTkyMDQxMDE1NiIgY2xhc3M9ImVyIGF0dHJpYnV0ZUJveEV2ZW4iPjwvcmVjdD48dGV4dCBzdHlsZT0iZG9taW5hbnQtYmFzZWxpbmU6IG1pZGRsZTsgZm9udC1zaXplOiAxMC4ycHg7IiB0cmFuc2Zvcm09InRyYW5zbGF0ZSgxNDcuMjk1MDU5MjA0MTAxNTYsNTcpIiB5PSIwIiB4PSIwIiBpZD0idGV4dC1lbnRpdHktTU9ERVJBVElPTlFVRVVFLTIzZjFmNGZiLTIyZjQtNTU4My04ZmZiLWM2ZGU2MGYyMjI2Ny1hdHRyLTItY29tbWVudCIgY2xhc3M9ImVyIGVudGl0eUxhYmVsIj48L3RleHQ+PHJlY3QgaGVpZ2h0PSIyMiIgd2lkdGg9IjUyLjA2ODQ5NjcwNDEwMTU2IiB5PSI2OCIgeD0iMCIgY2xhc3M9ImVyIGF0dHJpYnV0ZUJveE9kZCI+PC9yZWN0Pjx0ZXh0IHN0eWxlPSJkb21pbmFudC1iYXNlbGluZTogbWlkZGxlOyBmb250LXNpemU6IDEwLjJweDsiIHRyYW5zZm9ybT0idHJhbnNsYXRlKDUsNzkpIiB5PSIwIiB4PSIwIiBpZD0idGV4dC1lbnRpdHktTU9ERVJBVElPTlFVRVVFLTIzZjFmNGZiLTIyZjQtNTU4My04ZmZiLWM2ZGU2MGYyMjI2Ny1hdHRyLTMtdHlwZSIgY2xhc3M9ImVyIGVudGl0eUxhYmVsIj5zdHJpbmc8L3RleHQ+PHJlY3QgaGVpZ2h0PSIyMiIgd2lkdGg9IjY3LjUzODg3OTM5NDUzMTI1IiB5PSI2OCIgeD0iNTIuMDY4NDk2NzA0MTAxNTYiIGNsYXNzPSJlciBhdHRyaWJ1dGVCb3hPZGQiPjwvcmVjdD48dGV4dCBzdHlsZT0iZG9taW5hbnQtYmFzZWxpbmU6IG1pZGRsZTsgZm9udC1zaXplOiAxMC4ycHg7IiB0cmFuc2Zvcm09InRyYW5zbGF0ZSg1Ny4wNjg0OTY3MDQxMDE1Niw3OSkiIHk9IjAiIHg9IjAiIGlkPSJ0ZXh0LWVudGl0eS1NT0RFUkFUSU9OUVVFVUUtMjNmMWY0ZmItMjJmNC01NTgzLThmZmItYzZkZTYwZjIyMjY3LWF0dHItMy1uYW1lIiBjbGFzcz0iZXIgZW50aXR5TGFiZWwiPnN0YXR1czwvdGV4dD48cmVjdCBoZWlnaHQ9IjIyIiB3aWR0aD0iMjIuNjg3NjgzMTA1NDY4NzUiIHk9IjY4IiB4PSIxMTkuNjA3Mzc2MDk4NjMyODEiIGNsYXNzPSJlciBhdHRyaWJ1dGVCb3hPZGQiPjwvcmVjdD48dGV4dCBzdHlsZT0iZG9taW5hbnQtYmFzZWxpbmU6IG1pZGRsZTsgZm9udC1zaXplOiAxMC4ycHg7IiB0cmFuc2Zvcm09InRyYW5zbGF0ZSgxMjQuNjA3Mzc2MDk4NjMyODEsNzkpIiB5PSIwIiB4PSIwIiBpZD0idGV4dC1lbnRpdHktTU9ERVJBVElPTlFVRVVFLTIzZjFmNGZiLTIyZjQtNTU4My04ZmZiLWM2ZGU2MGYyMjI2Ny1hdHRyLTMta2V5IiBjbGFzcz0iZXIgZW50aXR5TGFiZWwiPjwvdGV4dD48cmVjdCBoZWlnaHQ9IjIyIiB3aWR0aD0iMTUwLjk4NTM5NzMzODg2NzIiIHk9IjY4IiB4PSIxNDIuMjk1MDU5MjA0MTAxNTYiIGNsYXNzPSJlciBhdHRyaWJ1dGVCb3hPZGQiPjwvcmVjdD48dGV4dCBzdHlsZT0iZG9taW5hbnQtYmFzZWxpbmU6IG1pZGRsZTsgZm9udC1zaXplOiAxMC4ycHg7IiB0cmFuc2Zvcm09InRyYW5zbGF0ZSgxNDcuMjk1MDU5MjA0MTAxNTYsNzkpIiB5PSIwIiB4PSIwIiBpZD0idGV4dC1lbnRpdHktTU9ERVJBVElPTlFVRVVFLTIzZjFmNGZiLTIyZjQtNTU4My04ZmZiLWM2ZGU2MGYyMjI2Ny1hdHRyLTMtY29tbWVudCIgY2xhc3M9ImVyIGVudGl0eUxhYmVsIj5wZW5kaW5nIHwgYXBwcm92ZWQgfCByZWplY3RlZDwvdGV4dD48cmVjdCBoZWlnaHQ9IjIyIiB3aWR0aD0iNTIuMDY4NDk2NzA0MTAxNTYiIHk9IjkwIiB4PSIwIiBjbGFzcz0iZXIgYXR0cmlidXRlQm94RXZlbiI+PC9yZWN0Pjx0ZXh0IHN0eWxlPSJkb21pbmFudC1iYXNlbGluZTogbWlkZGxlOyBmb250LXNpemU6IDEwLjJweDsiIHRyYW5zZm9ybT0idHJhbnNsYXRlKDUsMTAxKSIgeT0iMCIgeD0iMCIgaWQ9InRleHQtZW50aXR5LU1PREVSQVRJT05RVUVVRS0yM2YxZjRmYi0yMmY0LTU1ODMtOGZmYi1jNmRlNjBmMjIyNjctYXR0ci00LXR5cGUiIGNsYXNzPSJlciBlbnRpdHlMYWJlbCI+c3RyaW5nPC90ZXh0PjxyZWN0IGhlaWdodD0iMjIiIHdpZHRoPSI2Ny41Mzg4NzkzOTQ1MzEyNSIgeT0iOTAiIHg9IjUyLjA2ODQ5NjcwNDEwMTU2IiBjbGFzcz0iZXIgYXR0cmlidXRlQm94RXZlbiI+PC9yZWN0Pjx0ZXh0IHN0eWxlPSJkb21pbmFudC1iYXNlbGluZTogbWlkZGxlOyBmb250LXNpemU6IDEwLjJweDsiIHRyYW5zZm9ybT0idHJhbnNsYXRlKDU3LjA2ODQ5NjcwNDEwMTU2LDEwMSkiIHk9IjAiIHg9IjAiIGlkPSJ0ZXh0LWVudGl0eS1NT0RFUkFUSU9OUVVFVUUtMjNmMWY0ZmItMjJmNC01NTgzLThmZmItYzZkZTYwZjIyMjY3LWF0dHItNC1uYW1lIiBjbGFzcz0iZXIgZW50aXR5TGFiZWwiPmZlZWRiYWNrPC90ZXh0PjxyZWN0IGhlaWdodD0iMjIiIHdpZHRoPSIyMi42ODc2ODMxMDU0Njg3NSIgeT0iOTAiIHg9IjExOS42MDczNzYwOTg2MzI4MSIgY2xhc3M9ImVyIGF0dHJpYnV0ZUJveEV2ZW4iPjwvcmVjdD48dGV4dCBzdHlsZT0iZG9taW5hbnQtYmFzZWxpbmU6IG1pZGRsZTsgZm9udC1zaXplOiAxMC4ycHg7IiB0cmFuc2Zvcm09InRyYW5zbGF0ZSgxMjQuNjA3Mzc2MDk4NjMyODEsMTAxKSIgeT0iMCIgeD0iMCIgaWQ9InRleHQtZW50aXR5LU1PREVSQVRJT05RVUVVRS0yM2YxZjRmYi0yMmY0LTU1ODMtOGZmYi1jNmRlNjBmMjIyNjctYXR0ci00LWtleSIgY2xhc3M9ImVyIGVudGl0eUxhYmVsIj48L3RleHQ+PHJlY3QgaGVpZ2h0PSIyMiIgd2lkdGg9IjE1MC45ODUzOTczMzg4NjcyIiB5PSI5MCIgeD0iMTQyLjI5NTA1OTIwNDEwMTU2IiBjbGFzcz0iZXIgYXR0cmlidXRlQm94RXZlbiI+PC9yZWN0Pjx0ZXh0IHN0eWxlPSJkb21pbmFudC1iYXNlbGluZTogbWlkZGxlOyBmb250LXNpemU6IDEwLjJweDsiIHRyYW5zZm9ybT0idHJhbnNsYXRlKDE0Ny4yOTUwNTkyMDQxMDE1NiwxMDEpIiB5PSIwIiB4PSIwIiBpZD0idGV4dC1lbnRpdHktTU9ERVJBVElPTlFVRVVFLTIzZjFmNGZiLTIyZjQtNTU4My04ZmZiLWM2ZGU2MGYyMjI2Ny1hdHRyLTQtY29tbWVudCIgY2xhc3M9ImVyIGVudGl0eUxhYmVsIj48L3RleHQ+PHJlY3QgaGVpZ2h0PSIyMiIgd2lkdGg9IjUyLjA2ODQ5NjcwNDEwMTU2IiB5PSIxMTIiIHg9IjAiIGNsYXNzPSJlciBhdHRyaWJ1dGVCb3hPZGQiPjwvcmVjdD48dGV4dCBzdHlsZT0iZG9taW5hbnQtYmFzZWxpbmU6IG1pZGRsZTsgZm9udC1zaXplOiAxMC4ycHg7IiB0cmFuc2Zvcm09InRyYW5zbGF0ZSg1LDEyMykiIHk9IjAiIHg9IjAiIGlkPSJ0ZXh0LWVudGl0eS1NT0RFUkFUSU9OUVVFVUUtMjNmMWY0ZmItMjJmNC01NTgzLThmZmItYzZkZTYwZjIyMjY3LWF0dHItNS10eXBlIiBjbGFzcz0iZXIgZW50aXR5TGFiZWwiPmludDwvdGV4dD48cmVjdCBoZWlnaHQ9IjIyIiB3aWR0aD0iNjcuNTM4ODc5Mzk0NTMxMjUiIHk9IjExMiIgeD0iNTIuMDY4NDk2NzA0MTAxNTYiIGNsYXNzPSJlciBhdHRyaWJ1dGVCb3hPZGQiPjwvcmVjdD48dGV4dCBzdHlsZT0iZG9taW5hbnQtYmFzZWxpbmU6IG1pZGRsZTsgZm9udC1zaXplOiAxMC4ycHg7IiB0cmFuc2Zvcm09InRyYW5zbGF0ZSg1Ny4wNjg0OTY3MDQxMDE1NiwxMjMpIiB5PSIwIiB4PSIwIiBpZD0idGV4dC1lbnRpdHktTU9ERVJBVElPTlFVRVVFLTIzZjFmNGZiLTIyZjQtNTU4My04ZmZiLWM2ZGU2MGYyMjI2Ny1hdHRyLTUtbmFtZSIgY2xhc3M9ImVyIGVudGl0eUxhYmVsIj5hZG1pbl9pZDwvdGV4dD48cmVjdCBoZWlnaHQ9IjIyIiB3aWR0aD0iMjIuNjg3NjgzMTA1NDY4NzUiIHk9IjExMiIgeD0iMTE5LjYwNzM3NjA5ODYzMjgxIiBjbGFzcz0iZXIgYXR0cmlidXRlQm94T2RkIj48L3JlY3Q+PHRleHQgc3R5bGU9ImRvbWluYW50LWJhc2VsaW5lOiBtaWRkbGU7IGZvbnQtc2l6ZTogMTAuMnB4OyIgdHJhbnNmb3JtPSJ0cmFuc2xhdGUoMTI0LjYwNzM3NjA5ODYzMjgxLDEyMykiIHk9IjAiIHg9IjAiIGlkPSJ0ZXh0LWVudGl0eS1NT0RFUkFUSU9OUVVFVUUtMjNmMWY0ZmItMjJmNC01NTgzLThmZmItYzZkZTYwZjIyMjY3LWF0dHItNS1rZXkiIGNsYXNzPSJlciBlbnRpdHlMYWJlbCI+Rks8L3RleHQ+PHJlY3QgaGVpZ2h0PSIyMiIgd2lkdGg9IjE1MC45ODUzOTczMzg4NjcyIiB5PSIxMTIiIHg9IjE0Mi4yOTUwNTkyMDQxMDE1NiIgY2xhc3M9ImVyIGF0dHJpYnV0ZUJveE9kZCI+PC9yZWN0Pjx0ZXh0IHN0eWxlPSJkb21pbmFudC1iYXNlbGluZTogbWlkZGxlOyBmb250LXNpemU6IDEwLjJweDsiIHRyYW5zZm9ybT0idHJhbnNsYXRlKDE0Ny4yOTUwNTkyMDQxMDE1NiwxMjMpIiB5PSIwIiB4PSIwIiBpZD0idGV4dC1lbnRpdHktTU9ERVJBVElPTlFVRVVFLTIzZjFmNGZiLTIyZjQtNTU4My04ZmZiLWM2ZGU2MGYyMjI2Ny1hdHRyLTUtY29tbWVudCIgY2xhc3M9ImVyIGVudGl0eUxhYmVsIj48L3RleHQ+PHJlY3QgaGVpZ2h0PSIyMiIgd2lkdGg9IjUyLjA2ODQ5NjcwNDEwMTU2IiB5PSIxMzQiIHg9IjAiIGNsYXNzPSJlciBhdHRyaWJ1dGVCb3hFdmVuIj48L3JlY3Q+PHRleHQgc3R5bGU9ImRvbWluYW50LWJhc2VsaW5lOiBtaWRkbGU7IGZvbnQtc2l6ZTogMTAuMnB4OyIgdHJhbnNmb3JtPSJ0cmFuc2xhdGUoNSwxNDUpIiB5PSIwIiB4PSIwIiBpZD0idGV4dC1lbnRpdHktTU9ERVJBVElPTlFVRVVFLTIzZjFmNGZiLTIyZjQtNTU4My04ZmZiLWM2ZGU2MGYyMjI2Ny1hdHRyLTYtdHlwZSIgY2xhc3M9ImVyIGVudGl0eUxhYmVsIj5kYXRldGltZTwvdGV4dD48cmVjdCBoZWlnaHQ9IjIyIiB3aWR0aD0iNjcuNTM4ODc5Mzk0NTMxMjUiIHk9IjEzNCIgeD0iNTIuMDY4NDk2NzA0MTAxNTYiIGNsYXNzPSJlciBhdHRyaWJ1dGVCb3hFdmVuIj48L3JlY3Q+PHRleHQgc3R5bGU9ImRvbWluYW50LWJhc2VsaW5lOiBtaWRkbGU7IGZvbnQtc2l6ZTogMTAuMnB4OyIgdHJhbnNmb3JtPSJ0cmFuc2xhdGUoNTcuMDY4NDk2NzA0MTAxNTYsMTQ1KSIgeT0iMCIgeD0iMCIgaWQ9InRleHQtZW50aXR5LU1PREVSQVRJT05RVUVVRS0yM2YxZjRmYi0yMmY0LTU1ODMtOGZmYi1jNmRlNjBmMjIyNjctYXR0ci02LW5hbWUiIGNsYXNzPSJlciBlbnRpdHlMYWJlbCI+cmV2aWV3ZWRfYXQ8L3RleHQ+PHJlY3QgaGVpZ2h0PSIyMiIgd2lkdGg9IjIyLjY4NzY4MzEwNTQ2ODc1IiB5PSIxMzQiIHg9IjExOS42MDczNzYwOTg2MzI4MSIgY2xhc3M9ImVyIGF0dHJpYnV0ZUJveEV2ZW4iPjwvcmVjdD48dGV4dCBzdHlsZT0iZG9taW5hbnQtYmFzZWxpbmU6IG1pZGRsZTsgZm9udC1zaXplOiAxMC4ycHg7IiB0cmFuc2Zvcm09InRyYW5zbGF0ZSgxMjQuNjA3Mzc2MDk4NjMyODEsMTQ1KSIgeT0iMCIgeD0iMCIgaWQ9InRleHQtZW50aXR5LU1PREVSQVRJT05RVUVVRS0yM2YxZjRmYi0yMmY0LTU1ODMtOGZmYi1jNmRlNjBmMjIyNjctYXR0ci02LWtleSIgY2xhc3M9ImVyIGVudGl0eUxhYmVsIj48L3RleHQ+PHJlY3QgaGVpZ2h0PSIyMiIgd2lkdGg9IjE1MC45ODUzOTczMzg4NjcyIiB5PSIxMzQiIHg9IjE0Mi4yOTUwNTkyMDQxMDE1NiIgY2xhc3M9ImVyIGF0dHJpYnV0ZUJveEV2ZW4iPjwvcmVjdD48dGV4dCBzdHlsZT0iZG9taW5hbnQtYmFzZWxpbmU6IG1pZGRsZTsgZm9udC1zaXplOiAxMC4ycHg7IiB0cmFuc2Zvcm09InRyYW5zbGF0ZSgxNDcuMjk1MDU5MjA0MTAxNTYsMTQ1KSIgeT0iMCIgeD0iMCIgaWQ9InRleHQtZW50aXR5LU1PREVSQVRJT05RVUVVRS0yM2YxZjRmYi0yMmY0LTU1ODMtOGZmYi1jNmRlNjBmMjIyNjctYXR0ci02LWNvbW1lbnQiIGNsYXNzPSJlciBlbnRpdHlMYWJlbCI+PC90ZXh0PjwvZz48ZyB0cmFuc2Zvcm09InRyYW5zbGF0ZSgyMzI1LjY2OTcxMjA2NjY1MDQsNjY0ICkiIGlkPSJlbnRpdHktRElTUFVURS1mNGM3MjE5My0xZTc0LTVhOWItYTk0Yy0xMmJlYjFjY2E2MTMiPjxyZWN0IGhlaWdodD0iMTM0IiB3aWR0aD0iMjg3LjMyNzY5Nzc1MzkwNjI1IiB5PSIwIiB4PSIwIiBjbGFzcz0iZXIgZW50aXR5Qm94Ij48L3JlY3Q+PHRleHQgc3R5bGU9ImRvbWluYW50LWJhc2VsaW5lOiBtaWRkbGU7IHRleHQtYW5jaG9yOiBtaWRkbGU7IGZvbnQtc2l6ZTogMTJweDsiIHRyYW5zZm9ybT0idHJhbnNsYXRlKDE0My42NjM4NDg4NzY5NTMxMiwxMikiIHk9IjAiIHg9IjAiIGlkPSJ0ZXh0LWVudGl0eS1ESVNQVVRFLWY0YzcyMTkzLTFlNzQtNWE5Yi1hOTRjLTEyYmViMWNjYTYxMyIgY2xhc3M9ImVyIGVudGl0eUxhYmVsIj5ESVNQVVRFPC90ZXh0PjxyZWN0IGhlaWdodD0iMjIiIHdpZHRoPSI1Mi4wNjg0OTY3MDQxMDE1NiIgeT0iMjQiIHg9IjAiIGNsYXNzPSJlciBhdHRyaWJ1dGVCb3hPZGQiPjwvcmVjdD48dGV4dCBzdHlsZT0iZG9taW5hbnQtYmFzZWxpbmU6IG1pZGRsZTsgZm9udC1zaXplOiAxMC4ycHg7IiB0cmFuc2Zvcm09InRyYW5zbGF0ZSg1LDM1KSIgeT0iMCIgeD0iMCIgaWQ9InRleHQtZW50aXR5LURJU1BVVEUtZjRjNzIxOTMtMWU3NC01YTliLWE5NGMtMTJiZWIxY2NhNjEzLWF0dHItMS10eXBlIiBjbGFzcz0iZXIgZW50aXR5TGFiZWwiPmludDwvdGV4dD48cmVjdCBoZWlnaHQ9IjIyIiB3aWR0aD0iNzkuNDIxMTczMDk1NzAzMTIiIHk9IjI0IiB4PSI1Mi4wNjg0OTY3MDQxMDE1NiIgY2xhc3M9ImVyIGF0dHJpYnV0ZUJveE9kZCI+PC9yZWN0Pjx0ZXh0IHN0eWxlPSJkb21pbmFudC1iYXNlbGluZTogbWlkZGxlOyBmb250LXNpemU6IDEwLjJweDsiIHRyYW5zZm9ybT0idHJhbnNsYXRlKDU3LjA2ODQ5NjcwNDEwMTU2LDM1KSIgeT0iMCIgeD0iMCIgaWQ9InRleHQtZW50aXR5LURJU1BVVEUtZjRjNzIxOTMtMWU3NC01YTliLWE5NGMtMTJiZWIxY2NhNjEzLWF0dHItMS1uYW1lIiBjbGFzcz0iZXIgZW50aXR5TGFiZWwiPmlkPC90ZXh0PjxyZWN0IGhlaWdodD0iMjIiIHdpZHRoPSIyMi42ODc2ODMxMDU0Njg3NSIgeT0iMjQiIHg9IjEzMS40ODk2Njk3OTk4MDQ3IiBjbGFzcz0iZXIgYXR0cmlidXRlQm94T2RkIj48L3JlY3Q+PHRleHQgc3R5bGU9ImRvbWluYW50LWJhc2VsaW5lOiBtaWRkbGU7IGZvbnQtc2l6ZTogMTAuMnB4OyIgdHJhbnNmb3JtPSJ0cmFuc2xhdGUoMTM2LjQ4OTY2OTc5OTgwNDcsMzUpIiB5PSIwIiB4PSIwIiBpZD0idGV4dC1lbnRpdHktRElTUFVURS1mNGM3MjE5My0xZTc0LTVhOWItYTk0Yy0xMmJlYjFjY2E2MTMtYXR0ci0xLWtleSIgY2xhc3M9ImVyIGVudGl0eUxhYmVsIj5QSzwvdGV4dD48cmVjdCBoZWlnaHQ9IjIyIiB3aWR0aD0iMTMzLjE1MDM0NDg0ODYzMjgiIHk9IjI0IiB4PSIxNTQuMTc3MzUyOTA1MjczNDQiIGNsYXNzPSJlciBhdHRyaWJ1dGVCb3hPZGQiPjwvcmVjdD48dGV4dCBzdHlsZT0iZG9taW5hbnQtYmFzZWxpbmU6IG1pZGRsZTsgZm9udC1zaXplOiAxMC4ycHg7IiB0cmFuc2Zvcm09InRyYW5zbGF0ZSgxNTkuMTc3MzUyOTA1MjczNDQsMzUpIiB5PSIwIiB4PSIwIiBpZD0idGV4dC1lbnRpdHktRElTUFVURS1mNGM3MjE5My0xZTc0LTVhOWItYTk0Yy0xMmJlYjFjY2E2MTMtYXR0ci0xLWNvbW1lbnQiIGNsYXNzPSJlciBlbnRpdHlMYWJlbCI+PC90ZXh0PjxyZWN0IGhlaWdodD0iMjIiIHdpZHRoPSI1Mi4wNjg0OTY3MDQxMDE1NiIgeT0iNDYiIHg9IjAiIGNsYXNzPSJlciBhdHRyaWJ1dGVCb3hFdmVuIj48L3JlY3Q+PHRleHQgc3R5bGU9ImRvbWluYW50LWJhc2VsaW5lOiBtaWRkbGU7IGZvbnQtc2l6ZTogMTAuMnB4OyIgdHJhbnNmb3JtPSJ0cmFuc2xhdGUoNSw1NykiIHk9IjAiIHg9IjAiIGlkPSJ0ZXh0LWVudGl0eS1ESVNQVVRFLWY0YzcyMTkzLTFlNzQtNWE5Yi1hOTRjLTEyYmViMWNjYTYxMy1hdHRyLTItdHlwZSIgY2xhc3M9ImVyIGVudGl0eUxhYmVsIj5pbnQ8L3RleHQ+PHJlY3QgaGVpZ2h0PSIyMiIgd2lkdGg9Ijc5LjQyMTE3MzA5NTcwMzEyIiB5PSI0NiIgeD0iNTIuMDY4NDk2NzA0MTAxNTYiIGNsYXNzPSJlciBhdHRyaWJ1dGVCb3hFdmVuIj48L3JlY3Q+PHRleHQgc3R5bGU9ImRvbWluYW50LWJhc2VsaW5lOiBtaWRkbGU7IGZvbnQtc2l6ZTogMTAuMnB4OyIgdHJhbnNmb3JtPSJ0cmFuc2xhdGUoNTcuMDY4NDk2NzA0MTAxNTYsNTcpIiB5PSIwIiB4PSIwIiBpZD0idGV4dC1lbnRpdHktRElTUFVURS1mNGM3MjE5My0xZTc0LTVhOWItYTk0Yy0xMmJlYjFjY2E2MTMtYXR0ci0yLW5hbWUiIGNsYXNzPSJlciBlbnRpdHlMYWJlbCI+b3JkZXJfaWQ8L3RleHQ+PHJlY3QgaGVpZ2h0PSIyMiIgd2lkdGg9IjIyLjY4NzY4MzEwNTQ2ODc1IiB5PSI0NiIgeD0iMTMxLjQ4OTY2OTc5OTgwNDciIGNsYXNzPSJlciBhdHRyaWJ1dGVCb3hFdmVuIj48L3JlY3Q+PHRleHQgc3R5bGU9ImRvbWluYW50LWJhc2VsaW5lOiBtaWRkbGU7IGZvbnQtc2l6ZTogMTAuMnB4OyIgdHJhbnNmb3JtPSJ0cmFuc2xhdGUoMTM2LjQ4OTY2OTc5OTgwNDcsNTcpIiB5PSIwIiB4PSIwIiBpZD0idGV4dC1lbnRpdHktRElTUFVURS1mNGM3MjE5My0xZTc0LTVhOWItYTk0Yy0xMmJlYjFjY2E2MTMtYXR0ci0yLWtleSIgY2xhc3M9ImVyIGVudGl0eUxhYmVsIj5GSzwvdGV4dD48cmVjdCBoZWlnaHQ9IjIyIiB3aWR0aD0iMTMzLjE1MDM0NDg0ODYzMjgiIHk9IjQ2IiB4PSIxNTQuMTc3MzUyOTA1MjczNDQiIGNsYXNzPSJlciBhdHRyaWJ1dGVCb3hFdmVuIj48L3JlY3Q+PHRleHQgc3R5bGU9ImRvbWluYW50LWJhc2VsaW5lOiBtaWRkbGU7IGZvbnQtc2l6ZTogMTAuMnB4OyIgdHJhbnNmb3JtPSJ0cmFuc2xhdGUoMTU5LjE3NzM1MjkwNTI3MzQ0LDU3KSIgeT0iMCIgeD0iMCIgaWQ9InRleHQtZW50aXR5LURJU1BVVEUtZjRjNzIxOTMtMWU3NC01YTliLWE5NGMtMTJiZWIxY2NhNjEzLWF0dHItMi1jb21tZW50IiBjbGFzcz0iZXIgZW50aXR5TGFiZWwiPjwvdGV4dD48cmVjdCBoZWlnaHQ9IjIyIiB3aWR0aD0iNTIuMDY4NDk2NzA0MTAxNTYiIHk9IjY4IiB4PSIwIiBjbGFzcz0iZXIgYXR0cmlidXRlQm94T2RkIj48L3JlY3Q+PHRleHQgc3R5bGU9ImRvbWluYW50LWJhc2VsaW5lOiBtaWRkbGU7IGZvbnQtc2l6ZTogMTAuMnB4OyIgdHJhbnNmb3JtPSJ0cmFuc2xhdGUoNSw3OSkiIHk9IjAiIHg9IjAiIGlkPSJ0ZXh0LWVudGl0eS1ESVNQVVRFLWY0YzcyMTkzLTFlNzQtNWE5Yi1hOTRjLTEyYmViMWNjYTYxMy1hdHRyLTMtdHlwZSIgY2xhc3M9ImVyIGVudGl0eUxhYmVsIj5zdHJpbmc8L3RleHQ+PHJlY3QgaGVpZ2h0PSIyMiIgd2lkdGg9Ijc5LjQyMTE3MzA5NTcwMzEyIiB5PSI2OCIgeD0iNTIuMDY4NDk2NzA0MTAxNTYiIGNsYXNzPSJlciBhdHRyaWJ1dGVCb3hPZGQiPjwvcmVjdD48dGV4dCBzdHlsZT0iZG9taW5hbnQtYmFzZWxpbmU6IG1pZGRsZTsgZm9udC1zaXplOiAxMC4ycHg7IiB0cmFuc2Zvcm09InRyYW5zbGF0ZSg1Ny4wNjg0OTY3MDQxMDE1Niw3OSkiIHk9IjAiIHg9IjAiIGlkPSJ0ZXh0LWVudGl0eS1ESVNQVVRFLWY0YzcyMTkzLTFlNzQtNWE5Yi1hOTRjLTEyYmViMWNjYTYxMy1hdHRyLTMtbmFtZSIgY2xhc3M9ImVyIGVudGl0eUxhYmVsIj5kaXNwdXRlX3JlYXNvbjwvdGV4dD48cmVjdCBoZWlnaHQ9IjIyIiB3aWR0aD0iMjIuNjg3NjgzMTA1NDY4NzUiIHk9IjY4IiB4PSIxMzEuNDg5NjY5Nzk5ODA0NyIgY2xhc3M9ImVyIGF0dHJpYnV0ZUJveE9kZCI+PC9yZWN0Pjx0ZXh0IHN0eWxlPSJkb21pbmFudC1iYXNlbGluZTogbWlkZGxlOyBmb250LXNpemU6IDEwLjJweDsiIHRyYW5zZm9ybT0idHJhbnNsYXRlKDEzNi40ODk2Njk3OTk4MDQ3LDc5KSIgeT0iMCIgeD0iMCIgaWQ9InRleHQtZW50aXR5LURJU1BVVEUtZjRjNzIxOTMtMWU3NC01YTliLWE5NGMtMTJiZWIxY2NhNjEzLWF0dHItMy1rZXkiIGNsYXNzPSJlciBlbnRpdHlMYWJlbCI+PC90ZXh0PjxyZWN0IGhlaWdodD0iMjIiIHdpZHRoPSIxMzMuMTUwMzQ0ODQ4NjMyOCIgeT0iNjgiIHg9IjE1NC4xNzczNTI5MDUyNzM0NCIgY2xhc3M9ImVyIGF0dHJpYnV0ZUJveE9kZCI+PC9yZWN0Pjx0ZXh0IHN0eWxlPSJkb21pbmFudC1iYXNlbGluZTogbWlkZGxlOyBmb250LXNpemU6IDEwLjJweDsiIHRyYW5zZm9ybT0idHJhbnNsYXRlKDE1OS4xNzczNTI5MDUyNzM0NCw3OSkiIHk9IjAiIHg9IjAiIGlkPSJ0ZXh0LWVudGl0eS1ESVNQVVRFLWY0YzcyMTkzLTFlNzQtNWE5Yi1hOTRjLTEyYmViMWNjYTYxMy1hdHRyLTMtY29tbWVudCIgY2xhc3M9ImVyIGVudGl0eUxhYmVsIj48L3RleHQ+PHJlY3QgaGVpZ2h0PSIyMiIgd2lkdGg9IjUyLjA2ODQ5NjcwNDEwMTU2IiB5PSI5MCIgeD0iMCIgY2xhc3M9ImVyIGF0dHJpYnV0ZUJveEV2ZW4iPjwvcmVjdD48dGV4dCBzdHlsZT0iZG9taW5hbnQtYmFzZWxpbmU6IG1pZGRsZTsgZm9udC1zaXplOiAxMC4ycHg7IiB0cmFuc2Zvcm09InRyYW5zbGF0ZSg1LDEwMSkiIHk9IjAiIHg9IjAiIGlkPSJ0ZXh0LWVudGl0eS1ESVNQVVRFLWY0YzcyMTkzLTFlNzQtNWE5Yi1hOTRjLTEyYmViMWNjYTYxMy1hdHRyLTQtdHlwZSIgY2xhc3M9ImVyIGVudGl0eUxhYmVsIj5zdHJpbmc8L3RleHQ+PHJlY3QgaGVpZ2h0PSIyMiIgd2lkdGg9Ijc5LjQyMTE3MzA5NTcwMzEyIiB5PSI5MCIgeD0iNTIuMDY4NDk2NzA0MTAxNTYiIGNsYXNzPSJlciBhdHRyaWJ1dGVCb3hFdmVuIj48L3JlY3Q+PHRleHQgc3R5bGU9ImRvbWluYW50LWJhc2VsaW5lOiBtaWRkbGU7IGZvbnQtc2l6ZTogMTAuMnB4OyIgdHJhbnNmb3JtPSJ0cmFuc2xhdGUoNTcuMDY4NDk2NzA0MTAxNTYsMTAxKSIgeT0iMCIgeD0iMCIgaWQ9InRleHQtZW50aXR5LURJU1BVVEUtZjRjNzIxOTMtMWU3NC01YTliLWE5NGMtMTJiZWIxY2NhNjEzLWF0dHItNC1uYW1lIiBjbGFzcz0iZXIgZW50aXR5TGFiZWwiPnN0YXR1czwvdGV4dD48cmVjdCBoZWlnaHQ9IjIyIiB3aWR0aD0iMjIuNjg3NjgzMTA1NDY4NzUiIHk9IjkwIiB4PSIxMzEuNDg5NjY5Nzk5ODA0NyIgY2xhc3M9ImVyIGF0dHJpYnV0ZUJveEV2ZW4iPjwvcmVjdD48dGV4dCBzdHlsZT0iZG9taW5hbnQtYmFzZWxpbmU6IG1pZGRsZTsgZm9udC1zaXplOiAxMC4ycHg7IiB0cmFuc2Zvcm09InRyYW5zbGF0ZSgxMzYuNDg5NjY5Nzk5ODA0NywxMDEpIiB5PSIwIiB4PSIwIiBpZD0idGV4dC1lbnRpdHktRElTUFVURS1mNGM3MjE5My0xZTc0LTVhOWItYTk0Yy0xMmJlYjFjY2E2MTMtYXR0ci00LWtleSIgY2xhc3M9ImVyIGVudGl0eUxhYmVsIj48L3RleHQ+PHJlY3QgaGVpZ2h0PSIyMiIgd2lkdGg9IjEzMy4xNTAzNDQ4NDg2MzI4IiB5PSI5MCIgeD0iMTU0LjE3NzM1MjkwNTI3MzQ0IiBjbGFzcz0iZXIgYXR0cmlidXRlQm94RXZlbiI+PC9yZWN0Pjx0ZXh0IHN0eWxlPSJkb21pbmFudC1iYXNlbGluZTogbWlkZGxlOyBmb250LXNpemU6IDEwLjJweDsiIHRyYW5zZm9ybT0idHJhbnNsYXRlKDE1OS4xNzczNTI5MDUyNzM0NCwxMDEpIiB5PSIwIiB4PSIwIiBpZD0idGV4dC1lbnRpdHktRElTUFVURS1mNGM3MjE5My0xZTc0LTVhOWItYTk0Yy0xMmJlYjFjY2E2MTMtYXR0ci00LWNvbW1lbnQiIGNsYXNzPSJlciBlbnRpdHlMYWJlbCI+b3BlbiB8IHJlc29sdmVkIHwgcmVqZWN0ZWQ8L3RleHQ+PHJlY3QgaGVpZ2h0PSIyMiIgd2lkdGg9IjUyLjA2ODQ5NjcwNDEwMTU2IiB5PSIxMTIiIHg9IjAiIGNsYXNzPSJlciBhdHRyaWJ1dGVCb3hPZGQiPjwvcmVjdD48dGV4dCBzdHlsZT0iZG9taW5hbnQtYmFzZWxpbmU6IG1pZGRsZTsgZm9udC1zaXplOiAxMC4ycHg7IiB0cmFuc2Zvcm09InRyYW5zbGF0ZSg1LDEyMykiIHk9IjAiIHg9IjAiIGlkPSJ0ZXh0LWVudGl0eS1ESVNQVVRFLWY0YzcyMTkzLTFlNzQtNWE5Yi1hOTRjLTEyYmViMWNjYTYxMy1hdHRyLTUtdHlwZSIgY2xhc3M9ImVyIGVudGl0eUxhYmVsIj5kYXRldGltZTwvdGV4dD48cmVjdCBoZWlnaHQ9IjIyIiB3aWR0aD0iNzkuNDIxMTczMDk1NzAzMTIiIHk9IjExMiIgeD0iNTIuMDY4NDk2NzA0MTAxNTYiIGNsYXNzPSJlciBhdHRyaWJ1dGVCb3hPZGQiPjwvcmVjdD48dGV4dCBzdHlsZT0iZG9taW5hbnQtYmFzZWxpbmU6IG1pZGRsZTsgZm9udC1zaXplOiAxMC4ycHg7IiB0cmFuc2Zvcm09InRyYW5zbGF0ZSg1Ny4wNjg0OTY3MDQxMDE1NiwxMjMpIiB5PSIwIiB4PSIwIiBpZD0idGV4dC1lbnRpdHktRElTUFVURS1mNGM3MjE5My0xZTc0LTVhOWItYTk0Yy0xMmJlYjFjY2E2MTMtYXR0ci01LW5hbWUiIGNsYXNzPSJlciBlbnRpdHlMYWJlbCI+Y3JlYXRlZF9hdDwvdGV4dD48cmVjdCBoZWlnaHQ9IjIyIiB3aWR0aD0iMjIuNjg3NjgzMTA1NDY4NzUiIHk9IjExMiIgeD0iMTMxLjQ4OTY2OTc5OTgwNDciIGNsYXNzPSJlciBhdHRyaWJ1dGVCb3hPZGQiPjwvcmVjdD48dGV4dCBzdHlsZT0iZG9taW5hbnQtYmFzZWxpbmU6IG1pZGRsZTsgZm9udC1zaXplOiAxMC4ycHg7IiB0cmFuc2Zvcm09InRyYW5zbGF0ZSgxMzYuNDg5NjY5Nzk5ODA0NywxMjMpIiB5PSIwIiB4PSIwIiBpZD0idGV4dC1lbnRpdHktRElTUFVURS1mNGM3MjE5My0xZTc0LTVhOWItYTk0Yy0xMmJlYjFjY2E2MTMtYXR0ci01LWtleSIgY2xhc3M9ImVyIGVudGl0eUxhYmVsIj48L3RleHQ+PHJlY3QgaGVpZ2h0PSIyMiIgd2lkdGg9IjEzMy4xNTAzNDQ4NDg2MzI4IiB5PSIxMTIiIHg9IjE1NC4xNzczNTI5MDUyNzM0NCIgY2xhc3M9ImVyIGF0dHJpYnV0ZUJveE9kZCI+PC9yZWN0Pjx0ZXh0IHN0eWxlPSJkb21pbmFudC1iYXNlbGluZTogbWlkZGxlOyBmb250LXNpemU6IDEwLjJweDsiIHRyYW5zZm9ybT0idHJhbnNsYXRlKDE1OS4xNzczNTI5MDUyNzM0NCwxMjMpIiB5PSIwIiB4PSIwIiBpZD0idGV4dC1lbnRpdHktRElTUFVURS1mNGM3MjE5My0xZTc0LTVhOWItYTk0Yy0xMmJlYjFjY2E2MTMtYXR0ci01LWNvbW1lbnQiIGNsYXNzPSJlciBlbnRpdHlMYWJlbCI+PC90ZXh0PjwvZz48cmVjdCBoZWlnaHQ9IjE0IiB3aWR0aD0iMjYuOTI1NzgxMjUiIHk9IjIwOS41MjE1NzU5Mjc3MzQzOCIgeD0iODQ3LjM1NzY2NjAxNTYyNSIgY2xhc3M9ImVyIHJlbGF0aW9uc2hpcExhYmVsQm94Ij48L3JlY3Q+PHRleHQgc3R5bGU9InRleHQtYW5jaG9yOiBtaWRkbGU7IGRvbWluYW50LWJhc2VsaW5lOiBtaWRkbGU7IGZvbnQtc2l6ZTogMTJweDsiIHk9IjIxNi41MjE1NzU5Mjc3MzQzOCIgeD0iODYwLjgyMDU1NjY0MDYyNSIgaWQ9InJlbDE1NCIgY2xhc3M9ImVyIHJlbGF0aW9uc2hpcExhYmVsIj5vd25zPC90ZXh0PjxyZWN0IGhlaWdodD0iMTQiIHdpZHRoPSIzNC4wMTU2MjUiIHk9IjIxMi41NTYzNjU5NjY3OTY4OCIgeD0iMTQ5Ni41MTUyNTg3ODkwNjI1IiBjbGFzcz0iZXIgcmVsYXRpb25zaGlwTGFiZWxCb3giPjwvcmVjdD48dGV4dCBzdHlsZT0idGV4dC1hbmNob3I6IG1pZGRsZTsgZG9taW5hbnQtYmFzZWxpbmU6IG1pZGRsZTsgZm9udC1zaXplOiAxMnB4OyIgeT0iMjE5LjU1NjM2NTk2Njc5Njg4IiB4PSIxNTEzLjUyMzA3MTI4OTA2MjUiIGlkPSJyZWwxNTUiIGNsYXNzPSJlciByZWxhdGlvbnNoaXBMYWJlbCI+cGxhY2VzPC90ZXh0PjxyZWN0IGhlaWdodD0iMTQiIHdpZHRoPSIyMS41NzYxNzE4NzUiIHk9IjI1MC45ODc0MjY3NTc4MTI1IiB4PSIxNDM1LjQyNDMxNjQwNjI1IiBjbGFzcz0iZXIgcmVsYXRpb25zaGlwTGFiZWxCb3giPjwvcmVjdD48dGV4dCBzdHlsZT0idGV4dC1hbmNob3I6IG1pZGRsZTsgZG9taW5hbnQtYmFzZWxpbmU6IG1pZGRsZTsgZm9udC1zaXplOiAxMnB4OyIgeT0iMjU3Ljk4NzQyNjc1NzgxMjUiIHg9IjE0NDYuMjEyNDAyMzQzNzUiIGlkPSJyZWwxNTYiIGNsYXNzPSJlciByZWxhdGlvbnNoaXBMYWJlbCI+bGlzdHM8L3RleHQ+PHJlY3QgaGVpZ2h0PSIxMy45OTk5ODQ3NDEyMTA5MzgiIHdpZHRoPSIzNC4zMTgzNTkzNzUiIHk9IjI0OC40Mzc3NjcwMjg4MDg2IiB4PSI2MzcuMzkzOTgxOTMzNTkzOCIgY2xhc3M9ImVyIHJlbGF0aW9uc2hpcExhYmVsQm94Ij48L3JlY3Q+PHRleHQgc3R5bGU9InRleHQtYW5jaG9yOiBtaWRkbGU7IGRvbWluYW50LWJhc2VsaW5lOiBtaWRkbGU7IGZvbnQtc2l6ZTogMTJweDsiIHk9IjI1NS40Mzc3NTkzOTk0MTQwNiIgeD0iNjU0LjU1MzE2MTYyMTA5MzgiIGlkPSJyZWwxNTciIGNsYXNzPSJlciByZWxhdGlvbnNoaXBMYWJlbCI+d3JpdGVzPC90ZXh0PjxyZWN0IGhlaWdodD0iMTQiIHdpZHRoPSIyOS42MTkxNDA2MjUiIHk9IjM5Ny4wOTkyNDMxNjQwNjI1IiB4PSIyNjk4LjAwNjU5MTc5Njg3NSIgY2xhc3M9ImVyIHJlbGF0aW9uc2hpcExhYmVsQm94Ij48L3JlY3Q+PHRleHQgc3R5bGU9InRleHQtYW5jaG9yOiBtaWRkbGU7IGRvbWluYW50LWJhc2VsaW5lOiBtaWRkbGU7IGZvbnQtc2l6ZTogMTJweDsiIHk9IjQwNC4wOTkyNDMxNjQwNjI1IiB4PSIyNzEyLjgxNjE2MjEwOTM3NSIgaWQ9InJlbDE1OCIgY2xhc3M9ImVyIHJlbGF0aW9uc2hpcExhYmVsIj52b3RlczwvdGV4dD48cmVjdCBoZWlnaHQ9IjE0IiB3aWR0aD0iNjEuMzM3ODkwNjI1IiB5PSIyMDYuMzQyNjY2NjI1OTc2NTYiIHg9Ijg2MS41MjY0ODkyNTc4MTI1IiBjbGFzcz0iZXIgcmVsYXRpb25zaGlwTGFiZWxCb3giPjwvcmVjdD48dGV4dCBzdHlsZT0idGV4dC1hbmNob3I6IG1pZGRsZTsgZG9taW5hbnQtYmFzZWxpbmU6IG1pZGRsZTsgZm9udC1zaXplOiAxMnB4OyIgeT0iMjEzLjM0MjY2NjYyNTk3NjU2IiB4PSI4OTIuMTk1NDM0NTcwMzEyNSIgaWQ9InJlbDE1OSIgY2xhc3M9ImVyIHJlbGF0aW9uc2hpcExhYmVsIj5jYXRlZ29yaXplczwvdGV4dD48cmVjdCBoZWlnaHQ9IjE0IiB3aWR0aD0iMTcuODYxMzI4MTI1IiB5PSI1MTkuMzU2MDE4MDY2NDA2MiIgeD0iNTM4LjYwMTY4NDU3MDMxMjUiIGNsYXNzPSJlciByZWxhdGlvbnNoaXBMYWJlbEJveCI+PC9yZWN0Pjx0ZXh0IHN0eWxlPSJ0ZXh0LWFuY2hvcjogbWlkZGxlOyBkb21pbmFudC1iYXNlbGluZTogbWlkZGxlOyBmb250LXNpemU6IDEycHg7IiB5PSI1MjYuMzU2MDE4MDY2NDA2MiIgeD0iNTQ3LjUzMjM0ODYzMjgxMjUiIGlkPSJyZWwxNjAiIGNsYXNzPSJlciByZWxhdGlvbnNoaXBMYWJlbCI+aGFzPC90ZXh0PjxyZWN0IGhlaWdodD0iMTQiIHdpZHRoPSI0NC41MzkwNjI1IiB5PSI1MjIuMjkyNjYzNTc0MjE4OCIgeD0iNjQ4LjY5MjAxNjYwMTU2MjUiIGNsYXNzPSJlciByZWxhdGlvbnNoaXBMYWJlbEJveCI+PC9yZWN0Pjx0ZXh0IHN0eWxlPSJ0ZXh0LWFuY2hvcjogbWlkZGxlOyBkb21pbmFudC1iYXNlbGluZTogbWlkZGxlOyBmb250LXNpemU6IDEycHg7IiB5PSI1MjkuMjkyNjYzNTc0MjE4OCIgeD0iNjcwLjk2MTU0Nzg1MTU2MjUiIGlkPSJyZWwxNjEiIGNsYXNzPSJlciByZWxhdGlvbnNoaXBMYWJlbCI+cmVjZWl2ZXM8L3RleHQ+PHJlY3QgaGVpZ2h0PSIxNCIgd2lkdGg9IjU2LjA4Mzk4NDM3NSIgeT0iNjIxLjExMTE0NTAxOTUzMTIiIHg9IjkyOC44NjM2NDc0NjA5Mzc1IiBjbGFzcz0iZXIgcmVsYXRpb25zaGlwTGFiZWxCb3giPjwvcmVjdD48dGV4dCBzdHlsZT0idGV4dC1hbmNob3I6IG1pZGRsZTsgZG9taW5hbnQtYmFzZWxpbmU6IG1pZGRsZTsgZm9udC1zaXplOiAxMnB4OyIgeT0iNjI4LjExMTE0NTAxOTUzMTIiIHg9Ijk1Ni45MDU2Mzk2NDg0Mzc1IiBpZD0icmVsMTYyIiBjbGFzcz0iZXIgcmVsYXRpb25zaGlwTGFiZWwiPmFwcGVhcnMgaW48L3RleHQ+PHJlY3QgaGVpZ2h0PSIxNCIgd2lkdGg9Ijc3LjM4MDg1OTM3NSIgeT0iNTkyLjQwNzQ3MDcwMzEyNSIgeD0iMTI1Ny4yMDgzNzQwMjM0Mzc1IiBjbGFzcz0iZXIgcmVsYXRpb25zaGlwTGFiZWxCb3giPjwvcmVjdD48dGV4dCBzdHlsZT0idGV4dC1hbmNob3I6IG1pZGRsZTsgZG9taW5hbnQtYmFzZWxpbmU6IG1pZGRsZTsgZm9udC1zaXplOiAxMnB4OyIgeT0iNTk5LjQwNzQ3MDcwMzEyNSIgeD0iMTI5NS44OTg4MDM3MTA5Mzc1IiBpZD0icmVsMTYzIiBjbGFzcz0iZXIgcmVsYXRpb25zaGlwTGFiZWwiPnNvbGQgYXMgcGFydCBvZjwvdGV4dD48cmVjdCBoZWlnaHQ9IjE0IiB3aWR0aD0iMTI0LjczMjQyMTg3NSIgeT0iNTIwLjEzNzI2ODA2NjQwNjIiIHg9IjE2NTQuOTMzNDcxNjc5Njg3NSIgY2xhc3M9ImVyIHJlbGF0aW9uc2hpcExhYmVsQm94Ij48L3JlY3Q+PHRleHQgc3R5bGU9InRleHQtYW5jaG9yOiBtaWRkbGU7IGRvbWluYW50LWJhc2VsaW5lOiBtaWRkbGU7IGZvbnQtc2l6ZTogMTJweDsiIHk9IjUyNy4xMzcyNjgwNjY0MDYyIiB4PSIxNzE3LjI5OTY4MjYxNzE4NzUiIGlkPSJyZWwxNjQiIGNsYXNzPSJlciByZWxhdGlvbnNoaXBMYWJlbCI+c3ViamVjdCBmb3IgbW9kZXJhdGlvbjwvdGV4dD48cmVjdCBoZWlnaHQ9IjE0IiB3aWR0aD0iMjIuMzI2MTcxODc1IiB5PSI5MTIuMzY5NTA2ODM1OTM3NSIgeD0iOTUyLjA0MjI5NzM2MzI4MTIiIGNsYXNzPSJlciByZWxhdGlvbnNoaXBMYWJlbEJveCI+PC9yZWN0Pjx0ZXh0IHN0eWxlPSJ0ZXh0LWFuY2hvcjogbWlkZGxlOyBkb21pbmFudC1iYXNlbGluZTogbWlkZGxlOyBmb250LXNpemU6IDEycHg7IiB5PSI5MTkuMzY5NTA2ODM1OTM3NSIgeD0iOTYzLjIwNTM4MzMwMDc4MTIiIGlkPSJyZWwxNjUiIGNsYXNzPSJlciByZWxhdGlvbnNoaXBMYWJlbCI+Z2V0czwvdGV4dD48cmVjdCBoZWlnaHQ9IjE0IiB3aWR0aD0iNDQuOTc4NTE1NjI1IiB5PSI1NjQuNTM4NTEzMTgzNTkzOCIgeD0iNzE3LjE2MTY4MjEyODkwNjIiIGNsYXNzPSJlciByZWxhdGlvbnNoaXBMYWJlbEJveCI+PC9yZWN0Pjx0ZXh0IHN0eWxlPSJ0ZXh0LWFuY2hvcjogbWlkZGxlOyBkb21pbmFudC1iYXNlbGluZTogbWlkZGxlOyBmb250LXNpemU6IDEycHg7IiB5PSI1NzEuNTM4NTEzMTgzNTkzOCIgeD0iNzM5LjY1MDkzOTk0MTQwNjIiIGlkPSJyZWwxNjYiIGNsYXNzPSJlciByZWxhdGlvbnNoaXBMYWJlbCI+Y29udGFpbnM8L3RleHQ+PHJlY3QgaGVpZ2h0PSIxNCIgd2lkdGg9IjQ0LjI0NjA5Mzc1IiB5PSI1NDMuMDk2ODYyNzkyOTY4OCIgeD0iMTI3Mi45NDk4MjkxMDE1NjI1IiBjbGFzcz0iZXIgcmVsYXRpb25zaGlwTGFiZWxCb3giPjwvcmVjdD48dGV4dCBzdHlsZT0idGV4dC1hbmNob3I6IG1pZGRsZTsgZG9taW5hbnQtYmFzZWxpbmU6IG1pZGRsZTsgZm9udC1zaXplOiAxMnB4OyIgeT0iNTUwLjA5Njg2Mjc5Mjk2ODgiIHg9IjEyOTUuMDcyODc1OTc2NTYyNSIgaWQ9InJlbDE2NyIgY2xhc3M9ImVyIHJlbGF0aW9uc2hpcExhYmVsIj5pbmNsdWRlczwvdGV4dD48cmVjdCBoZWlnaHQ9IjE0IiB3aWR0aD0iMTcuODYxMzI4MTI1IiB5PSI1NTYuNDcyNjU2MjUiIHg9IjE0OTYuNTM3MzUzNTE1NjI1IiBjbGFzcz0iZXIgcmVsYXRpb25zaGlwTGFiZWxCb3giPjwvcmVjdD48dGV4dCBzdHlsZT0idGV4dC1hbmNob3I6IG1pZGRsZTsgZG9taW5hbnQtYmFzZWxpbmU6IG1pZGRsZTsgZm9udC1zaXplOiAxMnB4OyIgeT0iNTYzLjQ3MjY1NjI1IiB4PSIxNTA1LjQ2ODAxNzU3ODEyNSIgaWQ9InJlbDE2OCIgY2xhc3M9ImVyIHJlbGF0aW9uc2hpcExhYmVsIj5oYXM8L3RleHQ+PHJlY3QgaGVpZ2h0PSIxNCIgd2lkdGg9IjQ0LjI0NjA5Mzc1IiB5PSI1NTYuNDcyNzE3Mjg1MTU2MiIgeD0iMTY5OS42Mzk4OTI1NzgxMjUiIGNsYXNzPSJlciByZWxhdGlvbnNoaXBMYWJlbEJveCI+PC9yZWN0Pjx0ZXh0IHN0eWxlPSJ0ZXh0LWFuY2hvcjogbWlkZGxlOyBkb21pbmFudC1iYXNlbGluZTogbWlkZGxlOyBmb250LXNpemU6IDEycHg7IiB5PSI1NjMuNDcyNzE3Mjg1MTU2MiIgeD0iMTcyMS43NjI5Mzk0NTMxMjUiIGlkPSJyZWwxNjkiIGNsYXNzPSJlciByZWxhdGlvbnNoaXBMYWJlbCI+aW5jbHVkZXM8L3RleHQ+PHJlY3QgaGVpZ2h0PSIxNCIgd2lkdGg9IjQ4LjE1NjI1IiB5PSI1MjIuODk0OTU4NDk2MDkzOCIgeD0iMjEyNi45NzQzNjUyMzQzNzUiIGNsYXNzPSJlciByZWxhdGlvbnNoaXBMYWJlbEJveCI+PC9yZWN0Pjx0ZXh0IHN0eWxlPSJ0ZXh0LWFuY2hvcjogbWlkZGxlOyBkb21pbmFudC1iYXNlbGluZTogbWlkZGxlOyBmb250LXNpemU6IDEycHg7IiB5PSI1MjkuODk0OTU4NDk2MDkzOCIgeD0iMjE1MS4wNTI0OTAyMzQzNzUiIGlkPSJyZWwxNzAiIGNsYXNzPSJlciByZWxhdGlvbnNoaXBMYWJlbCI+Y2FuIGhhdmU8L3RleHQ+PC9zdmc+;imageBackground=default;imageBorder=default;" vertex="1" parent="1">
                        <mxGeometry x="-25640" y="-7150" width="31640" height="11110" as="geometry"/>
                    </mxCell>
                </UserObject>
            </root>
        </mxGraphModel>
    </diagram>
</mxfile>